<svg xmlns="http://www.w3.org/2000/svg" xmlns:xlink="http://www.w3.org/1999/xlink" width="500" zoomAndPan="magnify" viewBox="0 0 375 374.999991" height="500" preserveAspectRatio="xMidYMid meet" version="1.2"><defs><clipPath id="27ad5b5cde"><path d="M 171 131.050781 L 195.519531 131.050781 L 195.519531 159 L 171 159 Z M 171 131.050781 "/></clipPath><clipPath id="081c5e5eab"><path d="M 163.269531 143 L 178 143 L 178 162.550781 L 163.269531 162.550781 Z M 163.269531 143 "/></clipPath><clipPath id="e9311bca28"><path d="M 174 138.457031 L 182 138.457031 L 182 146 L 174 146 Z M 174 138.457031 "/></clipPath><clipPath id="df812d8f29"><path d="M 184 142 L 191.566406 142 L 191.566406 149 L 184 149 Z M 184 142 "/></clipPath><clipPath id="ab752baedb"><path d="M 169.066406 145 L 183 145 L 183 156.457031 L 169.066406 156.457031 Z M 169.066406 145 "/></clipPath></defs><g id="f5691258dd"><g style="fill:#021e1a;fill-opacity:1;"><g transform="translate(61.37149, 161.654364)"><path style="stroke:none" d="M 3.015625 -24.75 C 2.390625 -26.363281 1.816406 -27.460938 1.296875 -28.046875 C 0.773438 -28.628906 0.285156 -29.019531 -0.171875 -29.21875 L -0.171875 -29.765625 L 6.46875 -29.765625 L 6.46875 -29.21875 C 5.84375 -29.019531 5.578125 -28.628906 5.671875 -28.046875 C 5.773438 -27.460938 6.140625 -26.363281 6.765625 -24.75 L 14.96875 -3.703125 L 23.046875 -24.703125 C 23.585938 -26.128906 23.816406 -27.203125 23.734375 -27.921875 C 23.648438 -28.640625 23.238281 -29.070312 22.5 -29.21875 L 22.5 -29.765625 L 27.265625 -29.765625 L 27.265625 -29.21875 C 26.691406 -29.019531 26.128906 -28.628906 25.578125 -28.046875 C 25.023438 -27.460938 24.4375 -26.363281 23.8125 -24.75 L 14.15625 0.21875 L 12.96875 0.21875 Z M 3.015625 -24.75 "/></g></g><g style="fill:#021e1a;fill-opacity:1;"><g transform="translate(90.887534, 161.654364)"><path style="stroke:none" d="M 2.171875 0 L 2.171875 -0.546875 C 2.816406 -0.742188 3.257812 -1.171875 3.5 -1.828125 C 3.75 -2.484375 3.875 -3.675781 3.875 -5.40625 L 3.875 -24.375 C 3.875 -26.125 3.75 -27.316406 3.5 -27.953125 C 3.257812 -28.597656 2.816406 -29.019531 2.171875 -29.21875 L 2.171875 -29.765625 L 9.0625 -29.765625 L 9.0625 -29.21875 C 8.40625 -29.019531 7.957031 -28.597656 7.71875 -27.953125 C 7.476562 -27.316406 7.359375 -26.125 7.359375 -24.375 L 7.359375 -5.40625 C 7.359375 -3.675781 7.476562 -2.484375 7.71875 -1.828125 C 7.957031 -1.171875 8.40625 -0.742188 9.0625 -0.546875 L 9.0625 0 Z M 2.171875 0 "/></g></g><g style="fill:#021e1a;fill-opacity:1;"><g transform="translate(104.582297, 161.654364)"><path style="stroke:none" d="M 18.25 0.421875 C 14.988281 0.421875 12.160156 -0.15625 9.765625 -1.3125 C 7.367188 -2.476562 5.507812 -4.160156 4.1875 -6.359375 C 2.875 -8.554688 2.21875 -11.203125 2.21875 -14.296875 C 2.21875 -16.554688 2.625 -18.644531 3.4375 -20.5625 C 4.257812 -22.476562 5.429688 -24.148438 6.953125 -25.578125 C 8.472656 -27.015625 10.273438 -28.117188 12.359375 -28.890625 C 14.441406 -29.671875 16.726562 -30.0625 19.21875 -30.0625 C 20.4375 -30.0625 21.675781 -29.957031 22.9375 -29.75 C 24.207031 -29.539062 25.363281 -29.28125 26.40625 -28.96875 C 27.457031 -28.65625 28.253906 -28.3125 28.796875 -27.9375 L 28.96875 -22.875 L 28.53125 -22.796875 C 27.71875 -24.722656 26.351562 -26.28125 24.4375 -27.46875 C 22.519531 -28.664062 20.300781 -29.265625 17.78125 -29.265625 C 15.539062 -29.265625 13.507812 -28.765625 11.6875 -27.765625 C 9.875 -26.773438 8.4375 -25.300781 7.375 -23.34375 C 6.3125 -21.394531 5.78125 -18.972656 5.78125 -16.078125 C 5.78125 -14.085938 6.070312 -12.15625 6.65625 -10.28125 C 7.238281 -8.414062 8.109375 -6.738281 9.265625 -5.25 C 10.429688 -3.757812 11.863281 -2.582031 13.5625 -1.71875 C 15.269531 -0.851562 17.226562 -0.421875 19.4375 -0.421875 C 21.726562 -0.421875 23.734375 -1.015625 25.453125 -2.203125 C 27.171875 -3.398438 28.441406 -5.144531 29.265625 -7.4375 L 29.734375 -7.40625 L 29.046875 -1.875 C 28.054688 -1.332031 26.601562 -0.8125 24.6875 -0.3125 C 22.769531 0.175781 20.625 0.421875 18.25 0.421875 Z M 18.25 0.421875 "/></g></g><g style="fill:#021e1a;fill-opacity:1;"><g transform="translate(138.564015, 161.654364)"><path style="stroke:none" d="M 8.46875 0 L 8.46875 -0.546875 C 9.113281 -0.742188 9.554688 -1.171875 9.796875 -1.828125 C 10.046875 -2.484375 10.171875 -3.675781 10.171875 -5.40625 L 10.171875 -29.09375 L 8.078125 -29.09375 C 6.179688 -29.09375 4.734375 -28.796875 3.734375 -28.203125 C 2.742188 -27.609375 1.878906 -26.546875 1.140625 -25.015625 L 0.6875 -25.09375 L 0.9375 -29.765625 L 22.84375 -29.765625 L 23.09375 -25.09375 L 22.625 -25.015625 C 21.914062 -26.546875 21.066406 -27.609375 20.078125 -28.203125 C 19.085938 -28.796875 17.625 -29.09375 15.6875 -29.09375 L 13.6875 -29.09375 L 13.6875 -5.40625 C 13.6875 -3.675781 13.804688 -2.484375 14.046875 -1.828125 C 14.296875 -1.171875 14.742188 -0.742188 15.390625 -0.546875 L 15.390625 0 Z M 8.46875 0 "/></g></g><g style="fill:#021e1a;fill-opacity:1;"><g transform="translate(164.858137, 161.654364)"><path style="stroke:none" d=""/></g></g><g style="fill:#021e1a;fill-opacity:1;"><g transform="translate(176.256251, 161.654364)"><path style="stroke:none" d=""/></g></g><g style="fill:#021e1a;fill-opacity:1;"><g transform="translate(187.654365, 161.654364)"><path style="stroke:none" d=""/></g></g><g style="fill:#021e1a;fill-opacity:1;"><g transform="translate(199.066726, 161.654364)"><path style="stroke:none" d="M 23.8125 0.296875 C 22.738281 0.296875 21.890625 0.0351562 21.265625 -0.484375 C 20.640625 -1.015625 20.09375 -1.78125 19.625 -2.78125 C 19.15625 -3.789062 18.609375 -5.03125 17.984375 -6.5 C 17.367188 -7.976562 16.847656 -9.269531 16.421875 -10.375 C 15.992188 -11.476562 15.53125 -12.398438 15.03125 -13.140625 C 14.539062 -13.878906 13.910156 -14.429688 13.140625 -14.796875 C 12.378906 -15.171875 11.359375 -15.359375 10.078125 -15.359375 L 7.359375 -15.359375 L 7.359375 -5.40625 C 7.359375 -3.675781 7.476562 -2.484375 7.71875 -1.828125 C 7.957031 -1.171875 8.40625 -0.742188 9.0625 -0.546875 L 9.0625 0 L 2.171875 0 L 2.171875 -0.546875 C 2.816406 -0.742188 3.257812 -1.171875 3.5 -1.828125 C 3.75 -2.484375 3.875 -3.675781 3.875 -5.40625 L 3.875 -24.375 C 3.875 -26.125 3.75 -27.316406 3.5 -27.953125 C 3.257812 -28.597656 2.816406 -29.019531 2.171875 -29.21875 L 2.171875 -29.765625 L 10.546875 -29.765625 C 13.441406 -29.765625 15.695312 -29.472656 17.3125 -28.890625 C 18.925781 -28.316406 20.066406 -27.53125 20.734375 -26.53125 C 21.398438 -25.539062 21.734375 -24.410156 21.734375 -23.140625 C 21.734375 -21.148438 21.023438 -19.453125 19.609375 -18.046875 C 18.191406 -16.648438 16.09375 -15.796875 13.3125 -15.484375 C 14.613281 -15.304688 15.675781 -15.015625 16.5 -14.609375 C 17.320312 -14.203125 18.003906 -13.648438 18.546875 -12.953125 C 19.085938 -12.253906 19.566406 -11.410156 19.984375 -10.421875 C 20.410156 -9.429688 20.878906 -8.28125 21.390625 -6.96875 C 22.066406 -5.269531 22.640625 -3.953125 23.109375 -3.015625 C 23.578125 -2.078125 24.007812 -1.414062 24.40625 -1.03125 C 24.8125 -0.65625 25.253906 -0.46875 25.734375 -0.46875 C 25.867188 -0.46875 25.984375 -0.46875 26.078125 -0.46875 C 26.179688 -0.46875 26.289062 -0.484375 26.40625 -0.515625 L 26.40625 0 C 26.09375 0.113281 25.6875 0.191406 25.1875 0.234375 C 24.695312 0.273438 24.238281 0.296875 23.8125 0.296875 Z M 7.359375 -15.984375 L 10.9375 -15.984375 C 13.375 -15.984375 15.179688 -16.554688 16.359375 -17.703125 C 17.535156 -18.859375 18.125 -20.34375 18.125 -22.15625 C 18.125 -23.4375 17.832031 -24.597656 17.25 -25.640625 C 16.664062 -26.691406 15.726562 -27.535156 14.4375 -28.171875 C 13.144531 -28.816406 11.453125 -29.140625 9.359375 -29.140625 C 9.046875 -29.140625 8.71875 -29.128906 8.375 -29.109375 C 8.039062 -29.097656 7.703125 -29.078125 7.359375 -29.046875 Z M 7.359375 -15.984375 "/></g></g><g style="fill:#021e1a;fill-opacity:1;"><g transform="translate(61.37149, 204.184778)"><path style="stroke:none" d="M 2.171875 0 L 2.171875 -0.546875 C 2.816406 -0.742188 3.257812 -1.171875 3.5 -1.828125 C 3.75 -2.484375 3.875 -3.675781 3.875 -5.40625 L 3.875 -24.375 C 3.875 -26.125 3.75 -27.316406 3.5 -27.953125 C 3.257812 -28.597656 2.816406 -29.019531 2.171875 -29.21875 L 2.171875 -29.765625 L 9.0625 -29.765625 L 9.0625 -29.21875 C 8.40625 -29.019531 7.957031 -28.597656 7.71875 -27.953125 C 7.476562 -27.316406 7.359375 -26.125 7.359375 -24.375 L 7.359375 -2.59375 C 7.359375 -1.320312 7.992188 -0.6875 9.265625 -0.6875 L 14.328125 -0.6875 C 16.367188 -0.6875 17.9375 -0.988281 19.03125 -1.59375 C 20.125 -2.207031 21.039062 -3.304688 21.78125 -4.890625 L 22.25 -4.8125 L 21.953125 0 Z M 2.171875 0 "/></g></g><g style="fill:#021e1a;fill-opacity:1;"><g transform="translate(86.93221, 204.184778)"><path style="stroke:none" d="M 2.171875 0 L 2.171875 -0.546875 C 2.816406 -0.742188 3.257812 -1.171875 3.5 -1.828125 C 3.75 -2.484375 3.875 -3.675781 3.875 -5.40625 L 3.875 -24.375 C 3.875 -26.125 3.75 -27.316406 3.5 -27.953125 C 3.257812 -28.597656 2.816406 -29.019531 2.171875 -29.21875 L 2.171875 -29.765625 L 21.953125 -29.765625 L 22.40625 -24.25 L 21.953125 -24.109375 C 21.210938 -25.984375 20.179688 -27.289062 18.859375 -28.03125 C 17.546875 -28.769531 15.796875 -29.140625 13.609375 -29.140625 L 7.359375 -29.140625 L 7.359375 -16.25 L 12.796875 -16.25 C 14.410156 -16.25 15.664062 -16.351562 16.5625 -16.5625 C 17.457031 -16.78125 18.109375 -17.109375 18.515625 -17.546875 C 18.929688 -17.984375 19.222656 -18.515625 19.390625 -19.140625 L 19.90625 -19.140625 L 19.90625 -12.71875 L 19.390625 -12.71875 C 19.222656 -13.363281 18.929688 -13.898438 18.515625 -14.328125 C 18.109375 -14.753906 17.457031 -15.070312 16.5625 -15.28125 C 15.664062 -15.5 14.410156 -15.609375 12.796875 -15.609375 L 7.359375 -15.609375 L 7.359375 -2.546875 C 7.359375 -1.273438 7.992188 -0.640625 9.265625 -0.640625 L 14.796875 -0.640625 C 16.835938 -0.640625 18.523438 -0.992188 19.859375 -1.703125 C 21.191406 -2.410156 22.242188 -3.753906 23.015625 -5.734375 L 23.484375 -5.65625 L 23.140625 0 Z M 2.171875 0 "/></g></g><g style="fill:#021e1a;fill-opacity:1;"><g transform="translate(114.449331, 204.184778)"><path style="stroke:none" d="M 17.359375 0.421875 C 15.535156 0.421875 13.726562 0.117188 11.9375 -0.484375 C 10.15625 -1.097656 8.523438 -2.035156 7.046875 -3.296875 C 5.578125 -4.554688 4.40625 -6.148438 3.53125 -8.078125 C 2.65625 -10.003906 2.21875 -12.285156 2.21875 -14.921875 C 2.21875 -17.847656 2.851562 -20.453125 4.125 -22.734375 C 5.40625 -25.015625 7.175781 -26.8125 9.4375 -28.125 C 11.707031 -29.445312 14.347656 -30.109375 17.359375 -30.109375 C 19.140625 -30.109375 20.921875 -29.796875 22.703125 -29.171875 C 24.492188 -28.546875 26.117188 -27.601562 27.578125 -26.34375 C 29.035156 -25.082031 30.203125 -23.488281 31.078125 -21.5625 C 31.960938 -19.632812 32.40625 -17.367188 32.40625 -14.765625 C 32.40625 -12.117188 31.960938 -9.847656 31.078125 -7.953125 C 30.203125 -6.054688 29.023438 -4.484375 27.546875 -3.234375 C 26.078125 -1.984375 24.457031 -1.0625 22.6875 -0.46875 C 20.914062 0.125 19.140625 0.421875 17.359375 0.421875 Z M 5.609375 -17.390625 C 5.691406 -15.265625 6.082031 -13.203125 6.78125 -11.203125 C 7.476562 -9.203125 8.425781 -7.40625 9.625 -5.8125 C 10.832031 -4.226562 12.242188 -2.96875 13.859375 -2.03125 C 15.484375 -1.101562 17.242188 -0.640625 19.140625 -0.640625 C 21.410156 -0.640625 23.296875 -1.132812 24.796875 -2.125 C 26.296875 -3.113281 27.40625 -4.46875 28.125 -6.1875 C 28.851562 -7.90625 29.175781 -9.828125 29.09375 -11.953125 C 29.007812 -14.160156 28.617188 -16.289062 27.921875 -18.34375 C 27.222656 -20.40625 26.28125 -22.242188 25.09375 -23.859375 C 23.90625 -25.472656 22.5 -26.753906 20.875 -27.703125 C 19.257812 -28.660156 17.503906 -29.140625 15.609375 -29.140625 C 13.453125 -29.140625 11.613281 -28.640625 10.09375 -27.640625 C 8.582031 -26.648438 7.4375 -25.273438 6.65625 -23.515625 C 5.875 -21.765625 5.523438 -19.722656 5.609375 -17.390625 Z M 5.609375 -17.390625 "/></g></g><g style="fill:#021e1a;fill-opacity:1;"><g transform="translate(151.493238, 204.184778)"><path style="stroke:none" d="M 24.625 0.34375 L 4.59375 -25.734375 L 4.59375 -7.109375 C 4.59375 -5.484375 4.707031 -4.234375 4.9375 -3.359375 C 5.164062 -2.484375 5.5 -1.835938 5.9375 -1.421875 C 6.375 -1.015625 6.90625 -0.722656 7.53125 -0.546875 L 7.53125 0 L 2.21875 0 L 2.21875 -0.546875 C 2.863281 -0.742188 3.304688 -1.171875 3.546875 -1.828125 C 3.785156 -2.484375 3.90625 -3.675781 3.90625 -5.40625 L 3.90625 -24.375 C 3.90625 -26.125 3.75 -27.316406 3.4375 -27.953125 C 3.132812 -28.597656 2.554688 -29.019531 1.703125 -29.21875 L 1.703125 -29.765625 L 5.875 -29.765625 L 24.453125 -5.703125 L 24.453125 -22.671875 C 24.453125 -24.285156 24.335938 -25.535156 24.109375 -26.421875 C 23.890625 -27.316406 23.566406 -27.960938 23.140625 -28.359375 C 22.710938 -28.765625 22.171875 -29.050781 21.515625 -29.21875 L 21.515625 -29.765625 L 26.875 -29.765625 L 26.875 -29.21875 C 26.226562 -29.019531 25.78125 -28.597656 25.53125 -27.953125 C 25.289062 -27.316406 25.171875 -26.125 25.171875 -24.375 L 25.171875 0.34375 Z M 24.625 0.34375 "/></g></g><g style="fill:#021e1a;fill-opacity:1;"><g transform="translate(182.540377, 204.184778)"><path style="stroke:none" d="M -0.71875 0 L -0.71875 -0.546875 C -0.125 -0.742188 0.453125 -1.132812 1.015625 -1.71875 C 1.585938 -2.300781 2.195312 -3.398438 2.84375 -5.015625 L 11.234375 -25.78125 C 11.484375 -26.457031 11.453125 -27.117188 11.140625 -27.765625 L 10.765625 -28.671875 L 13.953125 -30.109375 L 24.40625 -4.96875 C 25.0625 -3.382812 25.648438 -2.300781 26.171875 -1.71875 C 26.703125 -1.132812 27.191406 -0.742188 27.640625 -0.546875 L 27.640625 0 L 21.046875 0 L 21.046875 -0.546875 C 21.703125 -0.742188 21.972656 -1.132812 21.859375 -1.71875 C 21.742188 -2.300781 21.347656 -3.382812 20.671875 -4.96875 L 18.078125 -11.234375 L 6.078125 -11.234375 L 3.578125 -5.015625 C 2.492188 -2.328125 2.660156 -0.835938 4.078125 -0.546875 L 4.078125 0 Z M 6.34375 -11.859375 L 17.828125 -11.859375 L 12 -25.859375 Z M 6.34375 -11.859375 "/></g></g><g style="fill:#021e1a;fill-opacity:1;"><g transform="translate(212.269075, 204.184778)"><path style="stroke:none" d="M 23.8125 0.296875 C 22.738281 0.296875 21.890625 0.0351562 21.265625 -0.484375 C 20.640625 -1.015625 20.09375 -1.78125 19.625 -2.78125 C 19.15625 -3.789062 18.609375 -5.03125 17.984375 -6.5 C 17.367188 -7.976562 16.847656 -9.269531 16.421875 -10.375 C 15.992188 -11.476562 15.53125 -12.398438 15.03125 -13.140625 C 14.539062 -13.878906 13.910156 -14.429688 13.140625 -14.796875 C 12.378906 -15.171875 11.359375 -15.359375 10.078125 -15.359375 L 7.359375 -15.359375 L 7.359375 -5.40625 C 7.359375 -3.675781 7.476562 -2.484375 7.71875 -1.828125 C 7.957031 -1.171875 8.40625 -0.742188 9.0625 -0.546875 L 9.0625 0 L 2.171875 0 L 2.171875 -0.546875 C 2.816406 -0.742188 3.257812 -1.171875 3.5 -1.828125 C 3.75 -2.484375 3.875 -3.675781 3.875 -5.40625 L 3.875 -24.375 C 3.875 -26.125 3.75 -27.316406 3.5 -27.953125 C 3.257812 -28.597656 2.816406 -29.019531 2.171875 -29.21875 L 2.171875 -29.765625 L 10.546875 -29.765625 C 13.441406 -29.765625 15.695312 -29.472656 17.3125 -28.890625 C 18.925781 -28.316406 20.066406 -27.53125 20.734375 -26.53125 C 21.398438 -25.539062 21.734375 -24.410156 21.734375 -23.140625 C 21.734375 -21.148438 21.023438 -19.453125 19.609375 -18.046875 C 18.191406 -16.648438 16.09375 -15.796875 13.3125 -15.484375 C 14.613281 -15.304688 15.675781 -15.015625 16.5 -14.609375 C 17.320312 -14.203125 18.003906 -13.648438 18.546875 -12.953125 C 19.085938 -12.253906 19.566406 -11.410156 19.984375 -10.421875 C 20.410156 -9.429688 20.878906 -8.28125 21.390625 -6.96875 C 22.066406 -5.269531 22.640625 -3.953125 23.109375 -3.015625 C 23.578125 -2.078125 24.007812 -1.414062 24.40625 -1.03125 C 24.8125 -0.65625 25.253906 -0.46875 25.734375 -0.46875 C 25.867188 -0.46875 25.984375 -0.46875 26.078125 -0.46875 C 26.179688 -0.46875 26.289062 -0.484375 26.40625 -0.515625 L 26.40625 0 C 26.09375 0.113281 25.6875 0.191406 25.1875 0.234375 C 24.695312 0.273438 24.238281 0.296875 23.8125 0.296875 Z M 7.359375 -15.984375 L 10.9375 -15.984375 C 13.375 -15.984375 15.179688 -16.554688 16.359375 -17.703125 C 17.535156 -18.859375 18.125 -20.34375 18.125 -22.15625 C 18.125 -23.4375 17.832031 -24.597656 17.25 -25.640625 C 16.664062 -26.691406 15.726562 -27.535156 14.4375 -28.171875 C 13.144531 -28.816406 11.453125 -29.140625 9.359375 -29.140625 C 9.046875 -29.140625 8.71875 -29.128906 8.375 -29.109375 C 8.039062 -29.097656 7.703125 -29.078125 7.359375 -29.046875 Z M 7.359375 -15.984375 "/></g></g><g style="fill:#021e1a;fill-opacity:1;"><g transform="translate(240.764389, 204.184778)"><path style="stroke:none" d="M 2.171875 0 L 2.171875 -0.546875 C 2.816406 -0.742188 3.257812 -1.171875 3.5 -1.828125 C 3.75 -2.484375 3.875 -3.675781 3.875 -5.40625 L 3.875 -24.375 C 3.875 -26.125 3.75 -27.316406 3.5 -27.953125 C 3.257812 -28.597656 2.816406 -29.019531 2.171875 -29.21875 L 2.171875 -29.765625 L 12.328125 -29.765625 C 15.253906 -29.765625 17.75 -29.347656 19.8125 -28.515625 C 21.882812 -27.679688 23.570312 -26.566406 24.875 -25.171875 C 26.1875 -23.785156 27.144531 -22.25 27.75 -20.5625 C 28.363281 -18.875 28.671875 -17.164062 28.671875 -15.4375 C 28.691406 -12.457031 28.070312 -9.804688 26.8125 -7.484375 C 25.550781 -5.160156 23.765625 -3.332031 21.453125 -2 C 19.140625 -0.664062 16.425781 0 13.3125 0 Z M 7.359375 -3.75 C 7.359375 -2.75 7.523438 -1.976562 7.859375 -1.4375 C 8.203125 -0.90625 8.957031 -0.640625 10.125 -0.640625 L 13.234375 -0.640625 C 16.941406 -0.640625 19.796875 -1.707031 21.796875 -3.84375 C 23.796875 -5.988281 24.796875 -9.285156 24.796875 -13.734375 C 24.796875 -16.566406 24.242188 -19.144531 23.140625 -21.46875 C 22.035156 -23.800781 20.40625 -25.660156 18.25 -27.046875 C 16.09375 -28.441406 13.425781 -29.140625 10.25 -29.140625 L 7.359375 -29.140625 Z M 7.359375 -3.75 "/></g></g><g style="fill:#021e1a;fill-opacity:1;"><g transform="translate(274.065626, 204.184778)"><path style="stroke:none" d="M 17.359375 0.421875 C 15.535156 0.421875 13.726562 0.117188 11.9375 -0.484375 C 10.15625 -1.097656 8.523438 -2.035156 7.046875 -3.296875 C 5.578125 -4.554688 4.40625 -6.148438 3.53125 -8.078125 C 2.65625 -10.003906 2.21875 -12.285156 2.21875 -14.921875 C 2.21875 -17.847656 2.851562 -20.453125 4.125 -22.734375 C 5.40625 -25.015625 7.175781 -26.8125 9.4375 -28.125 C 11.707031 -29.445312 14.347656 -30.109375 17.359375 -30.109375 C 19.140625 -30.109375 20.921875 -29.796875 22.703125 -29.171875 C 24.492188 -28.546875 26.117188 -27.601562 27.578125 -26.34375 C 29.035156 -25.082031 30.203125 -23.488281 31.078125 -21.5625 C 31.960938 -19.632812 32.40625 -17.367188 32.40625 -14.765625 C 32.40625 -12.117188 31.960938 -9.847656 31.078125 -7.953125 C 30.203125 -6.054688 29.023438 -4.484375 27.546875 -3.234375 C 26.078125 -1.984375 24.457031 -1.0625 22.6875 -0.46875 C 20.914062 0.125 19.140625 0.421875 17.359375 0.421875 Z M 5.609375 -17.390625 C 5.691406 -15.265625 6.082031 -13.203125 6.78125 -11.203125 C 7.476562 -9.203125 8.425781 -7.40625 9.625 -5.8125 C 10.832031 -4.226562 12.242188 -2.96875 13.859375 -2.03125 C 15.484375 -1.101562 17.242188 -0.640625 19.140625 -0.640625 C 21.410156 -0.640625 23.296875 -1.132812 24.796875 -2.125 C 26.296875 -3.113281 27.40625 -4.46875 28.125 -6.1875 C 28.851562 -7.90625 29.175781 -9.828125 29.09375 -11.953125 C 29.007812 -14.160156 28.617188 -16.289062 27.921875 -18.34375 C 27.222656 -20.40625 26.28125 -22.242188 25.09375 -23.859375 C 23.90625 -25.472656 22.5 -26.753906 20.875 -27.703125 C 19.257812 -28.660156 17.503906 -29.140625 15.609375 -29.140625 C 13.453125 -29.140625 11.613281 -28.640625 10.09375 -27.640625 C 8.582031 -26.648438 7.4375 -25.273438 6.65625 -23.515625 C 5.875 -21.765625 5.523438 -19.722656 5.609375 -17.390625 Z M 5.609375 -17.390625 "/></g></g><g clip-rule="nonzero" clip-path="url(#27ad5b5cde)"><path style=" stroke:none;fill-rule:nonzero;fill:#055001;fill-opacity:1;" d="M 179.507812 131.066406 C 179.777344 131.066406 179.972656 131.0625 180.164062 131.066406 C 180.640625 131.070312 181.109375 131.128906 181.578125 131.183594 C 182.796875 131.324219 183.972656 131.625 185.121094 132.050781 C 186.617188 132.605469 187.992188 133.367188 189.253906 134.339844 C 190.042969 134.945312 190.769531 135.621094 191.425781 136.367188 C 192.308594 137.367188 193.054688 138.460938 193.660156 139.652344 C 194.089844 140.496094 194.445312 141.367188 194.71875 142.273438 C 194.898438 142.882812 195.058594 143.5 195.15625 144.128906 C 195.230469 144.605469 195.289062 145.085938 195.335938 145.5625 C 195.402344 146.21875 195.410156 146.875 195.382812 147.527344 C 195.355469 148.15625 195.289062 148.78125 195.1875 149.40625 C 194.75 152.085938 193.691406 154.488281 192.03125 156.632812 C 191.625 157.160156 191.175781 157.65625 190.703125 158.128906 C 190.621094 158.210938 190.589844 158.179688 190.539062 158.109375 C 190.359375 157.863281 190.363281 157.867188 190.574219 157.648438 C 192.03125 156.144531 193.167969 154.429688 193.925781 152.46875 C 194.167969 151.855469 194.375 151.226562 194.535156 150.585938 C 194.65625 150.097656 194.753906 149.605469 194.824219 149.105469 C 194.902344 148.53125 194.957031 147.953125 194.980469 147.367188 C 194.988281 147.097656 195.011719 146.820312 194.996094 146.550781 C 194.964844 146.074219 194.945312 145.597656 194.886719 145.121094 C 194.796875 144.367188 194.65625 143.625 194.464844 142.890625 C 194.25 142.085938 193.972656 141.308594 193.628906 140.550781 C 193 139.15625 192.179688 137.882812 191.171875 136.730469 C 189.753906 135.117188 188.074219 133.847656 186.132812 132.925781 C 185.300781 132.53125 184.433594 132.214844 183.542969 131.976562 C 182.929688 131.8125 182.308594 131.679688 181.675781 131.601562 C 181.242188 131.550781 180.8125 131.515625 180.382812 131.480469 C 179.914062 131.445312 179.445312 131.449219 178.980469 131.464844 C 178.566406 131.480469 178.15625 131.515625 177.742188 131.570312 C 177.3125 131.628906 176.882812 131.699219 176.457031 131.78125 C 175.78125 131.917969 175.121094 132.097656 174.472656 132.328125 C 173.554688 132.648438 172.675781 133.054688 171.839844 133.542969 C 171.796875 133.570312 171.773438 133.570312 171.730469 133.53125 C 171.484375 133.300781 171.484375 133.273438 171.777344 133.109375 C 172.949219 132.449219 174.183594 131.941406 175.484375 131.589844 C 176.097656 131.425781 176.71875 131.296875 177.351562 131.214844 C 177.738281 131.164062 178.125 131.132812 178.511719 131.09375 C 178.867188 131.050781 179.226562 131.085938 179.507812 131.066406 Z M 179.507812 131.066406 "/></g><path style=" stroke:none;fill-rule:nonzero;fill:#055001;fill-opacity:1;" d="M 193.835938 146.679688 C 193.832031 147.203125 193.851562 147.59375 193.804688 147.980469 C 193.730469 148.566406 193.667969 149.152344 193.546875 149.734375 C 193.28125 151.003906 192.851562 152.214844 192.265625 153.367188 C 191.738281 154.394531 191.09375 155.34375 190.335938 156.21875 C 189.28125 157.429688 188.058594 158.433594 186.664062 159.226562 C 185.757812 159.746094 184.804688 160.160156 183.804688 160.46875 C 183.085938 160.691406 182.355469 160.871094 181.613281 160.972656 C 181.1875 161.03125 180.761719 161.074219 180.332031 161.101562 C 179.90625 161.128906 179.484375 161.128906 179.0625 161.117188 C 178.460938 161.101562 177.863281 161.027344 177.265625 160.9375 C 176.703125 160.855469 176.148438 160.730469 175.605469 160.574219 C 174.527344 160.269531 173.5 159.839844 172.519531 159.292969 C 171.398438 158.660156 170.378906 157.890625 169.460938 156.988281 C 169.265625 156.800781 169.265625 156.808594 169.484375 156.640625 C 169.574219 156.574219 169.621094 156.59375 169.691406 156.660156 C 170.640625 157.613281 171.703125 158.414062 172.882812 159.058594 C 173.914062 159.621094 175.003906 160.050781 176.144531 160.332031 C 176.820312 160.503906 177.5 160.636719 178.195312 160.683594 C 178.480469 160.703125 178.761719 160.722656 179.042969 160.742188 C 179.261719 160.753906 179.476562 160.773438 179.695312 160.761719 C 180.472656 160.726562 181.246094 160.675781 182.011719 160.535156 C 182.765625 160.394531 183.503906 160.203125 184.226562 159.945312 C 185.503906 159.484375 186.695312 158.851562 187.792969 158.039062 C 188.75 157.335938 189.601562 156.523438 190.351562 155.601562 C 191.046875 154.746094 191.632812 153.824219 192.113281 152.832031 C 192.46875 152.097656 192.75 151.332031 192.972656 150.542969 C 193.152344 149.910156 193.277344 149.269531 193.371094 148.621094 C 193.417969 148.300781 193.425781 147.976562 193.457031 147.660156 C 193.488281 147.300781 193.488281 146.941406 193.480469 146.585938 C 193.464844 145.648438 193.355469 144.722656 193.15625 143.808594 C 192.9375 142.792969 192.597656 141.824219 192.164062 140.886719 C 192 140.535156 191.816406 140.191406 191.621094 139.855469 C 191.566406 139.761719 191.585938 139.71875 191.65625 139.664062 C 191.675781 139.648438 191.699219 139.636719 191.714844 139.617188 C 191.816406 139.507812 191.871094 139.539062 191.9375 139.660156 C 192.554688 140.742188 193.03125 141.882812 193.355469 143.082031 C 193.519531 143.699219 193.652344 144.328125 193.726562 144.96875 C 193.796875 145.578125 193.855469 146.195312 193.835938 146.679688 Z M 193.835938 146.679688 "/><g clip-rule="nonzero" clip-path="url(#081c5e5eab)"><path style=" stroke:none;fill-rule:nonzero;fill:#055001;fill-opacity:1;" d="M 164.046875 143.820312 C 164.144531 143.851562 164.238281 143.871094 164.320312 143.914062 C 164.457031 143.988281 164.425781 144.117188 164.402344 144.238281 C 164.308594 144.714844 164.257812 145.199219 164.21875 145.683594 C 164.183594 146.160156 164.152344 146.636719 164.167969 147.113281 C 164.179688 147.625 164.222656 148.136719 164.277344 148.648438 C 164.355469 149.367188 164.496094 150.074219 164.675781 150.773438 C 164.945312 151.835938 165.34375 152.855469 165.839844 153.835938 C 166.613281 155.351562 167.613281 156.703125 168.828125 157.890625 C 169.816406 158.855469 170.917969 159.671875 172.125 160.34375 C 173.046875 160.855469 174.003906 161.269531 175.011719 161.578125 C 175.671875 161.78125 176.339844 161.949219 177.023438 162.054688 C 177.085938 162.066406 177.148438 162.074219 177.210938 162.085938 C 177.308594 162.105469 177.402344 162.132812 177.460938 162.242188 C 177.515625 162.351562 177.597656 162.441406 177.65625 162.558594 C 173.140625 161.925781 169.457031 159.855469 166.777344 156.144531 C 164.105469 152.445312 163.273438 148.304688 164.046875 143.820312 Z M 164.046875 143.820312 "/></g><path style=" stroke:none;fill-rule:nonzero;fill:#055001;fill-opacity:1;" d="M 182.507812 132.800781 C 182.359375 132.90625 182.242188 132.980469 182.136719 133.070312 C 182.0625 133.128906 182 133.082031 181.9375 133.074219 C 181.5 132.996094 181.058594 132.953125 180.613281 132.914062 C 180.164062 132.878906 179.710938 132.847656 179.257812 132.863281 C 178.679688 132.886719 178.101562 132.933594 177.53125 133.015625 C 176.851562 133.113281 176.183594 133.261719 175.523438 133.460938 C 173.691406 134.015625 172.042969 134.914062 170.578125 136.140625 C 169.21875 137.28125 168.121094 138.628906 167.277344 140.183594 C 166.714844 141.214844 166.28125 142.300781 166.015625 143.449219 C 165.984375 143.585938 165.921875 143.613281 165.808594 143.570312 C 165.746094 143.542969 165.683594 143.5625 165.59375 143.539062 C 166.585938 139.640625 168.738281 136.59375 172.199219 134.527344 C 175.382812 132.625 178.828125 132.09375 182.507812 132.800781 Z M 182.507812 132.800781 "/><g style="fill:#021e1a;fill-opacity:1;"><g transform="translate(61.37149, 229.33769)"><path style="stroke:none" d="M 2.0625 0 L 1.53125 0 C 1.320312 0 1.21875 -0.113281 1.21875 -0.34375 L 1.21875 -8.53125 C 1.21875 -8.75 1.320312 -8.859375 1.53125 -8.859375 L 6.6875 -8.859375 C 6.914062 -8.859375 7.03125 -8.75 7.03125 -8.53125 L 7.03125 -8.21875 C 7.03125 -7.988281 6.914062 -7.875 6.6875 -7.875 L 2.390625 -7.875 L 2.390625 -4.84375 L 5.625 -4.84375 C 5.851562 -4.84375 5.96875 -4.734375 5.96875 -4.515625 L 5.96875 -4.265625 C 5.96875 -4.035156 5.851562 -3.921875 5.625 -3.921875 L 2.390625 -3.921875 L 2.390625 -0.34375 C 2.390625 -0.113281 2.28125 0 2.0625 0 Z M 2.0625 0 "/></g></g><g style="fill:#021e1a;fill-opacity:1;"><g transform="translate(71.197606, 229.33769)"><path style="stroke:none" d="M 2.0625 0 L 1.53125 0 C 1.320312 0 1.21875 -0.113281 1.21875 -0.34375 L 1.21875 -8.515625 C 1.21875 -8.742188 1.320312 -8.859375 1.53125 -8.859375 L 2.0625 -8.859375 C 2.28125 -8.859375 2.390625 -8.742188 2.390625 -8.515625 L 2.390625 -0.34375 C 2.390625 -0.113281 2.28125 0 2.0625 0 Z M 2.0625 0 "/></g></g><g style="fill:#021e1a;fill-opacity:1;"><g transform="translate(77.388459, 229.33769)"><path style="stroke:none" d="M 3.84375 0.15625 C 3.175781 0.15625 2.550781 0.0351562 1.96875 -0.203125 C 1.382812 -0.441406 0.921875 -0.78125 0.578125 -1.21875 C 0.390625 -1.40625 0.367188 -1.582031 0.515625 -1.75 L 0.765625 -2.03125 C 0.921875 -2.1875 1.082031 -2.1875 1.25 -2.03125 C 1.507812 -1.664062 1.867188 -1.375 2.328125 -1.15625 C 2.796875 -0.945312 3.273438 -0.84375 3.765625 -0.84375 C 4.328125 -0.84375 4.785156 -0.984375 5.140625 -1.265625 C 5.492188 -1.546875 5.671875 -1.898438 5.671875 -2.328125 C 5.671875 -2.691406 5.5625 -2.972656 5.34375 -3.171875 C 5.125 -3.378906 4.84375 -3.550781 4.5 -3.6875 C 4.15625 -3.820312 3.796875 -3.957031 3.421875 -4.09375 C 3.003906 -4.25 2.601562 -4.425781 2.21875 -4.625 C 1.832031 -4.832031 1.515625 -5.097656 1.265625 -5.421875 C 1.023438 -5.742188 0.90625 -6.148438 0.90625 -6.640625 C 0.90625 -7.109375 1.023438 -7.519531 1.265625 -7.875 C 1.515625 -8.226562 1.859375 -8.503906 2.296875 -8.703125 C 2.742188 -8.910156 3.257812 -9.015625 3.84375 -9.015625 C 4.34375 -9.015625 4.816406 -8.929688 5.265625 -8.765625 C 5.710938 -8.609375 6.101562 -8.359375 6.4375 -8.015625 C 6.632812 -7.828125 6.660156 -7.65625 6.515625 -7.5 L 6.296875 -7.25 C 6.140625 -7.082031 5.96875 -7.082031 5.78125 -7.25 C 5.257812 -7.789062 4.617188 -8.0625 3.859375 -8.0625 C 3.328125 -8.0625 2.90625 -7.925781 2.59375 -7.65625 C 2.289062 -7.394531 2.140625 -7.070312 2.140625 -6.6875 C 2.140625 -6.289062 2.300781 -5.972656 2.625 -5.734375 C 2.957031 -5.492188 3.363281 -5.285156 3.84375 -5.109375 C 4.207031 -4.972656 4.566406 -4.832031 4.921875 -4.6875 C 5.285156 -4.550781 5.613281 -4.382812 5.90625 -4.1875 C 6.195312 -3.988281 6.429688 -3.742188 6.609375 -3.453125 C 6.796875 -3.160156 6.890625 -2.796875 6.890625 -2.359375 C 6.890625 -1.835938 6.753906 -1.390625 6.484375 -1.015625 C 6.210938 -0.640625 5.847656 -0.347656 5.390625 -0.140625 C 4.929688 0.0546875 4.414062 0.15625 3.84375 0.15625 Z M 3.84375 0.15625 "/></g></g><g style="fill:#021e1a;fill-opacity:1;"><g transform="translate(87.323495, 229.33769)"><path style="stroke:none" d="M 2.0625 0 L 1.53125 0 C 1.320312 0 1.21875 -0.113281 1.21875 -0.34375 L 1.21875 -8.515625 C 1.21875 -8.742188 1.320312 -8.859375 1.53125 -8.859375 L 2.0625 -8.859375 C 2.28125 -8.859375 2.390625 -8.742188 2.390625 -8.515625 L 2.390625 -0.34375 C 2.390625 -0.113281 2.28125 0 2.0625 0 Z M 2.0625 0 "/></g></g><g style="fill:#021e1a;fill-opacity:1;"><g transform="translate(93.514348, 229.33769)"><path style="stroke:none" d="M 5.359375 0.15625 C 4.671875 0.15625 4.035156 0.0390625 3.453125 -0.1875 C 2.878906 -0.414062 2.378906 -0.738281 1.953125 -1.15625 C 1.523438 -1.570312 1.191406 -2.054688 0.953125 -2.609375 C 0.710938 -3.171875 0.59375 -3.773438 0.59375 -4.421875 C 0.59375 -5.078125 0.710938 -5.679688 0.953125 -6.234375 C 1.191406 -6.785156 1.523438 -7.269531 1.953125 -7.6875 C 2.378906 -8.113281 2.878906 -8.441406 3.453125 -8.671875 C 4.035156 -8.898438 4.671875 -9.015625 5.359375 -9.015625 C 6.054688 -9.015625 6.691406 -8.898438 7.265625 -8.671875 C 7.847656 -8.441406 8.351562 -8.113281 8.78125 -7.6875 C 9.21875 -7.269531 9.550781 -6.785156 9.78125 -6.234375 C 10.019531 -5.679688 10.140625 -5.078125 10.140625 -4.421875 C 10.140625 -3.773438 10.019531 -3.171875 9.78125 -2.609375 C 9.550781 -2.054688 9.21875 -1.570312 8.78125 -1.15625 C 8.351562 -0.738281 7.847656 -0.414062 7.265625 -0.1875 C 6.691406 0.0390625 6.054688 0.15625 5.359375 0.15625 Z M 5.359375 -0.90625 C 6.035156 -0.90625 6.640625 -1.0625 7.171875 -1.375 C 7.710938 -1.695312 8.140625 -2.125 8.453125 -2.65625 C 8.765625 -3.1875 8.921875 -3.773438 8.921875 -4.421875 C 8.921875 -5.085938 8.765625 -5.679688 8.453125 -6.203125 C 8.140625 -6.734375 7.710938 -7.15625 7.171875 -7.46875 C 6.640625 -7.78125 6.035156 -7.9375 5.359375 -7.9375 C 4.691406 -7.9375 4.085938 -7.78125 3.546875 -7.46875 C 3.015625 -7.15625 2.59375 -6.734375 2.28125 -6.203125 C 1.96875 -5.679688 1.8125 -5.085938 1.8125 -4.421875 C 1.8125 -3.773438 1.96875 -3.1875 2.28125 -2.65625 C 2.59375 -2.125 3.015625 -1.695312 3.546875 -1.375 C 4.085938 -1.0625 4.691406 -0.90625 5.359375 -0.90625 Z M 5.359375 -0.90625 "/></g></g><g style="fill:#021e1a;fill-opacity:1;"><g transform="translate(106.839573, 229.33769)"><path style="stroke:none" d="M 4.015625 0 L 3.515625 0 C 3.285156 0 3.171875 -0.113281 3.171875 -0.34375 L 3.171875 -7.875 L 0.546875 -7.875 C 0.304688 -7.875 0.1875 -7.984375 0.1875 -8.203125 L 0.1875 -8.53125 C 0.1875 -8.75 0.304688 -8.859375 0.546875 -8.859375 L 7.046875 -8.859375 C 7.265625 -8.859375 7.375 -8.75 7.375 -8.53125 L 7.375 -8.203125 C 7.375 -7.984375 7.265625 -7.875 7.046875 -7.875 L 4.375 -7.875 L 4.375 -0.34375 C 4.375 -0.113281 4.253906 0 4.015625 0 Z M 4.015625 0 "/></g></g><g style="fill:#021e1a;fill-opacity:1;"><g transform="translate(116.99245, 229.33769)"><path style="stroke:none" d="M 6.859375 0 L 1.53125 0 C 1.320312 0 1.21875 -0.109375 1.21875 -0.328125 L 1.21875 -8.53125 C 1.21875 -8.75 1.320312 -8.859375 1.53125 -8.859375 L 6.84375 -8.859375 C 7.070312 -8.859375 7.1875 -8.75 7.1875 -8.53125 L 7.1875 -8.21875 C 7.1875 -7.988281 7.070312 -7.875 6.84375 -7.875 L 2.390625 -7.875 L 2.390625 -4.9375 L 5.8125 -4.9375 C 6.039062 -4.9375 6.15625 -4.820312 6.15625 -4.59375 L 6.15625 -4.328125 C 6.15625 -4.097656 6.039062 -3.984375 5.8125 -3.984375 L 2.390625 -3.984375 L 2.390625 -0.984375 L 6.859375 -0.984375 C 7.097656 -0.984375 7.21875 -0.875 7.21875 -0.65625 L 7.21875 -0.34375 C 7.21875 -0.113281 7.097656 0 6.859375 0 Z M 6.859375 0 "/></g></g><g style="fill:#021e1a;fill-opacity:1;"><g transform="translate(127.295091, 229.33769)"><path style="stroke:none" d="M 6.109375 -3.921875 L 8.09375 -0.375 C 8.164062 -0.257812 8.175781 -0.164062 8.125 -0.09375 C 8.070312 -0.03125 7.988281 0 7.875 0 L 7.21875 0 C 7.101562 0 7.019531 -0.0234375 6.96875 -0.078125 C 6.914062 -0.128906 6.859375 -0.210938 6.796875 -0.328125 L 4.984375 -3.6875 C 4.921875 -3.675781 4.859375 -3.671875 4.796875 -3.671875 C 4.742188 -3.671875 4.679688 -3.671875 4.609375 -3.671875 L 2.390625 -3.671875 L 2.390625 -0.34375 C 2.390625 -0.113281 2.28125 0 2.0625 0 L 1.53125 0 C 1.320312 0 1.21875 -0.113281 1.21875 -0.34375 L 1.21875 -8.53125 C 1.21875 -8.75 1.320312 -8.859375 1.53125 -8.859375 L 4.5625 -8.859375 C 5.519531 -8.859375 6.265625 -8.617188 6.796875 -8.140625 C 7.335938 -7.671875 7.609375 -7.039062 7.609375 -6.25 C 7.609375 -5.644531 7.476562 -5.148438 7.21875 -4.765625 C 6.96875 -4.378906 6.597656 -4.097656 6.109375 -3.921875 Z M 2.390625 -7.875 L 2.390625 -4.515625 L 4.609375 -4.515625 C 5.179688 -4.515625 5.625 -4.660156 5.9375 -4.953125 C 6.25 -5.253906 6.40625 -5.664062 6.40625 -6.1875 C 6.40625 -6.695312 6.226562 -7.101562 5.875 -7.40625 C 5.53125 -7.71875 5.078125 -7.875 4.515625 -7.875 Z M 2.390625 -7.875 "/></g></g><g style="fill:#021e1a;fill-opacity:1;"><g transform="translate(138.441885, 229.33769)"><path style="stroke:none" d="M 0.328125 -0.375 L 3.984375 -8.59375 C 4.046875 -8.71875 4.109375 -8.800781 4.171875 -8.84375 C 4.234375 -8.894531 4.3125 -8.921875 4.40625 -8.921875 L 4.71875 -8.921875 C 4.8125 -8.921875 4.890625 -8.894531 4.953125 -8.84375 C 5.015625 -8.800781 5.078125 -8.71875 5.140625 -8.59375 L 8.796875 -0.375 C 8.835938 -0.257812 8.835938 -0.164062 8.796875 -0.09375 C 8.753906 -0.03125 8.671875 0 8.546875 0 L 7.890625 0 C 7.765625 0 7.679688 -0.0234375 7.640625 -0.078125 C 7.609375 -0.128906 7.566406 -0.21875 7.515625 -0.34375 L 6.671875 -2.28125 L 2.390625 -2.25 L 1.546875 -0.34375 C 1.515625 -0.21875 1.472656 -0.128906 1.421875 -0.078125 C 1.378906 -0.0234375 1.300781 0 1.1875 0 L 0.578125 0 C 0.453125 0 0.363281 -0.03125 0.3125 -0.09375 C 0.269531 -0.164062 0.273438 -0.257812 0.328125 -0.375 Z M 4.53125 -7.328125 L 2.71875 -3.109375 L 6.375 -3.109375 L 4.578125 -7.328125 Z M 4.53125 -7.328125 "/></g></g><g style="fill:#021e1a;fill-opacity:1;"><g transform="translate(150.133281, 229.33769)"><path style="stroke:none" d="M 2.0625 0 L 1.53125 0 C 1.320312 0 1.21875 -0.113281 1.21875 -0.34375 L 1.21875 -8.53125 C 1.21875 -8.75 1.320312 -8.859375 1.53125 -8.859375 L 4.625 -8.859375 C 5.59375 -8.859375 6.34375 -8.609375 6.875 -8.109375 C 7.40625 -7.617188 7.671875 -6.960938 7.671875 -6.140625 C 7.671875 -5.316406 7.40625 -4.65625 6.875 -4.15625 C 6.34375 -3.664062 5.59375 -3.421875 4.625 -3.421875 L 2.390625 -3.421875 L 2.390625 -0.34375 C 2.390625 -0.113281 2.28125 0 2.0625 0 Z M 2.390625 -4.359375 L 4.609375 -4.359375 C 5.160156 -4.359375 5.601562 -4.515625 5.9375 -4.828125 C 6.28125 -5.148438 6.453125 -5.578125 6.453125 -6.109375 C 6.453125 -6.648438 6.28125 -7.078125 5.9375 -7.390625 C 5.601562 -7.710938 5.160156 -7.875 4.609375 -7.875 L 2.390625 -7.875 Z M 2.390625 -4.359375 "/></g></g><g style="fill:#021e1a;fill-opacity:1;"><g transform="translate(160.803538, 229.33769)"><path style="stroke:none" d="M 2.0625 0 L 1.53125 0 C 1.320312 0 1.21875 -0.113281 1.21875 -0.34375 L 1.21875 -8.515625 C 1.21875 -8.742188 1.320312 -8.859375 1.53125 -8.859375 L 2.0625 -8.859375 C 2.28125 -8.859375 2.390625 -8.742188 2.390625 -8.515625 L 2.390625 -0.34375 C 2.390625 -0.113281 2.28125 0 2.0625 0 Z M 2.0625 0 "/></g></g><g style="fill:#021e1a;fill-opacity:1;"><g transform="translate(166.994391, 229.33769)"><path style="stroke:none" d="M 0.328125 -0.375 L 3.984375 -8.59375 C 4.046875 -8.71875 4.109375 -8.800781 4.171875 -8.84375 C 4.234375 -8.894531 4.3125 -8.921875 4.40625 -8.921875 L 4.71875 -8.921875 C 4.8125 -8.921875 4.890625 -8.894531 4.953125 -8.84375 C 5.015625 -8.800781 5.078125 -8.71875 5.140625 -8.59375 L 8.796875 -0.375 C 8.835938 -0.257812 8.835938 -0.164062 8.796875 -0.09375 C 8.753906 -0.03125 8.671875 0 8.546875 0 L 7.890625 0 C 7.765625 0 7.679688 -0.0234375 7.640625 -0.078125 C 7.609375 -0.128906 7.566406 -0.21875 7.515625 -0.34375 L 6.671875 -2.28125 L 2.390625 -2.25 L 1.546875 -0.34375 C 1.515625 -0.21875 1.472656 -0.128906 1.421875 -0.078125 C 1.378906 -0.0234375 1.300781 0 1.1875 0 L 0.578125 0 C 0.453125 0 0.363281 -0.03125 0.3125 -0.09375 C 0.269531 -0.164062 0.273438 -0.257812 0.328125 -0.375 Z M 4.53125 -7.328125 L 2.71875 -3.109375 L 6.375 -3.109375 L 4.578125 -7.328125 Z M 4.53125 -7.328125 "/></g></g><g style="fill:#021e1a;fill-opacity:1;"><g transform="translate(178.685787, 229.33769)"><path style="stroke:none" d=""/></g></g><g style="fill:#021e1a;fill-opacity:1;"><g transform="translate(184.56349, 229.33769)"><path style="stroke:none" d="M 6.859375 0 L 1.53125 0 C 1.320312 0 1.21875 -0.109375 1.21875 -0.328125 L 1.21875 -8.53125 C 1.21875 -8.75 1.320312 -8.859375 1.53125 -8.859375 L 6.84375 -8.859375 C 7.070312 -8.859375 7.1875 -8.75 7.1875 -8.53125 L 7.1875 -8.21875 C 7.1875 -7.988281 7.070312 -7.875 6.84375 -7.875 L 2.390625 -7.875 L 2.390625 -4.9375 L 5.8125 -4.9375 C 6.039062 -4.9375 6.15625 -4.820312 6.15625 -4.59375 L 6.15625 -4.328125 C 6.15625 -4.097656 6.039062 -3.984375 5.8125 -3.984375 L 2.390625 -3.984375 L 2.390625 -0.984375 L 6.859375 -0.984375 C 7.097656 -0.984375 7.21875 -0.875 7.21875 -0.65625 L 7.21875 -0.34375 C 7.21875 -0.113281 7.097656 0 6.859375 0 Z M 6.859375 0 "/></g></g><g style="fill:#021e1a;fill-opacity:1;"><g transform="translate(194.866131, 229.33769)"><path style="stroke:none" d="M 3.84375 0.15625 C 3.175781 0.15625 2.550781 0.0351562 1.96875 -0.203125 C 1.382812 -0.441406 0.921875 -0.78125 0.578125 -1.21875 C 0.390625 -1.40625 0.367188 -1.582031 0.515625 -1.75 L 0.765625 -2.03125 C 0.921875 -2.1875 1.082031 -2.1875 1.25 -2.03125 C 1.507812 -1.664062 1.867188 -1.375 2.328125 -1.15625 C 2.796875 -0.945312 3.273438 -0.84375 3.765625 -0.84375 C 4.328125 -0.84375 4.785156 -0.984375 5.140625 -1.265625 C 5.492188 -1.546875 5.671875 -1.898438 5.671875 -2.328125 C 5.671875 -2.691406 5.5625 -2.972656 5.34375 -3.171875 C 5.125 -3.378906 4.84375 -3.550781 4.5 -3.6875 C 4.15625 -3.820312 3.796875 -3.957031 3.421875 -4.09375 C 3.003906 -4.25 2.601562 -4.425781 2.21875 -4.625 C 1.832031 -4.832031 1.515625 -5.097656 1.265625 -5.421875 C 1.023438 -5.742188 0.90625 -6.148438 0.90625 -6.640625 C 0.90625 -7.109375 1.023438 -7.519531 1.265625 -7.875 C 1.515625 -8.226562 1.859375 -8.503906 2.296875 -8.703125 C 2.742188 -8.910156 3.257812 -9.015625 3.84375 -9.015625 C 4.34375 -9.015625 4.816406 -8.929688 5.265625 -8.765625 C 5.710938 -8.609375 6.101562 -8.359375 6.4375 -8.015625 C 6.632812 -7.828125 6.660156 -7.65625 6.515625 -7.5 L 6.296875 -7.25 C 6.140625 -7.082031 5.96875 -7.082031 5.78125 -7.25 C 5.257812 -7.789062 4.617188 -8.0625 3.859375 -8.0625 C 3.328125 -8.0625 2.90625 -7.925781 2.59375 -7.65625 C 2.289062 -7.394531 2.140625 -7.070312 2.140625 -6.6875 C 2.140625 -6.289062 2.300781 -5.972656 2.625 -5.734375 C 2.957031 -5.492188 3.363281 -5.285156 3.84375 -5.109375 C 4.207031 -4.972656 4.566406 -4.832031 4.921875 -4.6875 C 5.285156 -4.550781 5.613281 -4.382812 5.90625 -4.1875 C 6.195312 -3.988281 6.429688 -3.742188 6.609375 -3.453125 C 6.796875 -3.160156 6.890625 -2.796875 6.890625 -2.359375 C 6.890625 -1.835938 6.753906 -1.390625 6.484375 -1.015625 C 6.210938 -0.640625 5.847656 -0.347656 5.390625 -0.140625 C 4.929688 0.0546875 4.414062 0.15625 3.84375 0.15625 Z M 3.84375 0.15625 "/></g></g><g style="fill:#021e1a;fill-opacity:1;"><g transform="translate(204.801167, 229.33769)"><path style="stroke:none" d="M 2.0625 0 L 1.53125 0 C 1.320312 0 1.21875 -0.113281 1.21875 -0.34375 L 1.21875 -8.53125 C 1.21875 -8.75 1.320312 -8.859375 1.53125 -8.859375 L 4.625 -8.859375 C 5.59375 -8.859375 6.34375 -8.609375 6.875 -8.109375 C 7.40625 -7.617188 7.671875 -6.960938 7.671875 -6.140625 C 7.671875 -5.316406 7.40625 -4.65625 6.875 -4.15625 C 6.34375 -3.664062 5.59375 -3.421875 4.625 -3.421875 L 2.390625 -3.421875 L 2.390625 -0.34375 C 2.390625 -0.113281 2.28125 0 2.0625 0 Z M 2.390625 -4.359375 L 4.609375 -4.359375 C 5.160156 -4.359375 5.601562 -4.515625 5.9375 -4.828125 C 6.28125 -5.148438 6.453125 -5.578125 6.453125 -6.109375 C 6.453125 -6.648438 6.28125 -7.078125 5.9375 -7.390625 C 5.601562 -7.710938 5.160156 -7.875 4.609375 -7.875 L 2.390625 -7.875 Z M 2.390625 -4.359375 "/></g></g><g style="fill:#021e1a;fill-opacity:1;"><g transform="translate(215.471424, 229.33769)"><path style="stroke:none" d="M 6.859375 0 L 1.53125 0 C 1.320312 0 1.21875 -0.109375 1.21875 -0.328125 L 1.21875 -8.53125 C 1.21875 -8.75 1.320312 -8.859375 1.53125 -8.859375 L 6.84375 -8.859375 C 7.070312 -8.859375 7.1875 -8.75 7.1875 -8.53125 L 7.1875 -8.21875 C 7.1875 -7.988281 7.070312 -7.875 6.84375 -7.875 L 2.390625 -7.875 L 2.390625 -4.9375 L 5.8125 -4.9375 C 6.039062 -4.9375 6.15625 -4.820312 6.15625 -4.59375 L 6.15625 -4.328125 C 6.15625 -4.097656 6.039062 -3.984375 5.8125 -3.984375 L 2.390625 -3.984375 L 2.390625 -0.984375 L 6.859375 -0.984375 C 7.097656 -0.984375 7.21875 -0.875 7.21875 -0.65625 L 7.21875 -0.34375 C 7.21875 -0.113281 7.097656 0 6.859375 0 Z M 6.859375 0 "/></g></g><g style="fill:#021e1a;fill-opacity:1;"><g transform="translate(225.774065, 229.33769)"><path style="stroke:none" d="M 5.359375 0.15625 C 4.671875 0.15625 4.035156 0.0390625 3.453125 -0.1875 C 2.878906 -0.414062 2.378906 -0.738281 1.953125 -1.15625 C 1.523438 -1.570312 1.191406 -2.054688 0.953125 -2.609375 C 0.710938 -3.171875 0.59375 -3.773438 0.59375 -4.421875 C 0.59375 -5.078125 0.710938 -5.679688 0.953125 -6.234375 C 1.191406 -6.785156 1.523438 -7.269531 1.953125 -7.6875 C 2.378906 -8.113281 2.878906 -8.441406 3.453125 -8.671875 C 4.035156 -8.898438 4.671875 -9.015625 5.359375 -9.015625 C 6.066406 -9.015625 6.71875 -8.878906 7.3125 -8.609375 C 7.90625 -8.347656 8.410156 -7.988281 8.828125 -7.53125 C 8.898438 -7.457031 8.9375 -7.375 8.9375 -7.28125 C 8.945312 -7.195312 8.910156 -7.117188 8.828125 -7.046875 L 8.484375 -6.75 C 8.328125 -6.632812 8.164062 -6.648438 8 -6.796875 C 7.695312 -7.128906 7.3125 -7.398438 6.84375 -7.609375 C 6.375 -7.828125 5.875 -7.9375 5.34375 -7.9375 C 4.675781 -7.9375 4.078125 -7.78125 3.546875 -7.46875 C 3.015625 -7.15625 2.59375 -6.734375 2.28125 -6.203125 C 1.96875 -5.671875 1.8125 -5.078125 1.8125 -4.421875 C 1.8125 -3.773438 1.96875 -3.1875 2.28125 -2.65625 C 2.59375 -2.125 3.015625 -1.695312 3.546875 -1.375 C 4.078125 -1.0625 4.675781 -0.90625 5.34375 -0.90625 C 5.875 -0.90625 6.375 -1.007812 6.84375 -1.21875 C 7.3125 -1.4375 7.695312 -1.71875 8 -2.0625 C 8.164062 -2.207031 8.328125 -2.21875 8.484375 -2.09375 L 8.828125 -1.8125 C 8.910156 -1.75 8.945312 -1.671875 8.9375 -1.578125 C 8.9375 -1.484375 8.898438 -1.398438 8.828125 -1.328125 C 8.410156 -0.859375 7.898438 -0.492188 7.296875 -0.234375 C 6.703125 0.0234375 6.054688 0.15625 5.359375 0.15625 Z M 5.359375 0.15625 "/></g></g><g style="fill:#021e1a;fill-opacity:1;"><g transform="translate(237.737768, 229.33769)"><path style="stroke:none" d="M 2.0625 0 L 1.53125 0 C 1.320312 0 1.21875 -0.113281 1.21875 -0.34375 L 1.21875 -8.515625 C 1.21875 -8.742188 1.320312 -8.859375 1.53125 -8.859375 L 2.0625 -8.859375 C 2.28125 -8.859375 2.390625 -8.742188 2.390625 -8.515625 L 2.390625 -0.34375 C 2.390625 -0.113281 2.28125 0 2.0625 0 Z M 2.0625 0 "/></g></g><g style="fill:#021e1a;fill-opacity:1;"><g transform="translate(243.928621, 229.33769)"><path style="stroke:none" d="M 0.328125 -0.375 L 3.984375 -8.59375 C 4.046875 -8.71875 4.109375 -8.800781 4.171875 -8.84375 C 4.234375 -8.894531 4.3125 -8.921875 4.40625 -8.921875 L 4.71875 -8.921875 C 4.8125 -8.921875 4.890625 -8.894531 4.953125 -8.84375 C 5.015625 -8.800781 5.078125 -8.71875 5.140625 -8.59375 L 8.796875 -0.375 C 8.835938 -0.257812 8.835938 -0.164062 8.796875 -0.09375 C 8.753906 -0.03125 8.671875 0 8.546875 0 L 7.890625 0 C 7.765625 0 7.679688 -0.0234375 7.640625 -0.078125 C 7.609375 -0.128906 7.566406 -0.21875 7.515625 -0.34375 L 6.671875 -2.28125 L 2.390625 -2.25 L 1.546875 -0.34375 C 1.515625 -0.21875 1.472656 -0.128906 1.421875 -0.078125 C 1.378906 -0.0234375 1.300781 0 1.1875 0 L 0.578125 0 C 0.453125 0 0.363281 -0.03125 0.3125 -0.09375 C 0.269531 -0.164062 0.273438 -0.257812 0.328125 -0.375 Z M 4.53125 -7.328125 L 2.71875 -3.109375 L 6.375 -3.109375 L 4.578125 -7.328125 Z M 4.53125 -7.328125 "/></g></g><g style="fill:#021e1a;fill-opacity:1;"><g transform="translate(255.620017, 229.33769)"><path style="stroke:none" d="M 6.296875 0 L 1.53125 0 C 1.320312 0 1.21875 -0.113281 1.21875 -0.34375 L 1.21875 -8.515625 C 1.21875 -8.742188 1.320312 -8.859375 1.53125 -8.859375 L 2.0625 -8.859375 C 2.28125 -8.859375 2.390625 -8.742188 2.390625 -8.515625 L 2.390625 -0.984375 L 6.296875 -0.984375 C 6.523438 -0.984375 6.640625 -0.875 6.640625 -0.65625 L 6.640625 -0.328125 C 6.640625 -0.109375 6.523438 0 6.296875 0 Z M 6.296875 0 "/></g></g><g style="fill:#021e1a;fill-opacity:1;"><g transform="translate(265.064906, 229.33769)"><path style="stroke:none" d="M 2.0625 0 L 1.53125 0 C 1.320312 0 1.21875 -0.113281 1.21875 -0.34375 L 1.21875 -8.515625 C 1.21875 -8.742188 1.320312 -8.859375 1.53125 -8.859375 L 2.0625 -8.859375 C 2.28125 -8.859375 2.390625 -8.742188 2.390625 -8.515625 L 2.390625 -0.34375 C 2.390625 -0.113281 2.28125 0 2.0625 0 Z M 2.0625 0 "/></g></g><g style="fill:#021e1a;fill-opacity:1;"><g transform="translate(271.255759, 229.33769)"><path style="stroke:none" d="M 1.859375 -0.96875 L 6.953125 -0.96875 C 7.179688 -0.96875 7.296875 -0.859375 7.296875 -0.640625 L 7.296875 -0.328125 C 7.296875 -0.109375 7.179688 0 6.953125 0 L 0.703125 0 C 0.472656 0 0.359375 -0.109375 0.359375 -0.328125 L 0.359375 -0.703125 C 0.359375 -0.804688 0.382812 -0.898438 0.4375 -0.984375 C 0.488281 -1.066406 0.539062 -1.144531 0.59375 -1.21875 L 5.578125 -7.890625 L 0.921875 -7.890625 C 0.691406 -7.890625 0.578125 -8 0.578125 -8.21875 L 0.578125 -8.53125 C 0.578125 -8.75 0.691406 -8.859375 0.921875 -8.859375 L 6.71875 -8.859375 C 6.945312 -8.859375 7.0625 -8.75 7.0625 -8.53125 L 7.0625 -8.140625 C 7.0625 -8.046875 7.03125 -7.957031 6.96875 -7.875 C 6.914062 -7.800781 6.863281 -7.726562 6.8125 -7.65625 Z M 1.859375 -0.96875 "/></g></g><g style="fill:#021e1a;fill-opacity:1;"><g transform="translate(281.408636, 229.33769)"><path style="stroke:none" d="M 0.328125 -0.375 L 3.984375 -8.59375 C 4.046875 -8.71875 4.109375 -8.800781 4.171875 -8.84375 C 4.234375 -8.894531 4.3125 -8.921875 4.40625 -8.921875 L 4.71875 -8.921875 C 4.8125 -8.921875 4.890625 -8.894531 4.953125 -8.84375 C 5.015625 -8.800781 5.078125 -8.71875 5.140625 -8.59375 L 8.796875 -0.375 C 8.835938 -0.257812 8.835938 -0.164062 8.796875 -0.09375 C 8.753906 -0.03125 8.671875 0 8.546875 0 L 7.890625 0 C 7.765625 0 7.679688 -0.0234375 7.640625 -0.078125 C 7.609375 -0.128906 7.566406 -0.21875 7.515625 -0.34375 L 6.671875 -2.28125 L 2.390625 -2.25 L 1.546875 -0.34375 C 1.515625 -0.21875 1.472656 -0.128906 1.421875 -0.078125 C 1.378906 -0.0234375 1.300781 0 1.1875 0 L 0.578125 0 C 0.453125 0 0.363281 -0.03125 0.3125 -0.09375 C 0.269531 -0.164062 0.273438 -0.257812 0.328125 -0.375 Z M 4.53125 -7.328125 L 2.71875 -3.109375 L 6.375 -3.109375 L 4.578125 -7.328125 Z M 4.53125 -7.328125 "/></g></g><g style="fill:#021e1a;fill-opacity:1;"><g transform="translate(293.100021, 229.33769)"><path style="stroke:none" d="M 4.6875 0 L 1.53125 0 C 1.320312 0 1.21875 -0.109375 1.21875 -0.328125 L 1.21875 -8.53125 C 1.21875 -8.75 1.320312 -8.859375 1.53125 -8.859375 L 4.6875 -8.859375 C 5.632812 -8.859375 6.445312 -8.671875 7.125 -8.296875 C 7.8125 -7.921875 8.335938 -7.398438 8.703125 -6.734375 C 9.066406 -6.078125 9.25 -5.304688 9.25 -4.421875 C 9.25 -3.546875 9.066406 -2.773438 8.703125 -2.109375 C 8.335938 -1.441406 7.8125 -0.921875 7.125 -0.546875 C 6.445312 -0.179688 5.632812 0 4.6875 0 Z M 2.390625 -0.984375 L 4.640625 -0.984375 C 5.335938 -0.984375 5.941406 -1.125 6.453125 -1.40625 C 6.960938 -1.6875 7.351562 -2.082031 7.625 -2.59375 C 7.894531 -3.113281 8.03125 -3.722656 8.03125 -4.421875 C 8.03125 -5.117188 7.894531 -5.726562 7.625 -6.25 C 7.351562 -6.769531 6.960938 -7.171875 6.453125 -7.453125 C 5.941406 -7.734375 5.335938 -7.875 4.640625 -7.875 L 2.390625 -7.875 Z M 2.390625 -0.984375 "/></g></g><g style="fill:#021e1a;fill-opacity:1;"><g transform="translate(305.553882, 229.33769)"><path style="stroke:none" d="M 0.328125 -0.375 L 3.984375 -8.59375 C 4.046875 -8.71875 4.109375 -8.800781 4.171875 -8.84375 C 4.234375 -8.894531 4.3125 -8.921875 4.40625 -8.921875 L 4.71875 -8.921875 C 4.8125 -8.921875 4.890625 -8.894531 4.953125 -8.84375 C 5.015625 -8.800781 5.078125 -8.71875 5.140625 -8.59375 L 8.796875 -0.375 C 8.835938 -0.257812 8.835938 -0.164062 8.796875 -0.09375 C 8.753906 -0.03125 8.671875 0 8.546875 0 L 7.890625 0 C 7.765625 0 7.679688 -0.0234375 7.640625 -0.078125 C 7.609375 -0.128906 7.566406 -0.21875 7.515625 -0.34375 L 6.671875 -2.28125 L 2.390625 -2.25 L 1.546875 -0.34375 C 1.515625 -0.21875 1.472656 -0.128906 1.421875 -0.078125 C 1.378906 -0.0234375 1.300781 0 1.1875 0 L 0.578125 0 C 0.453125 0 0.363281 -0.03125 0.3125 -0.09375 C 0.269531 -0.164062 0.273438 -0.257812 0.328125 -0.375 Z M 4.53125 -7.328125 L 2.71875 -3.109375 L 6.375 -3.109375 L 4.578125 -7.328125 Z M 4.53125 -7.328125 "/></g></g><g clip-rule="nonzero" clip-path="url(#e9311bca28)"><path style="fill-rule:nonzero;fill:#055001;fill-opacity:1;stroke-width:0.1;stroke-linecap:butt;stroke-linejoin:miter;stroke:#000000;stroke-opacity:1;stroke-miterlimit:10;" d="M 108.409602 50.738788 C 118.534603 46.688787 129.739605 49.478787 139.279607 53.708788 C 149.944609 58.703789 160.87961 65.99379 165.244611 77.468792 C 167.224611 82.148793 165.919611 87.593794 162.544611 91.283794 C 159.88961 93.533794 156.10961 92.903794 152.914609 92.588794 C 145.714608 91.013794 141.259607 84.623793 135.679606 80.393792 C 130.819605 76.118792 125.599605 71.483791 119.029604 70.268791 C 113.134603 69.323791 108.049602 73.193791 104.269601 77.243792 C 98.5996 84.218793 95.0446 92.633794 92.254599 101.138796 C 90.409599 108.518797 86.584598 115.583798 87.034598 123.413799 C 86.494598 116.168798 84.424598 109.193797 84.244598 101.948796 C 83.839598 92.588794 85.054598 83.228793 87.394598 74.183791 C 91.669599 64.50879 98.3296 54.968788 108.409602 50.738788 Z M 108.409602 50.738788 " transform="matrix(0.0868055,0,0,0.0868055,167.347258,134.43153)"/><path style=" stroke:none;fill-rule:nonzero;fill:#055001;fill-opacity:1;" d="M 176.757812 138.835938 C 177.636719 138.484375 178.609375 138.726562 179.4375 139.09375 C 180.363281 139.527344 181.3125 140.160156 181.691406 141.15625 C 181.863281 141.5625 181.75 142.035156 181.457031 142.355469 C 181.226562 142.550781 180.898438 142.496094 180.621094 142.46875 C 179.996094 142.332031 179.609375 141.777344 179.125 141.410156 C 178.703125 141.039062 178.25 140.636719 177.679688 140.53125 C 177.167969 140.449219 176.726562 140.785156 176.398438 141.136719 C 175.90625 141.742188 175.597656 142.472656 175.355469 143.210938 C 175.195312 143.851562 174.863281 144.464844 174.902344 145.144531 C 174.855469 144.515625 174.675781 143.910156 174.660156 143.28125 C 174.625 142.46875 174.730469 141.65625 174.933594 140.871094 C 175.304688 140.03125 175.882812 139.203125 176.757812 138.835938 Z M 176.757812 138.835938 "/></g><path style="fill-rule:nonzero;fill:#055001;fill-opacity:1;stroke-width:0.1;stroke-linecap:butt;stroke-linejoin:miter;stroke:#000000;stroke-opacity:1;stroke-miterlimit:10;" d="M 200.659617 56.903789 C 207.994618 56.048788 215.689619 58.928789 220.59462 64.46379 C 223.924621 68.55879 226.174621 73.733791 226.129621 79.043792 C 225.454621 85.568793 222.21462 91.958794 216.769619 95.693795 C 210.334618 100.283796 201.559617 101.228796 194.314616 98.033795 C 183.559614 93.983795 177.304613 80.123792 182.839614 69.683791 C 185.944614 62.573789 193.099616 57.938789 200.659617 56.903789 Z M 200.659617 56.903789 " transform="matrix(0.0868055,0,0,0.0868055,167.347258,134.43153)"/><path style=" stroke:none;fill-rule:nonzero;fill:#055001;fill-opacity:1;" d="M 184.765625 139.371094 C 185.402344 139.296875 186.070312 139.546875 186.496094 140.027344 C 186.785156 140.382812 186.980469 140.832031 186.976562 141.292969 C 186.917969 141.859375 186.636719 142.414062 186.164062 142.738281 C 185.605469 143.136719 184.84375 143.21875 184.214844 142.941406 C 183.28125 142.589844 182.738281 141.386719 183.21875 140.480469 C 183.488281 139.863281 184.109375 139.460938 184.765625 139.371094 Z M 184.765625 139.371094 "/><g clip-rule="nonzero" clip-path="url(#df812d8f29)"><path style="fill-rule:nonzero;fill:#055001;fill-opacity:1;stroke-width:0.1;stroke-linecap:butt;stroke-linejoin:miter;stroke:#000000;stroke-opacity:1;stroke-miterlimit:10;" d="M 276.889629 94.658795 C 277.294629 94.658795 277.744629 94.613795 278.194629 94.613795 C 278.014629 98.483795 279.004629 102.353796 278.374629 106.178797 C 277.339629 112.748798 274.684629 118.958799 271.804628 124.9438 C 265.504627 139.028802 253.534625 150.683804 239.044623 156.173805 C 232.429622 158.513805 224.509621 158.333805 218.52462 154.328804 C 208.849618 147.983803 201.199617 138.353802 197.869616 127.1938 C 195.754616 121.163799 195.709616 113.963798 199.309617 108.473797 C 201.154617 106.088797 203.584617 103.433796 206.869618 103.613796 C 210.244618 103.928796 213.259619 105.953796 215.329619 108.608797 C 220.14462 114.953798 221.13462 123.143799 225.139621 129.8938 C 228.424621 134.258801 233.824622 139.433802 239.764623 136.868801 C 246.919624 133.853801 252.949625 128.7238 258.754626 123.683799 C 266.134627 117.338798 271.219628 108.878797 275.314629 100.193796 C 276.124629 98.438795 276.709629 96.593795 276.889629 94.658795 Z M 276.889629 94.658795 " transform="matrix(0.0868055,0,0,0.0868055,167.347258,134.43153)"/><path style=" stroke:none;fill-rule:nonzero;fill:#055001;fill-opacity:1;" d="M 191.382812 142.648438 C 191.417969 142.648438 191.457031 142.644531 191.496094 142.644531 C 191.480469 142.980469 191.566406 143.316406 191.511719 143.648438 C 191.421875 144.21875 191.191406 144.757812 190.941406 145.277344 C 190.394531 146.5 189.355469 147.511719 188.097656 147.988281 C 187.523438 148.191406 186.835938 148.175781 186.316406 147.828125 C 185.476562 147.277344 184.8125 146.441406 184.523438 145.472656 C 184.339844 144.949219 184.335938 144.324219 184.648438 143.847656 C 184.808594 143.640625 185.019531 143.410156 185.304688 143.425781 C 185.597656 143.453125 185.859375 143.628906 186.039062 143.859375 C 186.457031 144.410156 186.542969 145.121094 186.890625 145.707031 C 187.175781 146.085938 187.644531 146.535156 188.160156 146.3125 C 188.78125 146.050781 189.304688 145.605469 189.808594 145.167969 C 190.449219 144.617188 190.890625 143.882812 191.246094 143.128906 C 191.316406 142.976562 191.367188 142.816406 191.382812 142.648438 Z M 191.382812 142.648438 "/></g><g clip-rule="nonzero" clip-path="url(#ab752baedb)"><path style="fill-rule:nonzero;fill:#055001;fill-opacity:1;stroke-width:0.1;stroke-linecap:butt;stroke-linejoin:miter;stroke:#000000;stroke-opacity:1;stroke-miterlimit:10;" d="M 98.0596 135.068801 C 102.334601 131.468801 108.634602 131.828801 113.584603 133.628801 C 118.534603 135.743801 123.799604 137.408802 128.344605 140.378802 C 135.364606 144.923803 142.114607 149.963804 148.144608 155.813805 C 154.939609 161.303805 161.28461 167.468806 166.684611 174.353808 C 170.689612 179.033808 174.874613 184.523809 174.559613 191.04881 C 171.589612 200.543812 163.489611 207.473813 155.029609 212.153814 C 143.779608 217.823815 131.269606 220.118815 119.254604 223.628816 C 114.079603 225.293816 108.634602 225.878816 103.234601 226.463816 C 97.1146 226.823816 90.994599 228.083816 84.874598 227.003816 C 88.789599 224.123816 93.514599 222.863815 97.8346 220.793815 C 110.164602 215.438814 121.819604 208.598813 133.834606 202.613812 C 138.919607 200.138812 143.914608 196.988811 146.839608 191.99381 C 146.659608 190.86881 146.524608 189.78881 146.389608 188.66381 C 142.969607 185.198809 138.739607 182.723809 134.374606 180.653809 C 129.289605 184.838809 123.439604 188.03381 118.759603 192.713811 C 105.889601 202.298812 91.669599 209.813813 77.989597 218.093815 C 59.539594 228.443816 42.124591 240.503818 23.359588 250.26882 C 22.234588 250.62882 21.109588 250.94382 19.984587 251.16882 C 27.184589 243.293819 35.59959 236.633818 42.709591 228.668816 C 52.924593 217.913815 63.184594 207.203813 73.894596 196.898811 C 85.144598 186.008809 96.1246 174.848808 106.609602 163.148806 C 102.199601 159.098805 96.4846 155.318804 95.1346 149.063803 C 93.874599 144.338803 94.6396 138.758802 98.0596 135.068801 Z M 98.0596 135.068801 " transform="matrix(0.0868055,0,0,0.0868055,167.347258,134.43153)"/><path style=" stroke:none;fill-rule:nonzero;fill:#055001;fill-opacity:1;" d="M 175.859375 146.15625 C 176.230469 145.84375 176.777344 145.875 177.207031 146.03125 C 177.636719 146.214844 178.09375 146.359375 178.488281 146.617188 C 179.097656 147.011719 179.683594 147.449219 180.207031 147.957031 C 180.796875 148.433594 181.347656 148.96875 181.816406 149.566406 C 182.164062 149.972656 182.527344 150.449219 182.5 151.015625 C 182.242188 151.839844 181.539062 152.441406 180.804688 152.847656 C 179.828125 153.339844 178.742188 153.539062 177.699219 153.84375 C 177.25 153.988281 176.777344 154.039062 176.308594 154.089844 C 175.777344 154.121094 175.246094 154.230469 174.714844 154.136719 C 175.054688 153.886719 175.464844 153.777344 175.839844 153.597656 C 176.910156 153.132812 177.921875 152.539062 178.964844 152.019531 C 179.40625 151.804688 179.839844 151.53125 180.09375 151.097656 C 180.078125 151 180.066406 150.90625 180.054688 150.808594 C 179.757812 150.507812 179.390625 150.292969 179.011719 150.113281 C 178.570312 150.476562 178.0625 150.753906 177.65625 151.160156 C 176.539062 151.992188 175.304688 152.644531 174.117188 153.363281 C 172.515625 154.261719 171.003906 155.308594 169.375 156.15625 C 169.277344 156.1875 169.179688 156.214844 169.082031 156.234375 C 169.707031 155.550781 170.4375 154.972656 171.054688 154.28125 C 171.941406 153.347656 172.832031 152.417969 173.761719 151.523438 C 174.738281 150.578125 175.691406 149.609375 176.601562 148.59375 C 176.21875 148.242188 175.722656 147.914062 175.605469 147.371094 C 175.496094 146.960938 175.5625 146.476562 175.859375 146.15625 Z M 175.859375 146.15625 "/></g></g></svg>