<svg xmlns="http://www.w3.org/2000/svg" xmlns:xlink="http://www.w3.org/1999/xlink" width="500" zoomAndPan="magnify" viewBox="0 0 375 374.999991" height="500" preserveAspectRatio="xMidYMid meet" version="1.2"><defs><clipPath id="4d993bb8ef"><path d="M 109 170.335938 L 130.828125 170.335938 L 130.828125 195 L 109 195 Z M 109 170.335938 "/></clipPath><clipPath id="ebc0b1e440"><path d="M 102.328125 181 L 116 181 L 116 198.085938 L 102.328125 198.085938 Z M 102.328125 181 "/></clipPath><clipPath id="b4a6b41579"><path d="M 112 176.886719 L 119 176.886719 L 119 183 L 112 183 Z M 112 176.886719 "/></clipPath><clipPath id="8f91572d2c"><path d="M 121 180 L 127.703125 180 L 127.703125 186 L 121 186 Z M 121 180 "/></clipPath><clipPath id="11d59774e0"><path d="M 120 180 L 127.703125 180 L 127.703125 186 L 120 186 Z M 120 180 "/></clipPath><clipPath id="3f27dfacb1"><path d="M 121 180 L 127.703125 180 L 127.703125 186 L 121 186 Z M 121 180 "/></clipPath><clipPath id="7d14814c72"><path d="M 107.453125 183 L 120 183 L 120 192.636719 L 107.453125 192.636719 Z M 107.453125 183 "/></clipPath></defs><g id="ecc6906fbd"><g style="fill:#021e1a;fill-opacity:1;"><g transform="translate(27.784653, 195.960606)"><path style="stroke:none" d="M 2.265625 -18.609375 C 1.796875 -19.828125 1.363281 -20.65625 0.96875 -21.09375 C 0.582031 -21.53125 0.21875 -21.820312 -0.125 -21.96875 L -0.125 -22.390625 L 4.859375 -22.390625 L 4.859375 -21.96875 C 4.390625 -21.820312 4.191406 -21.53125 4.265625 -21.09375 C 4.335938 -20.65625 4.609375 -19.828125 5.078125 -18.609375 L 11.265625 -2.78125 L 17.328125 -18.578125 C 17.734375 -19.648438 17.90625 -20.457031 17.84375 -21 C 17.78125 -21.539062 17.472656 -21.863281 16.921875 -21.96875 L 16.921875 -22.390625 L 20.5 -22.390625 L 20.5 -21.96875 C 20.070312 -21.820312 19.648438 -21.53125 19.234375 -21.09375 C 18.816406 -20.65625 18.375 -19.828125 17.90625 -18.609375 L 10.65625 0.15625 L 9.75 0.15625 Z M 2.265625 -18.609375 "/></g></g><g style="fill:#021e1a;fill-opacity:1;"><g transform="translate(49.975348, 195.960606)"><path style="stroke:none" d="M 1.625 0 L 1.625 -0.421875 C 2.113281 -0.566406 2.445312 -0.882812 2.625 -1.375 C 2.8125 -1.863281 2.90625 -2.757812 2.90625 -4.0625 L 2.90625 -18.328125 C 2.90625 -19.648438 2.8125 -20.550781 2.625 -21.03125 C 2.445312 -21.507812 2.113281 -21.820312 1.625 -21.96875 L 1.625 -22.390625 L 6.8125 -22.390625 L 6.8125 -21.96875 C 6.320312 -21.820312 5.984375 -21.507812 5.796875 -21.03125 C 5.617188 -20.550781 5.53125 -19.648438 5.53125 -18.328125 L 5.53125 -4.0625 C 5.53125 -2.757812 5.617188 -1.863281 5.796875 -1.375 C 5.984375 -0.882812 6.320312 -0.566406 6.8125 -0.421875 L 6.8125 0 Z M 1.625 0 "/></g></g><g style="fill:#021e1a;fill-opacity:1;"><g transform="translate(60.271665, 195.960606)"><path style="stroke:none" d="M 13.71875 0.3125 C 11.269531 0.3125 9.144531 -0.117188 7.34375 -0.984375 C 5.539062 -1.859375 4.140625 -3.125 3.140625 -4.78125 C 2.148438 -6.4375 1.65625 -8.425781 1.65625 -10.75 C 1.65625 -12.457031 1.960938 -14.03125 2.578125 -15.46875 C 3.203125 -16.90625 4.082031 -18.160156 5.21875 -19.234375 C 6.363281 -20.316406 7.71875 -21.148438 9.28125 -21.734375 C 10.851562 -22.316406 12.578125 -22.609375 14.453125 -22.609375 C 15.367188 -22.609375 16.300781 -22.53125 17.25 -22.375 C 18.195312 -22.21875 19.066406 -22.019531 19.859375 -21.78125 C 20.648438 -21.539062 21.25 -21.285156 21.65625 -21.015625 L 21.78125 -17.203125 L 21.46875 -17.140625 C 20.84375 -18.585938 19.8125 -19.757812 18.375 -20.65625 C 16.9375 -21.550781 15.269531 -22 13.375 -22 C 11.6875 -22 10.160156 -21.625 8.796875 -20.875 C 7.429688 -20.132812 6.347656 -19.03125 5.546875 -17.5625 C 4.742188 -16.09375 4.34375 -14.269531 4.34375 -12.09375 C 4.34375 -10.59375 4.5625 -9.140625 5 -7.734375 C 5.4375 -6.328125 6.09375 -5.0625 6.96875 -3.9375 C 7.84375 -2.820312 8.921875 -1.9375 10.203125 -1.28125 C 11.484375 -0.632812 12.953125 -0.3125 14.609375 -0.3125 C 16.335938 -0.3125 17.847656 -0.757812 19.140625 -1.65625 C 20.429688 -2.550781 21.382812 -3.863281 22 -5.59375 L 22.359375 -5.5625 L 21.84375 -1.40625 C 21.09375 -1 20 -0.609375 18.5625 -0.234375 C 17.125 0.128906 15.507812 0.3125 13.71875 0.3125 Z M 13.71875 0.3125 "/></g></g><g style="fill:#021e1a;fill-opacity:1;"><g transform="translate(85.819643, 195.960606)"><path style="stroke:none" d="M 6.359375 0 L 6.359375 -0.421875 C 6.847656 -0.566406 7.179688 -0.882812 7.359375 -1.375 C 7.546875 -1.863281 7.640625 -2.757812 7.640625 -4.0625 L 7.640625 -21.875 L 6.078125 -21.875 C 4.648438 -21.875 3.5625 -21.648438 2.8125 -21.203125 C 2.0625 -20.753906 1.410156 -19.957031 0.859375 -18.8125 L 0.515625 -18.875 L 0.703125 -22.390625 L 17.171875 -22.390625 L 17.375 -18.875 L 17.015625 -18.8125 C 16.484375 -19.957031 15.84375 -20.753906 15.09375 -21.203125 C 14.351562 -21.648438 13.253906 -21.875 11.796875 -21.875 L 10.296875 -21.875 L 10.296875 -4.0625 C 10.296875 -2.757812 10.382812 -1.863281 10.5625 -1.375 C 10.75 -0.882812 11.085938 -0.566406 11.578125 -0.421875 L 11.578125 0 Z M 6.359375 0 "/></g></g><g style="fill:#021e1a;fill-opacity:1;"><g transform="translate(105.587085, 195.960606)"><path style="stroke:none" d=""/></g></g><g style="fill:#021e1a;fill-opacity:1;"><g transform="translate(114.156791, 195.960606)"><path style="stroke:none" d=""/></g></g><g style="fill:#021e1a;fill-opacity:1;"><g transform="translate(122.726498, 195.960606)"><path style="stroke:none" d=""/></g></g><g style="fill:#021e1a;fill-opacity:1;"><g transform="translate(131.303838, 195.960606)"><path style="stroke:none" d="M 17.90625 0.21875 C 17.101562 0.21875 16.460938 0.0234375 15.984375 -0.359375 C 15.515625 -0.753906 15.101562 -1.332031 14.75 -2.09375 C 14.40625 -2.851562 14 -3.785156 13.53125 -4.890625 C 13.0625 -6.003906 12.664062 -6.972656 12.34375 -7.796875 C 12.019531 -8.628906 11.671875 -9.320312 11.296875 -9.875 C 10.929688 -10.4375 10.457031 -10.851562 9.875 -11.125 C 9.300781 -11.40625 8.535156 -11.546875 7.578125 -11.546875 L 5.53125 -11.546875 L 5.53125 -4.0625 C 5.53125 -2.757812 5.617188 -1.863281 5.796875 -1.375 C 5.984375 -0.882812 6.320312 -0.566406 6.8125 -0.421875 L 6.8125 0 L 1.625 0 L 1.625 -0.421875 C 2.113281 -0.566406 2.445312 -0.882812 2.625 -1.375 C 2.8125 -1.863281 2.90625 -2.757812 2.90625 -4.0625 L 2.90625 -18.328125 C 2.90625 -19.648438 2.8125 -20.550781 2.625 -21.03125 C 2.445312 -21.507812 2.113281 -21.820312 1.625 -21.96875 L 1.625 -22.390625 L 7.9375 -22.390625 C 10.101562 -22.390625 11.796875 -22.171875 13.015625 -21.734375 C 14.234375 -21.296875 15.09375 -20.703125 15.59375 -19.953125 C 16.09375 -19.210938 16.34375 -18.363281 16.34375 -17.40625 C 16.34375 -15.90625 15.804688 -14.628906 14.734375 -13.578125 C 13.671875 -12.523438 12.097656 -11.878906 10.015625 -11.640625 C 10.992188 -11.515625 11.789062 -11.296875 12.40625 -10.984375 C 13.03125 -10.671875 13.539062 -10.253906 13.9375 -9.734375 C 14.34375 -9.210938 14.707031 -8.578125 15.03125 -7.828125 C 15.351562 -7.085938 15.707031 -6.226562 16.09375 -5.25 C 16.601562 -3.96875 17.03125 -2.972656 17.375 -2.265625 C 17.726562 -1.566406 18.054688 -1.070312 18.359375 -0.78125 C 18.660156 -0.5 18.988281 -0.359375 19.34375 -0.359375 C 19.457031 -0.359375 19.550781 -0.359375 19.625 -0.359375 C 19.695312 -0.359375 19.773438 -0.367188 19.859375 -0.390625 L 19.859375 0 C 19.628906 0.0820312 19.328125 0.140625 18.953125 0.171875 C 18.578125 0.203125 18.226562 0.21875 17.90625 0.21875 Z M 5.53125 -12.03125 L 8.21875 -12.03125 C 10.050781 -12.03125 11.410156 -12.457031 12.296875 -13.3125 C 13.179688 -14.175781 13.625 -15.289062 13.625 -16.65625 C 13.625 -17.625 13.40625 -18.5 12.96875 -19.28125 C 12.53125 -20.070312 11.828125 -20.707031 10.859375 -21.1875 C 9.890625 -21.664062 8.613281 -21.90625 7.03125 -21.90625 C 6.800781 -21.90625 6.554688 -21.898438 6.296875 -21.890625 C 6.046875 -21.878906 5.789062 -21.863281 5.53125 -21.84375 Z M 5.53125 -12.03125 "/></g></g><g style="fill:#021e1a;fill-opacity:1;"><g transform="translate(152.727153, 195.960606)"><path style="stroke:none" d=""/></g></g><g style="fill:#021e1a;fill-opacity:1;"><g transform="translate(161.29686, 195.960606)"><path style="stroke:none" d="M 1.625 0 L 1.625 -0.421875 C 2.113281 -0.566406 2.445312 -0.882812 2.625 -1.375 C 2.8125 -1.863281 2.90625 -2.757812 2.90625 -4.0625 L 2.90625 -18.328125 C 2.90625 -19.648438 2.8125 -20.550781 2.625 -21.03125 C 2.445312 -21.507812 2.113281 -21.820312 1.625 -21.96875 L 1.625 -22.390625 L 6.8125 -22.390625 L 6.8125 -21.96875 C 6.320312 -21.820312 5.984375 -21.507812 5.796875 -21.03125 C 5.617188 -20.550781 5.53125 -19.648438 5.53125 -18.328125 L 5.53125 -1.953125 C 5.53125 -0.992188 6.007812 -0.515625 6.96875 -0.515625 L 10.78125 -0.515625 C 12.3125 -0.515625 13.488281 -0.742188 14.3125 -1.203125 C 15.132812 -1.660156 15.820312 -2.484375 16.375 -3.671875 L 16.734375 -3.609375 L 16.5 0 Z M 1.625 0 "/></g></g><g style="fill:#021e1a;fill-opacity:1;"><g transform="translate(180.513954, 195.960606)"><path style="stroke:none" d="M 1.625 0 L 1.625 -0.421875 C 2.113281 -0.566406 2.445312 -0.882812 2.625 -1.375 C 2.8125 -1.863281 2.90625 -2.757812 2.90625 -4.0625 L 2.90625 -18.328125 C 2.90625 -19.648438 2.8125 -20.550781 2.625 -21.03125 C 2.445312 -21.507812 2.113281 -21.820312 1.625 -21.96875 L 1.625 -22.390625 L 16.5 -22.390625 L 16.859375 -18.234375 L 16.5 -18.140625 C 15.945312 -19.546875 15.175781 -20.523438 14.1875 -21.078125 C 13.195312 -21.628906 11.878906 -21.90625 10.234375 -21.90625 L 5.53125 -21.90625 L 5.53125 -12.21875 L 9.625 -12.21875 C 10.84375 -12.21875 11.785156 -12.296875 12.453125 -12.453125 C 13.128906 -12.617188 13.617188 -12.863281 13.921875 -13.1875 C 14.234375 -13.519531 14.453125 -13.921875 14.578125 -14.390625 L 14.96875 -14.390625 L 14.96875 -9.5625 L 14.578125 -9.5625 C 14.453125 -10.050781 14.234375 -10.457031 13.921875 -10.78125 C 13.617188 -11.101562 13.128906 -11.34375 12.453125 -11.5 C 11.785156 -11.65625 10.84375 -11.734375 9.625 -11.734375 L 5.53125 -11.734375 L 5.53125 -1.921875 C 5.53125 -0.960938 6.007812 -0.484375 6.96875 -0.484375 L 11.125 -0.484375 C 12.664062 -0.484375 13.9375 -0.75 14.9375 -1.28125 C 15.9375 -1.8125 16.722656 -2.820312 17.296875 -4.3125 L 17.65625 -4.25 L 17.40625 0 Z M 1.625 0 "/></g></g><g style="fill:#021e1a;fill-opacity:1;"><g transform="translate(201.201862, 195.960606)"><path style="stroke:none" d="M 13.046875 0.3125 C 11.679688 0.3125 10.328125 0.0820312 8.984375 -0.375 C 7.640625 -0.832031 6.410156 -1.535156 5.296875 -2.484375 C 4.191406 -3.429688 3.304688 -4.628906 2.640625 -6.078125 C 1.984375 -7.523438 1.65625 -9.238281 1.65625 -11.21875 C 1.65625 -13.414062 2.132812 -15.375 3.09375 -17.09375 C 4.0625 -18.8125 5.394531 -20.164062 7.09375 -21.15625 C 8.800781 -22.144531 10.785156 -22.640625 13.046875 -22.640625 C 14.390625 -22.640625 15.734375 -22.40625 17.078125 -21.9375 C 18.421875 -21.46875 19.640625 -20.757812 20.734375 -19.8125 C 21.835938 -18.863281 22.71875 -17.664062 23.375 -16.21875 C 24.039062 -14.769531 24.375 -13.0625 24.375 -11.09375 C 24.375 -9.113281 24.039062 -7.410156 23.375 -5.984375 C 22.71875 -4.554688 21.832031 -3.375 20.71875 -2.4375 C 19.613281 -1.5 18.394531 -0.804688 17.0625 -0.359375 C 15.726562 0.0859375 14.390625 0.3125 13.046875 0.3125 Z M 4.21875 -13.078125 C 4.28125 -11.484375 4.570312 -9.929688 5.09375 -8.421875 C 5.625 -6.921875 6.34375 -5.570312 7.25 -4.375 C 8.15625 -3.1875 9.210938 -2.238281 10.421875 -1.53125 C 11.640625 -0.832031 12.960938 -0.484375 14.390625 -0.484375 C 16.097656 -0.484375 17.515625 -0.851562 18.640625 -1.59375 C 19.773438 -2.34375 20.613281 -3.363281 21.15625 -4.65625 C 21.695312 -5.945312 21.9375 -7.390625 21.875 -8.984375 C 21.8125 -10.648438 21.519531 -12.253906 21 -13.796875 C 20.476562 -15.347656 19.769531 -16.726562 18.875 -17.9375 C 17.976562 -19.15625 16.921875 -20.117188 15.703125 -20.828125 C 14.484375 -21.546875 13.160156 -21.90625 11.734375 -21.90625 C 10.117188 -21.90625 8.738281 -21.53125 7.59375 -20.78125 C 6.457031 -20.039062 5.59375 -19.007812 5 -17.6875 C 4.414062 -16.363281 4.15625 -14.828125 4.21875 -13.078125 Z M 4.21875 -13.078125 "/></g></g><g style="fill:#021e1a;fill-opacity:1;"><g transform="translate(229.051982, 195.960606)"><path style="stroke:none" d="M 18.515625 0.25 L 3.453125 -19.34375 L 3.453125 -5.34375 C 3.453125 -4.125 3.535156 -3.179688 3.703125 -2.515625 C 3.878906 -1.859375 4.128906 -1.375 4.453125 -1.0625 C 4.785156 -0.757812 5.1875 -0.546875 5.65625 -0.421875 L 5.65625 0 L 1.65625 0 L 1.65625 -0.421875 C 2.15625 -0.566406 2.492188 -0.882812 2.671875 -1.375 C 2.847656 -1.863281 2.9375 -2.757812 2.9375 -4.0625 L 2.9375 -18.328125 C 2.9375 -19.648438 2.816406 -20.550781 2.578125 -21.03125 C 2.347656 -21.507812 1.914062 -21.820312 1.28125 -21.96875 L 1.28125 -22.390625 L 4.40625 -22.390625 L 18.390625 -4.28125 L 18.390625 -17.046875 C 18.390625 -18.265625 18.300781 -19.207031 18.125 -19.875 C 17.957031 -20.550781 17.710938 -21.035156 17.390625 -21.328125 C 17.078125 -21.628906 16.675781 -21.84375 16.1875 -21.96875 L 16.1875 -22.390625 L 20.21875 -22.390625 L 20.21875 -21.96875 C 19.726562 -21.820312 19.390625 -21.507812 19.203125 -21.03125 C 19.023438 -20.550781 18.9375 -19.648438 18.9375 -18.328125 L 18.9375 0.25 Z M 18.515625 0.25 "/></g></g><g style="fill:#021e1a;fill-opacity:1;"><g transform="translate(252.393748, 195.960606)"><path style="stroke:none" d="M -0.546875 0 L -0.546875 -0.421875 C -0.0976562 -0.566406 0.335938 -0.859375 0.765625 -1.296875 C 1.191406 -1.734375 1.648438 -2.5625 2.140625 -3.78125 L 8.4375 -19.375 C 8.632812 -19.894531 8.613281 -20.398438 8.375 -20.890625 L 8.09375 -21.5625 L 10.484375 -22.640625 L 18.359375 -3.734375 C 18.847656 -2.546875 19.289062 -1.734375 19.6875 -1.296875 C 20.082031 -0.859375 20.453125 -0.566406 20.796875 -0.421875 L 20.796875 0 L 15.828125 0 L 15.828125 -0.421875 C 16.316406 -0.566406 16.519531 -0.859375 16.4375 -1.296875 C 16.351562 -1.734375 16.054688 -2.546875 15.546875 -3.734375 L 13.59375 -8.4375 L 4.578125 -8.4375 L 2.6875 -3.78125 C 1.875 -1.75 2.003906 -0.628906 3.078125 -0.421875 L 3.078125 0 Z M 4.765625 -8.921875 L 13.40625 -8.921875 L 9.015625 -19.453125 Z M 4.765625 -8.921875 "/></g></g><g style="fill:#021e1a;fill-opacity:1;"><g transform="translate(274.74431, 195.960606)"><path style="stroke:none" d="M 17.90625 0.21875 C 17.101562 0.21875 16.460938 0.0234375 15.984375 -0.359375 C 15.515625 -0.753906 15.101562 -1.332031 14.75 -2.09375 C 14.40625 -2.851562 14 -3.785156 13.53125 -4.890625 C 13.0625 -6.003906 12.664062 -6.972656 12.34375 -7.796875 C 12.019531 -8.628906 11.671875 -9.320312 11.296875 -9.875 C 10.929688 -10.4375 10.457031 -10.851562 9.875 -11.125 C 9.300781 -11.40625 8.535156 -11.546875 7.578125 -11.546875 L 5.53125 -11.546875 L 5.53125 -4.0625 C 5.53125 -2.757812 5.617188 -1.863281 5.796875 -1.375 C 5.984375 -0.882812 6.320312 -0.566406 6.8125 -0.421875 L 6.8125 0 L 1.625 0 L 1.625 -0.421875 C 2.113281 -0.566406 2.445312 -0.882812 2.625 -1.375 C 2.8125 -1.863281 2.90625 -2.757812 2.90625 -4.0625 L 2.90625 -18.328125 C 2.90625 -19.648438 2.8125 -20.550781 2.625 -21.03125 C 2.445312 -21.507812 2.113281 -21.820312 1.625 -21.96875 L 1.625 -22.390625 L 7.9375 -22.390625 C 10.101562 -22.390625 11.796875 -22.171875 13.015625 -21.734375 C 14.234375 -21.296875 15.09375 -20.703125 15.59375 -19.953125 C 16.09375 -19.210938 16.34375 -18.363281 16.34375 -17.40625 C 16.34375 -15.90625 15.804688 -14.628906 14.734375 -13.578125 C 13.671875 -12.523438 12.097656 -11.878906 10.015625 -11.640625 C 10.992188 -11.515625 11.789062 -11.296875 12.40625 -10.984375 C 13.03125 -10.671875 13.539062 -10.253906 13.9375 -9.734375 C 14.34375 -9.210938 14.707031 -8.578125 15.03125 -7.828125 C 15.351562 -7.085938 15.707031 -6.226562 16.09375 -5.25 C 16.601562 -3.96875 17.03125 -2.972656 17.375 -2.265625 C 17.726562 -1.566406 18.054688 -1.070312 18.359375 -0.78125 C 18.660156 -0.5 18.988281 -0.359375 19.34375 -0.359375 C 19.457031 -0.359375 19.550781 -0.359375 19.625 -0.359375 C 19.695312 -0.359375 19.773438 -0.367188 19.859375 -0.390625 L 19.859375 0 C 19.628906 0.0820312 19.328125 0.140625 18.953125 0.171875 C 18.578125 0.203125 18.226562 0.21875 17.90625 0.21875 Z M 5.53125 -12.03125 L 8.21875 -12.03125 C 10.050781 -12.03125 11.410156 -12.457031 12.296875 -13.3125 C 13.179688 -14.175781 13.625 -15.289062 13.625 -16.65625 C 13.625 -17.625 13.40625 -18.5 12.96875 -19.28125 C 12.53125 -20.070312 11.828125 -20.707031 10.859375 -21.1875 C 9.890625 -21.664062 8.613281 -21.90625 7.03125 -21.90625 C 6.800781 -21.90625 6.554688 -21.898438 6.296875 -21.890625 C 6.046875 -21.878906 5.789062 -21.863281 5.53125 -21.84375 Z M 5.53125 -12.03125 "/></g></g><g style="fill:#021e1a;fill-opacity:1;"><g transform="translate(296.167634, 195.960606)"><path style="stroke:none" d="M 1.625 0 L 1.625 -0.421875 C 2.113281 -0.566406 2.445312 -0.882812 2.625 -1.375 C 2.8125 -1.863281 2.90625 -2.757812 2.90625 -4.0625 L 2.90625 -18.328125 C 2.90625 -19.648438 2.8125 -20.550781 2.625 -21.03125 C 2.445312 -21.507812 2.113281 -21.820312 1.625 -21.96875 L 1.625 -22.390625 L 9.28125 -22.390625 C 11.46875 -22.390625 13.335938 -22.070312 14.890625 -21.4375 C 16.453125 -20.8125 17.722656 -19.976562 18.703125 -18.9375 C 19.691406 -17.894531 20.414062 -16.738281 20.875 -15.46875 C 21.332031 -14.195312 21.5625 -12.910156 21.5625 -11.609375 C 21.582031 -9.367188 21.117188 -7.375 20.171875 -5.625 C 19.222656 -3.875 17.878906 -2.5 16.140625 -1.5 C 14.398438 -0.5 12.359375 0 10.015625 0 Z M 5.53125 -2.8125 C 5.53125 -2.0625 5.65625 -1.484375 5.90625 -1.078125 C 6.164062 -0.679688 6.734375 -0.484375 7.609375 -0.484375 L 9.953125 -0.484375 C 12.742188 -0.484375 14.890625 -1.285156 16.390625 -2.890625 C 17.890625 -4.503906 18.640625 -6.984375 18.640625 -10.328125 C 18.640625 -12.460938 18.222656 -14.40625 17.390625 -16.15625 C 16.566406 -17.90625 15.34375 -19.300781 13.71875 -20.34375 C 12.101562 -21.382812 10.097656 -21.90625 7.703125 -21.90625 L 5.53125 -21.90625 Z M 5.53125 -2.8125 "/></g></g><g style="fill:#021e1a;fill-opacity:1;"><g transform="translate(321.204019, 195.960606)"><path style="stroke:none" d="M 13.046875 0.3125 C 11.679688 0.3125 10.328125 0.0820312 8.984375 -0.375 C 7.640625 -0.832031 6.410156 -1.535156 5.296875 -2.484375 C 4.191406 -3.429688 3.304688 -4.628906 2.640625 -6.078125 C 1.984375 -7.523438 1.65625 -9.238281 1.65625 -11.21875 C 1.65625 -13.414062 2.132812 -15.375 3.09375 -17.09375 C 4.0625 -18.8125 5.394531 -20.164062 7.09375 -21.15625 C 8.800781 -22.144531 10.785156 -22.640625 13.046875 -22.640625 C 14.390625 -22.640625 15.734375 -22.40625 17.078125 -21.9375 C 18.421875 -21.46875 19.640625 -20.757812 20.734375 -19.8125 C 21.835938 -18.863281 22.71875 -17.664062 23.375 -16.21875 C 24.039062 -14.769531 24.375 -13.0625 24.375 -11.09375 C 24.375 -9.113281 24.039062 -7.410156 23.375 -5.984375 C 22.71875 -4.554688 21.832031 -3.375 20.71875 -2.4375 C 19.613281 -1.5 18.394531 -0.804688 17.0625 -0.359375 C 15.726562 0.0859375 14.390625 0.3125 13.046875 0.3125 Z M 4.21875 -13.078125 C 4.28125 -11.484375 4.570312 -9.929688 5.09375 -8.421875 C 5.625 -6.921875 6.34375 -5.570312 7.25 -4.375 C 8.15625 -3.1875 9.210938 -2.238281 10.421875 -1.53125 C 11.640625 -0.832031 12.960938 -0.484375 14.390625 -0.484375 C 16.097656 -0.484375 17.515625 -0.851562 18.640625 -1.59375 C 19.773438 -2.34375 20.613281 -3.363281 21.15625 -4.65625 C 21.695312 -5.945312 21.9375 -7.390625 21.875 -8.984375 C 21.8125 -10.648438 21.519531 -12.253906 21 -13.796875 C 20.476562 -15.347656 19.769531 -16.726562 18.875 -17.9375 C 17.976562 -19.15625 16.921875 -20.117188 15.703125 -20.828125 C 14.484375 -21.546875 13.160156 -21.90625 11.734375 -21.90625 C 10.117188 -21.90625 8.738281 -21.53125 7.59375 -20.78125 C 6.457031 -20.039062 5.59375 -19.007812 5 -17.6875 C 4.414062 -16.363281 4.15625 -14.828125 4.21875 -13.078125 Z M 4.21875 -13.078125 "/></g></g><g clip-rule="nonzero" clip-path="url(#4d993bb8ef)"><path style=" stroke:none;fill-rule:nonzero;fill:#055001;fill-opacity:1;" d="M 116.636719 170.347656 C 116.871094 170.347656 117.042969 170.347656 117.214844 170.347656 C 117.632812 170.355469 118.046875 170.402344 118.460938 170.449219 C 119.53125 170.574219 120.570312 170.84375 121.582031 171.214844 C 122.894531 171.703125 124.109375 172.378906 125.21875 173.234375 C 125.914062 173.765625 126.554688 174.359375 127.132812 175.019531 C 127.910156 175.898438 128.570312 176.863281 129.101562 177.914062 C 129.480469 178.65625 129.792969 179.425781 130.035156 180.222656 C 130.195312 180.757812 130.332031 181.300781 130.417969 181.859375 C 130.484375 182.277344 130.535156 182.699219 130.578125 183.121094 C 130.636719 183.699219 130.644531 184.277344 130.621094 184.851562 C 130.597656 185.40625 130.535156 185.957031 130.445312 186.503906 C 130.0625 188.867188 129.128906 190.984375 127.667969 192.871094 C 127.308594 193.335938 126.914062 193.773438 126.496094 194.191406 C 126.425781 194.261719 126.394531 194.234375 126.351562 194.171875 C 126.195312 193.957031 126.195312 193.960938 126.382812 193.765625 C 127.667969 192.441406 128.667969 190.929688 129.335938 189.207031 C 129.546875 188.660156 129.734375 188.109375 129.871094 187.546875 C 129.980469 187.117188 130.066406 186.683594 130.128906 186.242188 C 130.199219 185.734375 130.246094 185.226562 130.265625 184.710938 C 130.273438 184.472656 130.292969 184.230469 130.277344 183.992188 C 130.25 183.570312 130.234375 183.148438 130.183594 182.730469 C 130.105469 182.066406 129.980469 181.414062 129.808594 180.765625 C 129.625 180.058594 129.378906 179.371094 129.074219 178.703125 C 128.519531 177.476562 127.796875 176.351562 126.910156 175.339844 C 125.660156 173.917969 124.183594 172.800781 122.472656 171.988281 C 121.738281 171.640625 120.972656 171.363281 120.191406 171.152344 C 119.652344 171.003906 119.101562 170.890625 118.542969 170.820312 C 118.164062 170.773438 117.785156 170.742188 117.40625 170.714844 C 116.992188 170.683594 116.578125 170.683594 116.167969 170.699219 C 115.804688 170.714844 115.441406 170.746094 115.082031 170.792969 C 114.699219 170.84375 114.320312 170.90625 113.945312 170.980469 C 113.351562 171.097656 112.769531 171.257812 112.199219 171.460938 C 111.390625 171.742188 110.617188 172.101562 109.878906 172.53125 C 109.839844 172.554688 109.820312 172.554688 109.78125 172.523438 C 109.566406 172.316406 109.566406 172.292969 109.824219 172.148438 C 110.855469 171.566406 111.945312 171.121094 113.089844 170.8125 C 113.628906 170.664062 114.179688 170.550781 114.738281 170.480469 C 115.078125 170.433594 115.417969 170.40625 115.757812 170.371094 C 116.070312 170.335938 116.386719 170.367188 116.636719 170.347656 Z M 116.636719 170.347656 "/></g><path style=" stroke:none;fill-rule:nonzero;fill:#055001;fill-opacity:1;" d="M 129.257812 184.105469 C 129.253906 184.566406 129.269531 184.910156 129.226562 185.25 C 129.164062 185.765625 129.109375 186.28125 129 186.796875 C 128.769531 187.914062 128.390625 188.980469 127.875 189.992188 C 127.410156 190.902344 126.839844 191.738281 126.171875 192.507812 C 125.246094 193.574219 124.167969 194.457031 122.941406 195.15625 C 122.140625 195.613281 121.300781 195.980469 120.417969 196.253906 C 119.785156 196.449219 119.144531 196.605469 118.488281 196.695312 C 118.117188 196.746094 117.738281 196.785156 117.359375 196.808594 C 116.988281 196.832031 116.613281 196.832031 116.242188 196.820312 C 115.710938 196.808594 115.183594 196.746094 114.660156 196.664062 C 114.164062 196.589844 113.675781 196.480469 113.195312 196.34375 C 112.246094 196.074219 111.339844 195.699219 110.480469 195.214844 C 109.488281 194.660156 108.59375 193.980469 107.78125 193.1875 C 107.613281 193.019531 107.613281 193.027344 107.804688 192.878906 C 107.882812 192.820312 107.921875 192.835938 107.988281 192.898438 C 108.824219 193.738281 109.761719 194.441406 110.800781 195.007812 C 111.707031 195.503906 112.664062 195.882812 113.671875 196.132812 C 114.265625 196.28125 114.867188 196.398438 115.480469 196.441406 C 115.726562 196.457031 115.976562 196.476562 116.222656 196.492188 C 116.417969 196.503906 116.609375 196.519531 116.800781 196.511719 C 117.484375 196.480469 118.164062 196.433594 118.839844 196.308594 C 119.503906 196.183594 120.15625 196.019531 120.789062 195.792969 C 121.917969 195.386719 122.96875 194.824219 123.933594 194.113281 C 124.773438 193.492188 125.523438 192.773438 126.1875 191.960938 C 126.796875 191.210938 127.316406 190.398438 127.738281 189.523438 C 128.050781 188.875 128.300781 188.199219 128.496094 187.507812 C 128.65625 186.949219 128.765625 186.382812 128.847656 185.8125 C 128.890625 185.53125 128.894531 185.246094 128.921875 184.964844 C 128.953125 184.652344 128.949219 184.335938 128.945312 184.019531 C 128.929688 183.195312 128.832031 182.378906 128.65625 181.574219 C 128.464844 180.679688 128.164062 179.828125 127.78125 179 C 127.640625 178.6875 127.480469 178.386719 127.304688 178.09375 C 127.257812 178.007812 127.273438 177.96875 127.335938 177.921875 C 127.355469 177.910156 127.375 177.898438 127.386719 177.882812 C 127.476562 177.789062 127.523438 177.8125 127.585938 177.921875 C 128.128906 178.875 128.546875 179.878906 128.832031 180.933594 C 128.980469 181.480469 129.09375 182.03125 129.160156 182.59375 C 129.222656 183.136719 129.273438 183.675781 129.257812 184.105469 Z M 129.257812 184.105469 "/><g clip-rule="nonzero" clip-path="url(#ebc0b1e440)"><path style=" stroke:none;fill-rule:nonzero;fill:#055001;fill-opacity:1;" d="M 103.011719 181.585938 C 103.101562 181.613281 103.183594 181.628906 103.253906 181.667969 C 103.375 181.730469 103.347656 181.84375 103.328125 181.953125 C 103.246094 182.375 103.199219 182.796875 103.167969 183.226562 C 103.136719 183.644531 103.105469 184.0625 103.121094 184.484375 C 103.132812 184.9375 103.167969 185.386719 103.21875 185.835938 C 103.289062 186.472656 103.410156 187.09375 103.566406 187.710938 C 103.808594 188.648438 104.15625 189.546875 104.59375 190.40625 C 105.277344 191.742188 106.15625 192.933594 107.226562 193.980469 C 108.097656 194.828125 109.066406 195.550781 110.132812 196.140625 C 110.941406 196.589844 111.789062 196.957031 112.675781 197.230469 C 113.257812 197.40625 113.84375 197.554688 114.445312 197.648438 C 114.5 197.660156 114.554688 197.667969 114.609375 197.675781 C 114.699219 197.695312 114.78125 197.71875 114.828125 197.8125 C 114.878906 197.910156 114.953125 197.988281 115.003906 198.089844 C 111.027344 197.535156 107.78125 195.710938 105.417969 192.441406 C 103.066406 189.183594 102.335938 185.535156 103.011719 181.585938 Z M 103.011719 181.585938 "/></g><path style=" stroke:none;fill-rule:nonzero;fill:#055001;fill-opacity:1;" d="M 119.277344 171.878906 C 119.144531 171.972656 119.042969 172.035156 118.949219 172.113281 C 118.886719 172.164062 118.832031 172.125 118.773438 172.117188 C 118.386719 172.050781 118 172.007812 117.609375 171.976562 C 117.210938 171.945312 116.8125 171.917969 116.414062 171.933594 C 115.90625 171.953125 115.398438 171.992188 114.894531 172.066406 C 114.292969 172.152344 113.703125 172.285156 113.125 172.457031 C 111.511719 172.945312 110.058594 173.738281 108.765625 174.820312 C 107.570312 175.824219 106.605469 177.011719 105.859375 178.378906 C 105.363281 179.289062 104.984375 180.246094 104.75 181.257812 C 104.71875 181.378906 104.664062 181.402344 104.566406 181.363281 C 104.511719 181.34375 104.453125 181.359375 104.375 181.335938 C 105.25 177.902344 107.148438 175.21875 110.195312 173.398438 C 113 171.722656 116.035156 171.253906 119.277344 171.878906 Z M 119.277344 171.878906 "/><g style="fill:#021e1a;fill-opacity:1;"><g transform="translate(58.338279, 214.189915)"><path style="stroke:none" d="M 2.0625 0 L 1.53125 0 C 1.320312 0 1.21875 -0.113281 1.21875 -0.34375 L 1.21875 -8.53125 C 1.21875 -8.75 1.320312 -8.859375 1.53125 -8.859375 L 6.6875 -8.859375 C 6.914062 -8.859375 7.03125 -8.75 7.03125 -8.53125 L 7.03125 -8.21875 C 7.03125 -7.988281 6.914062 -7.875 6.6875 -7.875 L 2.390625 -7.875 L 2.390625 -4.84375 L 5.625 -4.84375 C 5.851562 -4.84375 5.96875 -4.734375 5.96875 -4.515625 L 5.96875 -4.265625 C 5.96875 -4.035156 5.851562 -3.921875 5.625 -3.921875 L 2.390625 -3.921875 L 2.390625 -0.34375 C 2.390625 -0.113281 2.28125 0 2.0625 0 Z M 2.0625 0 "/></g></g><g style="fill:#021e1a;fill-opacity:1;"><g transform="translate(68.164395, 214.189915)"><path style="stroke:none" d="M 2.0625 0 L 1.53125 0 C 1.320312 0 1.21875 -0.113281 1.21875 -0.34375 L 1.21875 -8.515625 C 1.21875 -8.742188 1.320312 -8.859375 1.53125 -8.859375 L 2.0625 -8.859375 C 2.28125 -8.859375 2.390625 -8.742188 2.390625 -8.515625 L 2.390625 -0.34375 C 2.390625 -0.113281 2.28125 0 2.0625 0 Z M 2.0625 0 "/></g></g><g style="fill:#021e1a;fill-opacity:1;"><g transform="translate(74.355248, 214.189915)"><path style="stroke:none" d="M 3.84375 0.15625 C 3.175781 0.15625 2.550781 0.0351562 1.96875 -0.203125 C 1.382812 -0.441406 0.921875 -0.78125 0.578125 -1.21875 C 0.390625 -1.40625 0.367188 -1.582031 0.515625 -1.75 L 0.765625 -2.03125 C 0.921875 -2.1875 1.082031 -2.1875 1.25 -2.03125 C 1.507812 -1.664062 1.867188 -1.375 2.328125 -1.15625 C 2.796875 -0.945312 3.273438 -0.84375 3.765625 -0.84375 C 4.328125 -0.84375 4.785156 -0.984375 5.140625 -1.265625 C 5.492188 -1.546875 5.671875 -1.898438 5.671875 -2.328125 C 5.671875 -2.691406 5.5625 -2.972656 5.34375 -3.171875 C 5.125 -3.378906 4.84375 -3.550781 4.5 -3.6875 C 4.15625 -3.820312 3.796875 -3.957031 3.421875 -4.09375 C 3.003906 -4.25 2.601562 -4.425781 2.21875 -4.625 C 1.832031 -4.832031 1.515625 -5.097656 1.265625 -5.421875 C 1.023438 -5.742188 0.90625 -6.148438 0.90625 -6.640625 C 0.90625 -7.109375 1.023438 -7.519531 1.265625 -7.875 C 1.515625 -8.226562 1.859375 -8.503906 2.296875 -8.703125 C 2.742188 -8.910156 3.257812 -9.015625 3.84375 -9.015625 C 4.34375 -9.015625 4.816406 -8.929688 5.265625 -8.765625 C 5.710938 -8.609375 6.101562 -8.359375 6.4375 -8.015625 C 6.632812 -7.828125 6.660156 -7.65625 6.515625 -7.5 L 6.296875 -7.25 C 6.140625 -7.082031 5.96875 -7.082031 5.78125 -7.25 C 5.257812 -7.789062 4.617188 -8.0625 3.859375 -8.0625 C 3.328125 -8.0625 2.90625 -7.925781 2.59375 -7.65625 C 2.289062 -7.394531 2.140625 -7.070312 2.140625 -6.6875 C 2.140625 -6.289062 2.300781 -5.972656 2.625 -5.734375 C 2.957031 -5.492188 3.363281 -5.285156 3.84375 -5.109375 C 4.207031 -4.972656 4.566406 -4.832031 4.921875 -4.6875 C 5.285156 -4.550781 5.613281 -4.382812 5.90625 -4.1875 C 6.195312 -3.988281 6.429688 -3.742188 6.609375 -3.453125 C 6.796875 -3.160156 6.890625 -2.796875 6.890625 -2.359375 C 6.890625 -1.835938 6.753906 -1.390625 6.484375 -1.015625 C 6.210938 -0.640625 5.847656 -0.347656 5.390625 -0.140625 C 4.929688 0.0546875 4.414062 0.15625 3.84375 0.15625 Z M 3.84375 0.15625 "/></g></g><g style="fill:#021e1a;fill-opacity:1;"><g transform="translate(84.290284, 214.189915)"><path style="stroke:none" d="M 2.0625 0 L 1.53125 0 C 1.320312 0 1.21875 -0.113281 1.21875 -0.34375 L 1.21875 -8.515625 C 1.21875 -8.742188 1.320312 -8.859375 1.53125 -8.859375 L 2.0625 -8.859375 C 2.28125 -8.859375 2.390625 -8.742188 2.390625 -8.515625 L 2.390625 -0.34375 C 2.390625 -0.113281 2.28125 0 2.0625 0 Z M 2.0625 0 "/></g></g><g style="fill:#021e1a;fill-opacity:1;"><g transform="translate(90.481137, 214.189915)"><path style="stroke:none" d="M 5.359375 0.15625 C 4.671875 0.15625 4.035156 0.0390625 3.453125 -0.1875 C 2.878906 -0.414062 2.378906 -0.738281 1.953125 -1.15625 C 1.523438 -1.570312 1.191406 -2.054688 0.953125 -2.609375 C 0.710938 -3.171875 0.59375 -3.773438 0.59375 -4.421875 C 0.59375 -5.078125 0.710938 -5.679688 0.953125 -6.234375 C 1.191406 -6.785156 1.523438 -7.269531 1.953125 -7.6875 C 2.378906 -8.113281 2.878906 -8.441406 3.453125 -8.671875 C 4.035156 -8.898438 4.671875 -9.015625 5.359375 -9.015625 C 6.054688 -9.015625 6.691406 -8.898438 7.265625 -8.671875 C 7.847656 -8.441406 8.351562 -8.113281 8.78125 -7.6875 C 9.21875 -7.269531 9.550781 -6.785156 9.78125 -6.234375 C 10.019531 -5.679688 10.140625 -5.078125 10.140625 -4.421875 C 10.140625 -3.773438 10.019531 -3.171875 9.78125 -2.609375 C 9.550781 -2.054688 9.21875 -1.570312 8.78125 -1.15625 C 8.351562 -0.738281 7.847656 -0.414062 7.265625 -0.1875 C 6.691406 0.0390625 6.054688 0.15625 5.359375 0.15625 Z M 5.359375 -0.90625 C 6.035156 -0.90625 6.640625 -1.0625 7.171875 -1.375 C 7.710938 -1.695312 8.140625 -2.125 8.453125 -2.65625 C 8.765625 -3.1875 8.921875 -3.773438 8.921875 -4.421875 C 8.921875 -5.085938 8.765625 -5.679688 8.453125 -6.203125 C 8.140625 -6.734375 7.710938 -7.15625 7.171875 -7.46875 C 6.640625 -7.78125 6.035156 -7.9375 5.359375 -7.9375 C 4.691406 -7.9375 4.085938 -7.78125 3.546875 -7.46875 C 3.015625 -7.15625 2.59375 -6.734375 2.28125 -6.203125 C 1.96875 -5.679688 1.8125 -5.085938 1.8125 -4.421875 C 1.8125 -3.773438 1.96875 -3.1875 2.28125 -2.65625 C 2.59375 -2.125 3.015625 -1.695312 3.546875 -1.375 C 4.085938 -1.0625 4.691406 -0.90625 5.359375 -0.90625 Z M 5.359375 -0.90625 "/></g></g><g style="fill:#021e1a;fill-opacity:1;"><g transform="translate(103.806362, 214.189915)"><path style="stroke:none" d="M 4.015625 0 L 3.515625 0 C 3.285156 0 3.171875 -0.113281 3.171875 -0.34375 L 3.171875 -7.875 L 0.546875 -7.875 C 0.304688 -7.875 0.1875 -7.984375 0.1875 -8.203125 L 0.1875 -8.53125 C 0.1875 -8.75 0.304688 -8.859375 0.546875 -8.859375 L 7.046875 -8.859375 C 7.265625 -8.859375 7.375 -8.75 7.375 -8.53125 L 7.375 -8.203125 C 7.375 -7.984375 7.265625 -7.875 7.046875 -7.875 L 4.375 -7.875 L 4.375 -0.34375 C 4.375 -0.113281 4.253906 0 4.015625 0 Z M 4.015625 0 "/></g></g><g style="fill:#021e1a;fill-opacity:1;"><g transform="translate(113.959239, 214.189915)"><path style="stroke:none" d="M 6.859375 0 L 1.53125 0 C 1.320312 0 1.21875 -0.109375 1.21875 -0.328125 L 1.21875 -8.53125 C 1.21875 -8.75 1.320312 -8.859375 1.53125 -8.859375 L 6.84375 -8.859375 C 7.070312 -8.859375 7.1875 -8.75 7.1875 -8.53125 L 7.1875 -8.21875 C 7.1875 -7.988281 7.070312 -7.875 6.84375 -7.875 L 2.390625 -7.875 L 2.390625 -4.9375 L 5.8125 -4.9375 C 6.039062 -4.9375 6.15625 -4.820312 6.15625 -4.59375 L 6.15625 -4.328125 C 6.15625 -4.097656 6.039062 -3.984375 5.8125 -3.984375 L 2.390625 -3.984375 L 2.390625 -0.984375 L 6.859375 -0.984375 C 7.097656 -0.984375 7.21875 -0.875 7.21875 -0.65625 L 7.21875 -0.34375 C 7.21875 -0.113281 7.097656 0 6.859375 0 Z M 6.859375 0 "/></g></g><g style="fill:#021e1a;fill-opacity:1;"><g transform="translate(124.26188, 214.189915)"><path style="stroke:none" d="M 6.109375 -3.921875 L 8.09375 -0.375 C 8.164062 -0.257812 8.175781 -0.164062 8.125 -0.09375 C 8.070312 -0.03125 7.988281 0 7.875 0 L 7.21875 0 C 7.101562 0 7.019531 -0.0234375 6.96875 -0.078125 C 6.914062 -0.128906 6.859375 -0.210938 6.796875 -0.328125 L 4.984375 -3.6875 C 4.921875 -3.675781 4.859375 -3.671875 4.796875 -3.671875 C 4.742188 -3.671875 4.679688 -3.671875 4.609375 -3.671875 L 2.390625 -3.671875 L 2.390625 -0.34375 C 2.390625 -0.113281 2.28125 0 2.0625 0 L 1.53125 0 C 1.320312 0 1.21875 -0.113281 1.21875 -0.34375 L 1.21875 -8.53125 C 1.21875 -8.75 1.320312 -8.859375 1.53125 -8.859375 L 4.5625 -8.859375 C 5.519531 -8.859375 6.265625 -8.617188 6.796875 -8.140625 C 7.335938 -7.671875 7.609375 -7.039062 7.609375 -6.25 C 7.609375 -5.644531 7.476562 -5.148438 7.21875 -4.765625 C 6.96875 -4.378906 6.597656 -4.097656 6.109375 -3.921875 Z M 2.390625 -7.875 L 2.390625 -4.515625 L 4.609375 -4.515625 C 5.179688 -4.515625 5.625 -4.660156 5.9375 -4.953125 C 6.25 -5.253906 6.40625 -5.664062 6.40625 -6.1875 C 6.40625 -6.695312 6.226562 -7.101562 5.875 -7.40625 C 5.53125 -7.71875 5.078125 -7.875 4.515625 -7.875 Z M 2.390625 -7.875 "/></g></g><g style="fill:#021e1a;fill-opacity:1;"><g transform="translate(135.408674, 214.189915)"><path style="stroke:none" d="M 0.328125 -0.375 L 3.984375 -8.59375 C 4.046875 -8.71875 4.109375 -8.800781 4.171875 -8.84375 C 4.234375 -8.894531 4.3125 -8.921875 4.40625 -8.921875 L 4.71875 -8.921875 C 4.8125 -8.921875 4.890625 -8.894531 4.953125 -8.84375 C 5.015625 -8.800781 5.078125 -8.71875 5.140625 -8.59375 L 8.796875 -0.375 C 8.835938 -0.257812 8.835938 -0.164062 8.796875 -0.09375 C 8.753906 -0.03125 8.671875 0 8.546875 0 L 7.890625 0 C 7.765625 0 7.679688 -0.0234375 7.640625 -0.078125 C 7.609375 -0.128906 7.566406 -0.21875 7.515625 -0.34375 L 6.671875 -2.28125 L 2.390625 -2.25 L 1.546875 -0.34375 C 1.515625 -0.21875 1.472656 -0.128906 1.421875 -0.078125 C 1.378906 -0.0234375 1.300781 0 1.1875 0 L 0.578125 0 C 0.453125 0 0.363281 -0.03125 0.3125 -0.09375 C 0.269531 -0.164062 0.273438 -0.257812 0.328125 -0.375 Z M 4.53125 -7.328125 L 2.71875 -3.109375 L 6.375 -3.109375 L 4.578125 -7.328125 Z M 4.53125 -7.328125 "/></g></g><g style="fill:#021e1a;fill-opacity:1;"><g transform="translate(147.10007, 214.189915)"><path style="stroke:none" d="M 2.0625 0 L 1.53125 0 C 1.320312 0 1.21875 -0.113281 1.21875 -0.34375 L 1.21875 -8.53125 C 1.21875 -8.75 1.320312 -8.859375 1.53125 -8.859375 L 4.625 -8.859375 C 5.59375 -8.859375 6.34375 -8.609375 6.875 -8.109375 C 7.40625 -7.617188 7.671875 -6.960938 7.671875 -6.140625 C 7.671875 -5.316406 7.40625 -4.65625 6.875 -4.15625 C 6.34375 -3.664062 5.59375 -3.421875 4.625 -3.421875 L 2.390625 -3.421875 L 2.390625 -0.34375 C 2.390625 -0.113281 2.28125 0 2.0625 0 Z M 2.390625 -4.359375 L 4.609375 -4.359375 C 5.160156 -4.359375 5.601562 -4.515625 5.9375 -4.828125 C 6.28125 -5.148438 6.453125 -5.578125 6.453125 -6.109375 C 6.453125 -6.648438 6.28125 -7.078125 5.9375 -7.390625 C 5.601562 -7.710938 5.160156 -7.875 4.609375 -7.875 L 2.390625 -7.875 Z M 2.390625 -4.359375 "/></g></g><g style="fill:#021e1a;fill-opacity:1;"><g transform="translate(157.770327, 214.189915)"><path style="stroke:none" d="M 2.0625 0 L 1.53125 0 C 1.320312 0 1.21875 -0.113281 1.21875 -0.34375 L 1.21875 -8.515625 C 1.21875 -8.742188 1.320312 -8.859375 1.53125 -8.859375 L 2.0625 -8.859375 C 2.28125 -8.859375 2.390625 -8.742188 2.390625 -8.515625 L 2.390625 -0.34375 C 2.390625 -0.113281 2.28125 0 2.0625 0 Z M 2.0625 0 "/></g></g><g style="fill:#021e1a;fill-opacity:1;"><g transform="translate(163.96118, 214.189915)"><path style="stroke:none" d="M 0.328125 -0.375 L 3.984375 -8.59375 C 4.046875 -8.71875 4.109375 -8.800781 4.171875 -8.84375 C 4.234375 -8.894531 4.3125 -8.921875 4.40625 -8.921875 L 4.71875 -8.921875 C 4.8125 -8.921875 4.890625 -8.894531 4.953125 -8.84375 C 5.015625 -8.800781 5.078125 -8.71875 5.140625 -8.59375 L 8.796875 -0.375 C 8.835938 -0.257812 8.835938 -0.164062 8.796875 -0.09375 C 8.753906 -0.03125 8.671875 0 8.546875 0 L 7.890625 0 C 7.765625 0 7.679688 -0.0234375 7.640625 -0.078125 C 7.609375 -0.128906 7.566406 -0.21875 7.515625 -0.34375 L 6.671875 -2.28125 L 2.390625 -2.25 L 1.546875 -0.34375 C 1.515625 -0.21875 1.472656 -0.128906 1.421875 -0.078125 C 1.378906 -0.0234375 1.300781 0 1.1875 0 L 0.578125 0 C 0.453125 0 0.363281 -0.03125 0.3125 -0.09375 C 0.269531 -0.164062 0.273438 -0.257812 0.328125 -0.375 Z M 4.53125 -7.328125 L 2.71875 -3.109375 L 6.375 -3.109375 L 4.578125 -7.328125 Z M 4.53125 -7.328125 "/></g></g><g style="fill:#021e1a;fill-opacity:1;"><g transform="translate(175.652576, 214.189915)"><path style="stroke:none" d=""/></g></g><g style="fill:#021e1a;fill-opacity:1;"><g transform="translate(181.530279, 214.189915)"><path style="stroke:none" d="M 6.859375 0 L 1.53125 0 C 1.320312 0 1.21875 -0.109375 1.21875 -0.328125 L 1.21875 -8.53125 C 1.21875 -8.75 1.320312 -8.859375 1.53125 -8.859375 L 6.84375 -8.859375 C 7.070312 -8.859375 7.1875 -8.75 7.1875 -8.53125 L 7.1875 -8.21875 C 7.1875 -7.988281 7.070312 -7.875 6.84375 -7.875 L 2.390625 -7.875 L 2.390625 -4.9375 L 5.8125 -4.9375 C 6.039062 -4.9375 6.15625 -4.820312 6.15625 -4.59375 L 6.15625 -4.328125 C 6.15625 -4.097656 6.039062 -3.984375 5.8125 -3.984375 L 2.390625 -3.984375 L 2.390625 -0.984375 L 6.859375 -0.984375 C 7.097656 -0.984375 7.21875 -0.875 7.21875 -0.65625 L 7.21875 -0.34375 C 7.21875 -0.113281 7.097656 0 6.859375 0 Z M 6.859375 0 "/></g></g><g style="fill:#021e1a;fill-opacity:1;"><g transform="translate(191.83292, 214.189915)"><path style="stroke:none" d="M 3.84375 0.15625 C 3.175781 0.15625 2.550781 0.0351562 1.96875 -0.203125 C 1.382812 -0.441406 0.921875 -0.78125 0.578125 -1.21875 C 0.390625 -1.40625 0.367188 -1.582031 0.515625 -1.75 L 0.765625 -2.03125 C 0.921875 -2.1875 1.082031 -2.1875 1.25 -2.03125 C 1.507812 -1.664062 1.867188 -1.375 2.328125 -1.15625 C 2.796875 -0.945312 3.273438 -0.84375 3.765625 -0.84375 C 4.328125 -0.84375 4.785156 -0.984375 5.140625 -1.265625 C 5.492188 -1.546875 5.671875 -1.898438 5.671875 -2.328125 C 5.671875 -2.691406 5.5625 -2.972656 5.34375 -3.171875 C 5.125 -3.378906 4.84375 -3.550781 4.5 -3.6875 C 4.15625 -3.820312 3.796875 -3.957031 3.421875 -4.09375 C 3.003906 -4.25 2.601562 -4.425781 2.21875 -4.625 C 1.832031 -4.832031 1.515625 -5.097656 1.265625 -5.421875 C 1.023438 -5.742188 0.90625 -6.148438 0.90625 -6.640625 C 0.90625 -7.109375 1.023438 -7.519531 1.265625 -7.875 C 1.515625 -8.226562 1.859375 -8.503906 2.296875 -8.703125 C 2.742188 -8.910156 3.257812 -9.015625 3.84375 -9.015625 C 4.34375 -9.015625 4.816406 -8.929688 5.265625 -8.765625 C 5.710938 -8.609375 6.101562 -8.359375 6.4375 -8.015625 C 6.632812 -7.828125 6.660156 -7.65625 6.515625 -7.5 L 6.296875 -7.25 C 6.140625 -7.082031 5.96875 -7.082031 5.78125 -7.25 C 5.257812 -7.789062 4.617188 -8.0625 3.859375 -8.0625 C 3.328125 -8.0625 2.90625 -7.925781 2.59375 -7.65625 C 2.289062 -7.394531 2.140625 -7.070312 2.140625 -6.6875 C 2.140625 -6.289062 2.300781 -5.972656 2.625 -5.734375 C 2.957031 -5.492188 3.363281 -5.285156 3.84375 -5.109375 C 4.207031 -4.972656 4.566406 -4.832031 4.921875 -4.6875 C 5.285156 -4.550781 5.613281 -4.382812 5.90625 -4.1875 C 6.195312 -3.988281 6.429688 -3.742188 6.609375 -3.453125 C 6.796875 -3.160156 6.890625 -2.796875 6.890625 -2.359375 C 6.890625 -1.835938 6.753906 -1.390625 6.484375 -1.015625 C 6.210938 -0.640625 5.847656 -0.347656 5.390625 -0.140625 C 4.929688 0.0546875 4.414062 0.15625 3.84375 0.15625 Z M 3.84375 0.15625 "/></g></g><g style="fill:#021e1a;fill-opacity:1;"><g transform="translate(201.767956, 214.189915)"><path style="stroke:none" d="M 2.0625 0 L 1.53125 0 C 1.320312 0 1.21875 -0.113281 1.21875 -0.34375 L 1.21875 -8.53125 C 1.21875 -8.75 1.320312 -8.859375 1.53125 -8.859375 L 4.625 -8.859375 C 5.59375 -8.859375 6.34375 -8.609375 6.875 -8.109375 C 7.40625 -7.617188 7.671875 -6.960938 7.671875 -6.140625 C 7.671875 -5.316406 7.40625 -4.65625 6.875 -4.15625 C 6.34375 -3.664062 5.59375 -3.421875 4.625 -3.421875 L 2.390625 -3.421875 L 2.390625 -0.34375 C 2.390625 -0.113281 2.28125 0 2.0625 0 Z M 2.390625 -4.359375 L 4.609375 -4.359375 C 5.160156 -4.359375 5.601562 -4.515625 5.9375 -4.828125 C 6.28125 -5.148438 6.453125 -5.578125 6.453125 -6.109375 C 6.453125 -6.648438 6.28125 -7.078125 5.9375 -7.390625 C 5.601562 -7.710938 5.160156 -7.875 4.609375 -7.875 L 2.390625 -7.875 Z M 2.390625 -4.359375 "/></g></g><g style="fill:#021e1a;fill-opacity:1;"><g transform="translate(212.438213, 214.189915)"><path style="stroke:none" d="M 6.859375 0 L 1.53125 0 C 1.320312 0 1.21875 -0.109375 1.21875 -0.328125 L 1.21875 -8.53125 C 1.21875 -8.75 1.320312 -8.859375 1.53125 -8.859375 L 6.84375 -8.859375 C 7.070312 -8.859375 7.1875 -8.75 7.1875 -8.53125 L 7.1875 -8.21875 C 7.1875 -7.988281 7.070312 -7.875 6.84375 -7.875 L 2.390625 -7.875 L 2.390625 -4.9375 L 5.8125 -4.9375 C 6.039062 -4.9375 6.15625 -4.820312 6.15625 -4.59375 L 6.15625 -4.328125 C 6.15625 -4.097656 6.039062 -3.984375 5.8125 -3.984375 L 2.390625 -3.984375 L 2.390625 -0.984375 L 6.859375 -0.984375 C 7.097656 -0.984375 7.21875 -0.875 7.21875 -0.65625 L 7.21875 -0.34375 C 7.21875 -0.113281 7.097656 0 6.859375 0 Z M 6.859375 0 "/></g></g><g style="fill:#021e1a;fill-opacity:1;"><g transform="translate(222.740854, 214.189915)"><path style="stroke:none" d="M 5.359375 0.15625 C 4.671875 0.15625 4.035156 0.0390625 3.453125 -0.1875 C 2.878906 -0.414062 2.378906 -0.738281 1.953125 -1.15625 C 1.523438 -1.570312 1.191406 -2.054688 0.953125 -2.609375 C 0.710938 -3.171875 0.59375 -3.773438 0.59375 -4.421875 C 0.59375 -5.078125 0.710938 -5.679688 0.953125 -6.234375 C 1.191406 -6.785156 1.523438 -7.269531 1.953125 -7.6875 C 2.378906 -8.113281 2.878906 -8.441406 3.453125 -8.671875 C 4.035156 -8.898438 4.671875 -9.015625 5.359375 -9.015625 C 6.066406 -9.015625 6.71875 -8.878906 7.3125 -8.609375 C 7.90625 -8.347656 8.410156 -7.988281 8.828125 -7.53125 C 8.898438 -7.457031 8.9375 -7.375 8.9375 -7.28125 C 8.945312 -7.195312 8.910156 -7.117188 8.828125 -7.046875 L 8.484375 -6.75 C 8.328125 -6.632812 8.164062 -6.648438 8 -6.796875 C 7.695312 -7.128906 7.3125 -7.398438 6.84375 -7.609375 C 6.375 -7.828125 5.875 -7.9375 5.34375 -7.9375 C 4.675781 -7.9375 4.078125 -7.78125 3.546875 -7.46875 C 3.015625 -7.15625 2.59375 -6.734375 2.28125 -6.203125 C 1.96875 -5.671875 1.8125 -5.078125 1.8125 -4.421875 C 1.8125 -3.773438 1.96875 -3.1875 2.28125 -2.65625 C 2.59375 -2.125 3.015625 -1.695312 3.546875 -1.375 C 4.078125 -1.0625 4.675781 -0.90625 5.34375 -0.90625 C 5.875 -0.90625 6.375 -1.007812 6.84375 -1.21875 C 7.3125 -1.4375 7.695312 -1.71875 8 -2.0625 C 8.164062 -2.207031 8.328125 -2.21875 8.484375 -2.09375 L 8.828125 -1.8125 C 8.910156 -1.75 8.945312 -1.671875 8.9375 -1.578125 C 8.9375 -1.484375 8.898438 -1.398438 8.828125 -1.328125 C 8.410156 -0.859375 7.898438 -0.492188 7.296875 -0.234375 C 6.703125 0.0234375 6.054688 0.15625 5.359375 0.15625 Z M 5.359375 0.15625 "/></g></g><g style="fill:#021e1a;fill-opacity:1;"><g transform="translate(234.704557, 214.189915)"><path style="stroke:none" d="M 2.0625 0 L 1.53125 0 C 1.320312 0 1.21875 -0.113281 1.21875 -0.34375 L 1.21875 -8.515625 C 1.21875 -8.742188 1.320312 -8.859375 1.53125 -8.859375 L 2.0625 -8.859375 C 2.28125 -8.859375 2.390625 -8.742188 2.390625 -8.515625 L 2.390625 -0.34375 C 2.390625 -0.113281 2.28125 0 2.0625 0 Z M 2.0625 0 "/></g></g><g style="fill:#021e1a;fill-opacity:1;"><g transform="translate(240.89541, 214.189915)"><path style="stroke:none" d="M 0.328125 -0.375 L 3.984375 -8.59375 C 4.046875 -8.71875 4.109375 -8.800781 4.171875 -8.84375 C 4.234375 -8.894531 4.3125 -8.921875 4.40625 -8.921875 L 4.71875 -8.921875 C 4.8125 -8.921875 4.890625 -8.894531 4.953125 -8.84375 C 5.015625 -8.800781 5.078125 -8.71875 5.140625 -8.59375 L 8.796875 -0.375 C 8.835938 -0.257812 8.835938 -0.164062 8.796875 -0.09375 C 8.753906 -0.03125 8.671875 0 8.546875 0 L 7.890625 0 C 7.765625 0 7.679688 -0.0234375 7.640625 -0.078125 C 7.609375 -0.128906 7.566406 -0.21875 7.515625 -0.34375 L 6.671875 -2.28125 L 2.390625 -2.25 L 1.546875 -0.34375 C 1.515625 -0.21875 1.472656 -0.128906 1.421875 -0.078125 C 1.378906 -0.0234375 1.300781 0 1.1875 0 L 0.578125 0 C 0.453125 0 0.363281 -0.03125 0.3125 -0.09375 C 0.269531 -0.164062 0.273438 -0.257812 0.328125 -0.375 Z M 4.53125 -7.328125 L 2.71875 -3.109375 L 6.375 -3.109375 L 4.578125 -7.328125 Z M 4.53125 -7.328125 "/></g></g><g style="fill:#021e1a;fill-opacity:1;"><g transform="translate(252.586806, 214.189915)"><path style="stroke:none" d="M 6.296875 0 L 1.53125 0 C 1.320312 0 1.21875 -0.113281 1.21875 -0.34375 L 1.21875 -8.515625 C 1.21875 -8.742188 1.320312 -8.859375 1.53125 -8.859375 L 2.0625 -8.859375 C 2.28125 -8.859375 2.390625 -8.742188 2.390625 -8.515625 L 2.390625 -0.984375 L 6.296875 -0.984375 C 6.523438 -0.984375 6.640625 -0.875 6.640625 -0.65625 L 6.640625 -0.328125 C 6.640625 -0.109375 6.523438 0 6.296875 0 Z M 6.296875 0 "/></g></g><g style="fill:#021e1a;fill-opacity:1;"><g transform="translate(262.031695, 214.189915)"><path style="stroke:none" d="M 2.0625 0 L 1.53125 0 C 1.320312 0 1.21875 -0.113281 1.21875 -0.34375 L 1.21875 -8.515625 C 1.21875 -8.742188 1.320312 -8.859375 1.53125 -8.859375 L 2.0625 -8.859375 C 2.28125 -8.859375 2.390625 -8.742188 2.390625 -8.515625 L 2.390625 -0.34375 C 2.390625 -0.113281 2.28125 0 2.0625 0 Z M 2.0625 0 "/></g></g><g style="fill:#021e1a;fill-opacity:1;"><g transform="translate(268.222548, 214.189915)"><path style="stroke:none" d="M 1.859375 -0.96875 L 6.953125 -0.96875 C 7.179688 -0.96875 7.296875 -0.859375 7.296875 -0.640625 L 7.296875 -0.328125 C 7.296875 -0.109375 7.179688 0 6.953125 0 L 0.703125 0 C 0.472656 0 0.359375 -0.109375 0.359375 -0.328125 L 0.359375 -0.703125 C 0.359375 -0.804688 0.382812 -0.898438 0.4375 -0.984375 C 0.488281 -1.066406 0.539062 -1.144531 0.59375 -1.21875 L 5.578125 -7.890625 L 0.921875 -7.890625 C 0.691406 -7.890625 0.578125 -8 0.578125 -8.21875 L 0.578125 -8.53125 C 0.578125 -8.75 0.691406 -8.859375 0.921875 -8.859375 L 6.71875 -8.859375 C 6.945312 -8.859375 7.0625 -8.75 7.0625 -8.53125 L 7.0625 -8.140625 C 7.0625 -8.046875 7.03125 -7.957031 6.96875 -7.875 C 6.914062 -7.800781 6.863281 -7.726562 6.8125 -7.65625 Z M 1.859375 -0.96875 "/></g></g><g style="fill:#021e1a;fill-opacity:1;"><g transform="translate(278.375425, 214.189915)"><path style="stroke:none" d="M 0.328125 -0.375 L 3.984375 -8.59375 C 4.046875 -8.71875 4.109375 -8.800781 4.171875 -8.84375 C 4.234375 -8.894531 4.3125 -8.921875 4.40625 -8.921875 L 4.71875 -8.921875 C 4.8125 -8.921875 4.890625 -8.894531 4.953125 -8.84375 C 5.015625 -8.800781 5.078125 -8.71875 5.140625 -8.59375 L 8.796875 -0.375 C 8.835938 -0.257812 8.835938 -0.164062 8.796875 -0.09375 C 8.753906 -0.03125 8.671875 0 8.546875 0 L 7.890625 0 C 7.765625 0 7.679688 -0.0234375 7.640625 -0.078125 C 7.609375 -0.128906 7.566406 -0.21875 7.515625 -0.34375 L 6.671875 -2.28125 L 2.390625 -2.25 L 1.546875 -0.34375 C 1.515625 -0.21875 1.472656 -0.128906 1.421875 -0.078125 C 1.378906 -0.0234375 1.300781 0 1.1875 0 L 0.578125 0 C 0.453125 0 0.363281 -0.03125 0.3125 -0.09375 C 0.269531 -0.164062 0.273438 -0.257812 0.328125 -0.375 Z M 4.53125 -7.328125 L 2.71875 -3.109375 L 6.375 -3.109375 L 4.578125 -7.328125 Z M 4.53125 -7.328125 "/></g></g><g style="fill:#021e1a;fill-opacity:1;"><g transform="translate(290.06681, 214.189915)"><path style="stroke:none" d="M 4.6875 0 L 1.53125 0 C 1.320312 0 1.21875 -0.109375 1.21875 -0.328125 L 1.21875 -8.53125 C 1.21875 -8.75 1.320312 -8.859375 1.53125 -8.859375 L 4.6875 -8.859375 C 5.632812 -8.859375 6.445312 -8.671875 7.125 -8.296875 C 7.8125 -7.921875 8.335938 -7.398438 8.703125 -6.734375 C 9.066406 -6.078125 9.25 -5.304688 9.25 -4.421875 C 9.25 -3.546875 9.066406 -2.773438 8.703125 -2.109375 C 8.335938 -1.441406 7.8125 -0.921875 7.125 -0.546875 C 6.445312 -0.179688 5.632812 0 4.6875 0 Z M 2.390625 -0.984375 L 4.640625 -0.984375 C 5.335938 -0.984375 5.941406 -1.125 6.453125 -1.40625 C 6.960938 -1.6875 7.351562 -2.082031 7.625 -2.59375 C 7.894531 -3.113281 8.03125 -3.722656 8.03125 -4.421875 C 8.03125 -5.117188 7.894531 -5.726562 7.625 -6.25 C 7.351562 -6.769531 6.960938 -7.171875 6.453125 -7.453125 C 5.941406 -7.734375 5.335938 -7.875 4.640625 -7.875 L 2.390625 -7.875 Z M 2.390625 -0.984375 "/></g></g><g style="fill:#021e1a;fill-opacity:1;"><g transform="translate(302.520671, 214.189915)"><path style="stroke:none" d="M 0.328125 -0.375 L 3.984375 -8.59375 C 4.046875 -8.71875 4.109375 -8.800781 4.171875 -8.84375 C 4.234375 -8.894531 4.3125 -8.921875 4.40625 -8.921875 L 4.71875 -8.921875 C 4.8125 -8.921875 4.890625 -8.894531 4.953125 -8.84375 C 5.015625 -8.800781 5.078125 -8.71875 5.140625 -8.59375 L 8.796875 -0.375 C 8.835938 -0.257812 8.835938 -0.164062 8.796875 -0.09375 C 8.753906 -0.03125 8.671875 0 8.546875 0 L 7.890625 0 C 7.765625 0 7.679688 -0.0234375 7.640625 -0.078125 C 7.609375 -0.128906 7.566406 -0.21875 7.515625 -0.34375 L 6.671875 -2.28125 L 2.390625 -2.25 L 1.546875 -0.34375 C 1.515625 -0.21875 1.472656 -0.128906 1.421875 -0.078125 C 1.378906 -0.0234375 1.300781 0 1.1875 0 L 0.578125 0 C 0.453125 0 0.363281 -0.03125 0.3125 -0.09375 C 0.269531 -0.164062 0.273438 -0.257812 0.328125 -0.375 Z M 4.53125 -7.328125 L 2.71875 -3.109375 L 6.375 -3.109375 L 4.578125 -7.328125 Z M 4.53125 -7.328125 "/></g></g><path style=" stroke:none;fill-rule:nonzero;fill:#055001;fill-opacity:1;" d="M 114.265625 177.21875 C 115.042969 176.90625 115.902344 177.121094 116.636719 177.445312 C 117.457031 177.832031 118.296875 178.390625 118.632812 179.273438 C 118.785156 179.632812 118.683594 180.050781 118.425781 180.332031 C 118.222656 180.507812 117.929688 180.460938 117.6875 180.433594 C 117.132812 180.316406 116.789062 179.820312 116.359375 179.496094 C 115.984375 179.167969 115.585938 178.8125 115.082031 178.722656 C 114.628906 178.644531 114.238281 178.945312 113.949219 179.253906 C 113.511719 179.792969 113.238281 180.4375 113.023438 181.089844 C 112.882812 181.660156 112.585938 182.203125 112.621094 182.800781 C 112.578125 182.25 112.421875 181.710938 112.40625 181.152344 C 112.378906 180.4375 112.46875 179.714844 112.648438 179.019531 C 112.980469 178.277344 113.488281 177.542969 114.265625 177.21875 Z M 114.265625 177.21875 "/><g clip-rule="nonzero" clip-path="url(#b4a6b41579)"><path style="fill:none;stroke-width:0.1;stroke-linecap:butt;stroke-linejoin:miter;stroke:#000000;stroke-opacity:1;stroke-miterlimit:10;" d="M 108.423314 50.74349 C 118.537902 46.677324 129.719859 49.472813 139.275349 53.691461 C 149.949035 58.723341 160.876856 65.991613 165.247985 77.478532 C 167.23024 82.154623 165.908737 87.59312 162.55415 91.252669 C 159.911142 93.539888 156.099111 92.929963 152.947832 92.574173 C 145.730388 91.049361 141.257605 84.594322 135.666627 80.375675 C 130.787228 76.106201 125.602866 71.480937 119.046173 70.311914 C 113.150232 69.295373 108.067525 73.209057 104.306321 77.224396 C 98.613689 84.238533 95.055794 92.625 92.260305 101.113122 C 90.43053 108.533875 86.567672 115.598838 87.025116 123.375381 C 86.466018 116.208763 84.432935 109.194627 84.229627 101.926355 C 83.873837 92.625 85.04286 83.221991 87.380905 74.174772 C 91.701207 64.517628 98.308726 54.962137 108.423314 50.74349 Z M 108.423314 50.74349 " transform="matrix(0.0768537,0,0,0.0768537,105.93289,173.318924)"/></g><path style=" stroke:none;fill-rule:nonzero;fill:#055001;fill-opacity:1;" d="M 114.265625 177.21875 C 115.042969 176.90625 115.902344 177.121094 116.636719 177.445312 C 117.457031 177.832031 118.296875 178.390625 118.632812 179.273438 C 118.785156 179.632812 118.683594 180.050781 118.425781 180.332031 C 118.222656 180.507812 117.929688 180.460938 117.6875 180.433594 C 117.132812 180.316406 116.789062 179.820312 116.359375 179.496094 C 115.984375 179.167969 115.585938 178.8125 115.082031 178.722656 C 114.628906 178.644531 114.238281 178.945312 113.949219 179.253906 C 113.511719 179.792969 113.238281 180.4375 113.023438 181.089844 C 112.882812 181.660156 112.585938 182.203125 112.621094 182.800781 C 112.578125 182.25 112.421875 181.710938 112.40625 181.152344 C 112.378906 180.4375 112.46875 179.714844 112.648438 179.019531 C 112.980469 178.277344 113.488281 177.542969 114.265625 177.21875 Z M 114.265625 177.21875 "/><path style="fill-rule:nonzero;fill:#055001;fill-opacity:1;stroke-width:0.1;stroke-linecap:butt;stroke-linejoin:miter;stroke:#000000;stroke-opacity:1;stroke-miterlimit:10;" d="M 200.674456 56.893566 C 207.993555 56.080333 215.668443 58.926649 220.59867 64.466801 C 223.902429 68.532967 226.138821 73.717328 226.138821 79.054171 C 225.478069 85.560037 222.225136 91.964248 216.735812 95.725452 C 210.3316 100.249062 201.538516 101.214776 194.321072 98.063497 C 183.545732 93.997331 177.294001 80.12154 182.834153 69.701989 C 185.934604 62.586199 193.101222 57.960935 200.674456 56.893566 Z M 200.674456 56.893566 " transform="matrix(0.0768537,0,0,0.0768537,105.93289,173.318924)"/><path style=" stroke:none;fill-rule:nonzero;fill:#055001;fill-opacity:1;" d="M 121.355469 177.691406 C 121.917969 177.628906 122.507812 177.847656 122.886719 178.273438 C 123.140625 178.585938 123.3125 178.984375 123.3125 179.394531 C 123.261719 179.894531 123.011719 180.386719 122.589844 180.675781 C 122.097656 181.023438 121.421875 181.097656 120.867188 180.855469 C 120.039062 180.542969 119.558594 179.476562 119.984375 178.675781 C 120.222656 178.128906 120.773438 177.773438 121.355469 177.691406 Z M 121.355469 177.691406 "/><g clip-rule="nonzero" clip-path="url(#8f91572d2c)"><path style=" stroke:none;fill-rule:nonzero;fill:#055001;fill-opacity:1;" d="M 127.210938 180.59375 C 127.246094 180.59375 127.277344 180.589844 127.3125 180.59375 C 127.300781 180.886719 127.375 181.183594 127.328125 181.480469 C 127.25 181.984375 127.042969 182.460938 126.824219 182.921875 C 126.339844 184.003906 125.417969 184.898438 124.304688 185.320312 C 123.792969 185.5 123.1875 185.488281 122.726562 185.179688 C 121.984375 184.691406 121.398438 183.949219 121.140625 183.09375 C 120.976562 182.632812 120.972656 182.074219 121.25 181.65625 C 121.390625 181.472656 121.578125 181.269531 121.832031 181.28125 C 122.089844 181.304688 122.324219 181.460938 122.480469 181.667969 C 122.851562 182.152344 122.929688 182.785156 123.234375 183.304688 C 123.488281 183.636719 123.902344 184.035156 124.359375 183.839844 C 124.910156 183.605469 125.371094 183.210938 125.820312 182.824219 C 126.386719 182.335938 126.777344 181.6875 127.09375 181.019531 C 127.15625 180.886719 127.199219 180.742188 127.210938 180.59375 Z M 127.210938 180.59375 "/></g><g clip-rule="nonzero" clip-path="url(#11d59774e0)"><path style="fill:none;stroke-width:0.1;stroke-linecap:butt;stroke-linejoin:miter;stroke:#000000;stroke-opacity:1;stroke-miterlimit:10;" d="M 276.864242 94.658083 C 277.321685 94.658083 277.728302 94.607256 278.185746 94.658083 C 278.033265 98.470114 278.998979 102.332972 278.389054 106.195829 C 277.372513 112.752522 274.678678 118.953425 271.832361 124.95102 C 265.529804 139.03012 253.534614 150.66952 239.048898 156.158844 C 232.390551 158.49689 224.512354 158.344409 218.514759 154.32907 C 208.857615 147.975685 201.233554 138.318541 197.878967 127.187411 C 195.74423 121.189817 195.693403 113.921545 199.302125 108.483048 C 201.1319 106.094175 203.571599 103.451167 206.875359 103.603648 C 210.229946 103.908611 213.279571 105.941694 215.312654 108.635529 C 220.141226 114.938086 221.157767 123.172072 225.122279 129.932073 C 228.426039 134.252375 233.813709 139.436737 239.760477 136.895383 C 246.927094 133.845758 252.924689 128.712224 258.769803 123.680343 C 266.139729 117.326959 271.222436 108.889664 275.33943 100.198234 C 276.152663 98.470114 276.711761 96.589512 276.864242 94.658083 Z M 276.864242 94.658083 " transform="matrix(0.0768537,0,0,0.0768537,105.93289,173.318924)"/></g><g clip-rule="nonzero" clip-path="url(#3f27dfacb1)"><path style=" stroke:none;fill-rule:nonzero;fill:#055001;fill-opacity:1;" d="M 127.210938 180.59375 C 127.246094 180.59375 127.277344 180.589844 127.3125 180.59375 C 127.300781 180.886719 127.375 181.183594 127.328125 181.480469 C 127.25 181.984375 127.042969 182.460938 126.824219 182.921875 C 126.339844 184.003906 125.417969 184.898438 124.304688 185.320312 C 123.792969 185.5 123.1875 185.488281 122.726562 185.179688 C 121.984375 184.691406 121.398438 183.949219 121.140625 183.09375 C 120.976562 182.632812 120.972656 182.074219 121.25 181.65625 C 121.390625 181.472656 121.578125 181.269531 121.832031 181.28125 C 122.089844 181.304688 122.324219 181.460938 122.480469 181.667969 C 122.851562 182.152344 122.929688 182.785156 123.234375 183.304688 C 123.488281 183.636719 123.902344 184.035156 124.359375 183.839844 C 124.910156 183.605469 125.371094 183.210938 125.820312 182.824219 C 126.386719 182.335938 126.777344 181.6875 127.09375 181.019531 C 127.15625 180.886719 127.199219 180.742188 127.210938 180.59375 Z M 127.210938 180.59375 "/></g><g clip-rule="nonzero" clip-path="url(#7d14814c72)"><path style="fill-rule:nonzero;fill:#055001;fill-opacity:1;stroke-width:0.1;stroke-linecap:butt;stroke-linejoin:miter;stroke:#000000;stroke-opacity:1;stroke-miterlimit:10;" d="M 98.105418 135.065608 C 102.324065 131.507713 108.626623 131.812675 113.556849 133.64245 C 118.537902 135.777187 123.773091 137.403654 128.347528 140.402451 C 135.361664 144.926061 142.121665 149.957941 148.170087 155.803055 C 154.980915 161.292379 161.283473 167.442455 166.72197 174.354937 C 170.686482 179.031028 174.905129 184.520352 174.549339 191.077045 C 171.601369 200.530881 163.469037 207.49419 155.031742 212.119454 C 143.798959 217.862914 131.244671 220.099305 119.249481 223.606373 C 114.06512 225.283667 108.626623 225.893592 103.238953 226.452689 C 97.139704 226.808479 90.989628 228.079156 84.890379 226.96096 C 88.804063 224.165471 93.530981 222.894794 97.851283 220.760057 C 110.202262 215.423214 121.790835 208.612386 133.836852 202.614791 C 138.91956 200.175091 143.900613 197.023813 146.848583 191.991932 C 146.696102 190.873737 146.543621 189.755541 146.39114 188.688172 C 142.934899 185.231931 138.716251 182.741405 134.345123 180.657495 C 129.262415 184.825315 123.417302 188.02742 118.741211 192.754338 C 105.881961 202.309829 91.65038 209.781409 77.977896 218.066222 C 59.578495 228.434945 42.144808 240.480962 23.33879 250.239761 C 22.271422 250.646377 21.153226 250.95134 19.984204 251.154648 C 27.201648 243.327278 35.588116 236.618104 42.703906 228.638254 C 52.920148 217.913741 63.187217 207.189228 73.860903 196.871332 C 85.144514 186.045165 96.123162 174.812381 106.59354 163.172981 C 102.171584 159.106815 96.478952 155.345611 95.157448 149.043054 C 93.886771 144.316136 94.59835 138.725157 98.105418 135.065608 Z M 98.105418 135.065608 " transform="matrix(0.0768537,0,0,0.0768537,105.93289,173.318924)"/><path style=" stroke:none;fill-rule:nonzero;fill:#055001;fill-opacity:1;" d="M 113.472656 183.699219 C 113.796875 183.425781 114.28125 183.449219 114.660156 183.589844 C 115.042969 183.753906 115.445312 183.878906 115.796875 184.109375 C 116.335938 184.457031 116.855469 184.84375 117.320312 185.292969 C 117.84375 185.714844 118.328125 186.1875 118.746094 186.71875 C 119.050781 187.078125 119.375 187.5 119.347656 188.003906 C 119.121094 188.730469 118.496094 189.265625 117.847656 189.621094 C 116.984375 190.0625 116.019531 190.234375 115.097656 190.503906 C 114.699219 190.632812 114.28125 190.679688 113.867188 190.722656 C 113.398438 190.75 112.925781 190.847656 112.457031 190.761719 C 112.757812 190.546875 113.121094 190.449219 113.453125 190.285156 C 114.402344 189.875 115.292969 189.351562 116.21875 188.890625 C 116.609375 188.703125 116.992188 188.460938 117.21875 188.074219 C 117.207031 187.988281 117.195312 187.902344 117.183594 187.820312 C 116.917969 187.554688 116.59375 187.363281 116.257812 187.203125 C 115.867188 187.523438 115.417969 187.769531 115.058594 188.132812 C 114.070312 188.867188 112.976562 189.441406 111.925781 190.078125 C 110.511719 190.875 109.171875 191.800781 107.726562 192.550781 C 107.644531 192.582031 107.558594 192.605469 107.46875 192.621094 C 108.023438 192.019531 108.667969 191.503906 109.214844 190.890625 C 110 190.066406 110.789062 189.242188 111.609375 188.449219 C 112.476562 187.617188 113.320312 186.753906 114.125 185.859375 C 113.785156 185.546875 113.347656 185.257812 113.246094 184.773438 C 113.148438 184.410156 113.203125 183.980469 113.472656 183.699219 Z M 113.472656 183.699219 "/></g></g></svg>