<svg xmlns="http://www.w3.org/2000/svg" xmlns:xlink="http://www.w3.org/1999/xlink" width="500" zoomAndPan="magnify" viewBox="0 0 375 374.999991" height="500" preserveAspectRatio="xMidYMid meet" version="1.2"><defs><clipPath id="4650f4ce99"><path d="M 158 140.546875 L 180.964844 140.546875 L 180.964844 167 L 158 167 Z M 158 140.546875 "/></clipPath><clipPath id="27f64fe9ba"><path d="M 150.214844 152 L 164 152 L 164 170.546875 L 150.214844 170.546875 Z M 150.214844 152 "/></clipPath><clipPath id="2fcbd18120"><path d="M 160 147.515625 L 168 147.515625 L 168 154 L 160 154 Z M 160 147.515625 "/></clipPath><clipPath id="e81e6fa467"><path d="M 169 151 L 176.664062 151 L 176.664062 157 L 169 157 Z M 169 151 "/></clipPath><clipPath id="5a519692bb"><path d="M 155.664062 154 L 169 154 L 169 164 L 155.664062 164 Z M 155.664062 154 "/></clipPath><clipPath id="c0951630bf"><path d="M 155.664062 154 L 169 154 L 169 164.015625 L 155.664062 164.015625 Z M 155.664062 154 "/></clipPath><clipPath id="ee0e434330"><path d="M 155.664062 154 L 169 154 L 169 164 L 155.664062 164 Z M 155.664062 154 "/></clipPath></defs><g id="326fba0797"><g style="fill:#ffffff;fill-opacity:1;"><g transform="translate(54.374319, 169.330716)"><path style="stroke:none" d="M 2.84375 -23.28125 C 2.25 -24.800781 1.707031 -25.832031 1.21875 -26.375 C 0.726562 -26.925781 0.269531 -27.296875 -0.15625 -27.484375 L -0.15625 -28 L 6.078125 -28 L 6.078125 -27.484375 C 5.492188 -27.296875 5.25 -26.925781 5.34375 -26.375 C 5.4375 -25.832031 5.773438 -24.800781 6.359375 -23.28125 L 14.078125 -3.484375 L 21.6875 -23.234375 C 22.1875 -24.566406 22.394531 -25.570312 22.3125 -26.25 C 22.238281 -26.9375 21.851562 -27.347656 21.15625 -27.484375 L 21.15625 -28 L 25.640625 -28 L 25.640625 -27.484375 C 25.109375 -27.296875 24.582031 -26.925781 24.0625 -26.375 C 23.539062 -25.832031 22.988281 -24.800781 22.40625 -23.28125 L 13.3125 0.203125 L 12.203125 0.203125 Z M 2.84375 -23.28125 "/></g></g><g style="fill:#ffffff;fill-opacity:1;"><g transform="translate(82.1354, 169.330716)"><path style="stroke:none" d="M 2.046875 0 L 2.046875 -0.515625 C 2.648438 -0.703125 3.066406 -1.101562 3.296875 -1.71875 C 3.523438 -2.332031 3.640625 -3.453125 3.640625 -5.078125 L 3.640625 -22.921875 C 3.640625 -24.578125 3.523438 -25.703125 3.296875 -26.296875 C 3.066406 -26.898438 2.648438 -27.296875 2.046875 -27.484375 L 2.046875 -28 L 8.515625 -28 L 8.515625 -27.484375 C 7.898438 -27.296875 7.476562 -26.898438 7.25 -26.296875 C 7.03125 -25.703125 6.921875 -24.578125 6.921875 -22.921875 L 6.921875 -5.078125 C 6.921875 -3.453125 7.03125 -2.332031 7.25 -1.71875 C 7.476562 -1.101562 7.898438 -0.703125 8.515625 -0.515625 L 8.515625 0 Z M 2.046875 0 "/></g></g><g style="fill:#ffffff;fill-opacity:1;"><g transform="translate(95.015901, 169.330716)"><path style="stroke:none" d="M 17.15625 0.40625 C 14.09375 0.40625 11.429688 -0.140625 9.171875 -1.234375 C 6.921875 -2.328125 5.175781 -3.90625 3.9375 -5.96875 C 2.695312 -8.039062 2.078125 -10.53125 2.078125 -13.4375 C 2.078125 -15.570312 2.460938 -17.539062 3.234375 -19.34375 C 4.015625 -21.144531 5.117188 -22.71875 6.546875 -24.0625 C 7.972656 -25.40625 9.664062 -26.441406 11.625 -27.171875 C 13.582031 -27.910156 15.734375 -28.28125 18.078125 -28.28125 C 19.222656 -28.28125 20.390625 -28.179688 21.578125 -27.984375 C 22.765625 -27.785156 23.847656 -27.535156 24.828125 -27.234375 C 25.816406 -26.941406 26.566406 -26.625 27.078125 -26.28125 L 27.234375 -21.515625 L 26.84375 -21.4375 C 26.070312 -23.25 24.785156 -24.710938 22.984375 -25.828125 C 21.179688 -26.953125 19.09375 -27.515625 16.71875 -27.515625 C 14.613281 -27.515625 12.707031 -27.046875 11 -26.109375 C 9.289062 -25.179688 7.9375 -23.796875 6.9375 -21.953125 C 5.9375 -20.117188 5.4375 -17.84375 5.4375 -15.125 C 5.4375 -13.25 5.707031 -11.429688 6.25 -9.671875 C 6.800781 -7.921875 7.625 -6.34375 8.71875 -4.9375 C 9.8125 -3.539062 11.15625 -2.4375 12.75 -1.625 C 14.351562 -0.8125 16.195312 -0.40625 18.28125 -0.40625 C 20.4375 -0.40625 22.320312 -0.960938 23.9375 -2.078125 C 25.550781 -3.203125 26.742188 -4.84375 27.515625 -7 L 27.953125 -6.953125 L 27.3125 -1.765625 C 26.382812 -1.253906 25.019531 -0.765625 23.21875 -0.296875 C 21.414062 0.171875 19.394531 0.40625 17.15625 0.40625 Z M 17.15625 0.40625 "/></g></g><g style="fill:#ffffff;fill-opacity:1;"><g transform="translate(126.977136, 169.330716)"><path style="stroke:none" d="M 7.953125 0 L 7.953125 -0.515625 C 8.566406 -0.703125 8.988281 -1.101562 9.21875 -1.71875 C 9.445312 -2.332031 9.5625 -3.453125 9.5625 -5.078125 L 9.5625 -27.359375 L 7.59375 -27.359375 C 5.8125 -27.359375 4.453125 -27.078125 3.515625 -26.515625 C 2.585938 -25.960938 1.773438 -24.960938 1.078125 -23.515625 L 0.640625 -23.59375 L 0.875 -28 L 21.484375 -28 L 21.71875 -23.59375 L 21.28125 -23.515625 C 20.613281 -24.960938 19.8125 -25.960938 18.875 -26.515625 C 17.945312 -27.078125 16.578125 -27.359375 14.765625 -27.359375 L 12.875 -27.359375 L 12.875 -5.078125 C 12.875 -3.453125 12.988281 -2.332031 13.21875 -1.71875 C 13.445312 -1.101562 13.867188 -0.703125 14.484375 -0.515625 L 14.484375 0 Z M 7.953125 0 "/></g></g><g style="fill:#ffffff;fill-opacity:1;"><g transform="translate(151.707865, 169.330716)"><path style="stroke:none" d=""/></g></g><g style="fill:#ffffff;fill-opacity:1;"><g transform="translate(162.42827, 169.330716)"><path style="stroke:none" d=""/></g></g><g style="fill:#ffffff;fill-opacity:1;"><g transform="translate(173.148676, 169.330716)"><path style="stroke:none" d=""/></g></g><g style="fill:#ffffff;fill-opacity:1;"><g transform="translate(183.882482, 169.330716)"><path style="stroke:none" d="M 22.40625 0.28125 C 21.382812 0.28125 20.582031 0.0351562 20 -0.453125 C 19.414062 -0.953125 18.898438 -1.675781 18.453125 -2.625 C 18.015625 -3.570312 17.503906 -4.738281 16.921875 -6.125 C 16.335938 -7.507812 15.84375 -8.71875 15.4375 -9.75 C 15.039062 -10.789062 14.609375 -11.660156 14.140625 -12.359375 C 13.671875 -13.054688 13.078125 -13.578125 12.359375 -13.921875 C 11.640625 -14.265625 10.679688 -14.4375 9.484375 -14.4375 L 6.921875 -14.4375 L 6.921875 -5.078125 C 6.921875 -3.453125 7.03125 -2.332031 7.25 -1.71875 C 7.476562 -1.101562 7.898438 -0.703125 8.515625 -0.515625 L 8.515625 0 L 2.046875 0 L 2.046875 -0.515625 C 2.648438 -0.703125 3.066406 -1.101562 3.296875 -1.71875 C 3.523438 -2.332031 3.640625 -3.453125 3.640625 -5.078125 L 3.640625 -22.921875 C 3.640625 -24.578125 3.523438 -25.703125 3.296875 -26.296875 C 3.066406 -26.898438 2.648438 -27.296875 2.046875 -27.484375 L 2.046875 -28 L 9.921875 -28 C 12.640625 -28 14.757812 -27.722656 16.28125 -27.171875 C 17.800781 -26.628906 18.875 -25.890625 19.5 -24.953125 C 20.125 -24.023438 20.4375 -22.960938 20.4375 -21.765625 C 20.4375 -19.890625 19.769531 -18.289062 18.4375 -16.96875 C 17.101562 -15.65625 15.128906 -14.851562 12.515625 -14.5625 C 13.742188 -14.394531 14.742188 -14.117188 15.515625 -13.734375 C 16.296875 -13.347656 16.9375 -12.828125 17.4375 -12.171875 C 17.945312 -11.523438 18.398438 -10.734375 18.796875 -9.796875 C 19.203125 -8.867188 19.644531 -7.789062 20.125 -6.5625 C 20.757812 -4.957031 21.296875 -3.710938 21.734375 -2.828125 C 22.179688 -1.953125 22.585938 -1.332031 22.953125 -0.96875 C 23.328125 -0.613281 23.742188 -0.4375 24.203125 -0.4375 C 24.335938 -0.4375 24.453125 -0.4375 24.546875 -0.4375 C 24.640625 -0.4375 24.738281 -0.453125 24.84375 -0.484375 L 24.84375 0 C 24.550781 0.101562 24.171875 0.175781 23.703125 0.21875 C 23.234375 0.257812 22.800781 0.28125 22.40625 0.28125 Z M 6.921875 -15.046875 L 10.28125 -15.046875 C 12.570312 -15.046875 14.269531 -15.582031 15.375 -16.65625 C 16.488281 -17.738281 17.046875 -19.132812 17.046875 -20.84375 C 17.046875 -22.039062 16.769531 -23.128906 16.21875 -24.109375 C 15.675781 -25.097656 14.796875 -25.894531 13.578125 -26.5 C 12.367188 -27.101562 10.773438 -27.40625 8.796875 -27.40625 C 8.503906 -27.40625 8.195312 -27.394531 7.875 -27.375 C 7.5625 -27.363281 7.242188 -27.34375 6.921875 -27.3125 Z M 6.921875 -15.046875 "/></g></g><g style="fill:#ffffff;fill-opacity:1;"><g transform="translate(54.374319, 209.33236)"><path style="stroke:none" d="M 2.046875 0 L 2.046875 -0.515625 C 2.648438 -0.703125 3.066406 -1.101562 3.296875 -1.71875 C 3.523438 -2.332031 3.640625 -3.453125 3.640625 -5.078125 L 3.640625 -22.921875 C 3.640625 -24.578125 3.523438 -25.703125 3.296875 -26.296875 C 3.066406 -26.898438 2.648438 -27.296875 2.046875 -27.484375 L 2.046875 -28 L 8.515625 -28 L 8.515625 -27.484375 C 7.898438 -27.296875 7.476562 -26.898438 7.25 -26.296875 C 7.03125 -25.703125 6.921875 -24.578125 6.921875 -22.921875 L 6.921875 -2.4375 C 6.921875 -1.238281 7.519531 -0.640625 8.71875 -0.640625 L 13.484375 -0.640625 C 15.398438 -0.640625 16.867188 -0.925781 17.890625 -1.5 C 18.921875 -2.070312 19.785156 -3.101562 20.484375 -4.59375 L 20.921875 -4.515625 L 20.640625 0 Z M 2.046875 0 "/></g></g><g style="fill:#ffffff;fill-opacity:1;"><g transform="translate(78.415252, 209.33236)"><path style="stroke:none" d="M 2.046875 0 L 2.046875 -0.515625 C 2.648438 -0.703125 3.066406 -1.101562 3.296875 -1.71875 C 3.523438 -2.332031 3.640625 -3.453125 3.640625 -5.078125 L 3.640625 -22.921875 C 3.640625 -24.578125 3.523438 -25.703125 3.296875 -26.296875 C 3.066406 -26.898438 2.648438 -27.296875 2.046875 -27.484375 L 2.046875 -28 L 20.640625 -28 L 21.078125 -22.796875 L 20.640625 -22.6875 C 19.941406 -24.4375 18.972656 -25.660156 17.734375 -26.359375 C 16.492188 -27.054688 14.847656 -27.40625 12.796875 -27.40625 L 6.921875 -27.40625 L 6.921875 -15.28125 L 12.046875 -15.28125 C 13.554688 -15.28125 14.734375 -15.378906 15.578125 -15.578125 C 16.421875 -15.773438 17.035156 -16.082031 17.421875 -16.5 C 17.804688 -16.914062 18.078125 -17.414062 18.234375 -18 L 18.71875 -18 L 18.71875 -11.953125 L 18.234375 -11.953125 C 18.078125 -12.566406 17.804688 -13.070312 17.421875 -13.46875 C 17.035156 -13.875 16.421875 -14.175781 15.578125 -14.375 C 14.734375 -14.582031 13.554688 -14.6875 12.046875 -14.6875 L 6.921875 -14.6875 L 6.921875 -2.40625 C 6.921875 -1.195312 7.519531 -0.59375 8.71875 -0.59375 L 13.921875 -0.59375 C 15.835938 -0.59375 17.421875 -0.925781 18.671875 -1.59375 C 19.929688 -2.257812 20.921875 -3.53125 21.640625 -5.40625 L 22.078125 -5.3125 L 21.765625 0 Z M 2.046875 0 "/></g></g><g style="fill:#ffffff;fill-opacity:1;"><g transform="translate(104.296262, 209.33236)"><path style="stroke:none" d="M 16.3125 0.40625 C 14.613281 0.40625 12.921875 0.117188 11.234375 -0.453125 C 9.554688 -1.023438 8.023438 -1.90625 6.640625 -3.09375 C 5.253906 -4.28125 4.144531 -5.78125 3.3125 -7.59375 C 2.488281 -9.40625 2.078125 -11.554688 2.078125 -14.046875 C 2.078125 -16.785156 2.675781 -19.226562 3.875 -21.375 C 5.082031 -23.519531 6.75 -25.210938 8.875 -26.453125 C 11.007812 -27.691406 13.488281 -28.3125 16.3125 -28.3125 C 18 -28.3125 19.679688 -28.019531 21.359375 -27.4375 C 23.035156 -26.851562 24.5625 -25.96875 25.9375 -24.78125 C 27.3125 -23.59375 28.410156 -22.09375 29.234375 -20.28125 C 30.066406 -18.46875 30.484375 -16.332031 30.484375 -13.875 C 30.484375 -11.394531 30.066406 -9.257812 29.234375 -7.46875 C 28.410156 -5.6875 27.304688 -4.207031 25.921875 -3.03125 C 24.535156 -1.863281 23.007812 -1 21.34375 -0.4375 C 19.675781 0.125 18 0.40625 16.3125 0.40625 Z M 5.28125 -16.359375 C 5.363281 -14.359375 5.726562 -12.414062 6.375 -10.53125 C 7.03125 -8.65625 7.925781 -6.96875 9.0625 -5.46875 C 10.195312 -3.976562 11.519531 -2.789062 13.03125 -1.90625 C 14.550781 -1.03125 16.207031 -0.59375 18 -0.59375 C 20.132812 -0.59375 21.90625 -1.0625 23.3125 -2 C 24.726562 -2.9375 25.773438 -4.207031 26.453125 -5.8125 C 27.140625 -7.425781 27.441406 -9.234375 27.359375 -11.234375 C 27.273438 -13.316406 26.90625 -15.320312 26.25 -17.25 C 25.601562 -19.1875 24.71875 -20.914062 23.59375 -22.4375 C 22.476562 -23.957031 21.160156 -25.164062 19.640625 -26.0625 C 18.117188 -26.957031 16.46875 -27.40625 14.6875 -27.40625 C 12.65625 -27.40625 10.925781 -26.9375 9.5 -26 C 8.070312 -25.0625 6.988281 -23.765625 6.25 -22.109375 C 5.519531 -20.460938 5.195312 -18.546875 5.28125 -16.359375 Z M 5.28125 -16.359375 "/></g></g><g style="fill:#ffffff;fill-opacity:1;"><g transform="translate(139.137615, 209.33236)"><path style="stroke:none" d="M 23.15625 0.3125 L 4.3125 -24.203125 L 4.3125 -6.6875 C 4.3125 -5.164062 4.414062 -3.988281 4.625 -3.15625 C 4.84375 -2.332031 5.160156 -1.726562 5.578125 -1.34375 C 5.992188 -0.957031 6.492188 -0.679688 7.078125 -0.515625 L 7.078125 0 L 2.078125 0 L 2.078125 -0.515625 C 2.691406 -0.703125 3.113281 -1.101562 3.34375 -1.71875 C 3.570312 -2.332031 3.6875 -3.453125 3.6875 -5.078125 L 3.6875 -22.921875 C 3.6875 -24.578125 3.535156 -25.703125 3.234375 -26.296875 C 2.941406 -26.898438 2.394531 -27.296875 1.59375 -27.484375 L 1.59375 -28 L 5.515625 -28 L 23 -5.359375 L 23 -21.3125 C 23 -22.832031 22.890625 -24.015625 22.671875 -24.859375 C 22.460938 -25.703125 22.15625 -26.304688 21.75 -26.671875 C 21.351562 -27.046875 20.847656 -27.316406 20.234375 -27.484375 L 20.234375 -28 L 25.28125 -28 L 25.28125 -27.484375 C 24.664062 -27.296875 24.242188 -26.898438 24.015625 -26.296875 C 23.796875 -25.703125 23.6875 -24.578125 23.6875 -22.921875 L 23.6875 0.3125 Z M 23.15625 0.3125 "/></g></g><g style="fill:#ffffff;fill-opacity:1;"><g transform="translate(168.338755, 209.33236)"><path style="stroke:none" d="M -0.6875 0 L -0.6875 -0.515625 C -0.125 -0.703125 0.421875 -1.066406 0.953125 -1.609375 C 1.492188 -2.160156 2.070312 -3.195312 2.6875 -4.71875 L 10.5625 -24.234375 C 10.800781 -24.878906 10.773438 -25.507812 10.484375 -26.125 L 10.125 -26.953125 L 13.125 -28.3125 L 22.953125 -4.6875 C 23.566406 -3.1875 24.117188 -2.160156 24.609375 -1.609375 C 25.109375 -1.066406 25.570312 -0.703125 26 -0.515625 L 26 0 L 19.796875 0 L 19.796875 -0.515625 C 20.410156 -0.703125 20.664062 -1.066406 20.5625 -1.609375 C 20.457031 -2.160156 20.082031 -3.1875 19.4375 -4.6875 L 17 -10.5625 L 5.71875 -10.5625 L 3.359375 -4.71875 C 2.347656 -2.1875 2.507812 -0.785156 3.84375 -0.515625 L 3.84375 0 Z M 5.953125 -11.15625 L 16.765625 -11.15625 L 11.28125 -24.3125 Z M 5.953125 -11.15625 "/></g></g><g style="fill:#ffffff;fill-opacity:1;"><g transform="translate(196.299846, 209.33236)"><path style="stroke:none" d="M 22.40625 0.28125 C 21.382812 0.28125 20.582031 0.0351562 20 -0.453125 C 19.414062 -0.953125 18.898438 -1.675781 18.453125 -2.625 C 18.015625 -3.570312 17.503906 -4.738281 16.921875 -6.125 C 16.335938 -7.507812 15.84375 -8.71875 15.4375 -9.75 C 15.039062 -10.789062 14.609375 -11.660156 14.140625 -12.359375 C 13.671875 -13.054688 13.078125 -13.578125 12.359375 -13.921875 C 11.640625 -14.265625 10.679688 -14.4375 9.484375 -14.4375 L 6.921875 -14.4375 L 6.921875 -5.078125 C 6.921875 -3.453125 7.03125 -2.332031 7.25 -1.71875 C 7.476562 -1.101562 7.898438 -0.703125 8.515625 -0.515625 L 8.515625 0 L 2.046875 0 L 2.046875 -0.515625 C 2.648438 -0.703125 3.066406 -1.101562 3.296875 -1.71875 C 3.523438 -2.332031 3.640625 -3.453125 3.640625 -5.078125 L 3.640625 -22.921875 C 3.640625 -24.578125 3.523438 -25.703125 3.296875 -26.296875 C 3.066406 -26.898438 2.648438 -27.296875 2.046875 -27.484375 L 2.046875 -28 L 9.921875 -28 C 12.640625 -28 14.757812 -27.722656 16.28125 -27.171875 C 17.800781 -26.628906 18.875 -25.890625 19.5 -24.953125 C 20.125 -24.023438 20.4375 -22.960938 20.4375 -21.765625 C 20.4375 -19.890625 19.769531 -18.289062 18.4375 -16.96875 C 17.101562 -15.65625 15.128906 -14.851562 12.515625 -14.5625 C 13.742188 -14.394531 14.742188 -14.117188 15.515625 -13.734375 C 16.296875 -13.347656 16.9375 -12.828125 17.4375 -12.171875 C 17.945312 -11.523438 18.398438 -10.734375 18.796875 -9.796875 C 19.203125 -8.867188 19.644531 -7.789062 20.125 -6.5625 C 20.757812 -4.957031 21.296875 -3.710938 21.734375 -2.828125 C 22.179688 -1.953125 22.585938 -1.332031 22.953125 -0.96875 C 23.328125 -0.613281 23.742188 -0.4375 24.203125 -0.4375 C 24.335938 -0.4375 24.453125 -0.4375 24.546875 -0.4375 C 24.640625 -0.4375 24.738281 -0.453125 24.84375 -0.484375 L 24.84375 0 C 24.550781 0.101562 24.171875 0.175781 23.703125 0.21875 C 23.234375 0.257812 22.800781 0.28125 22.40625 0.28125 Z M 6.921875 -15.046875 L 10.28125 -15.046875 C 12.570312 -15.046875 14.269531 -15.582031 15.375 -16.65625 C 16.488281 -17.738281 17.046875 -19.132812 17.046875 -20.84375 C 17.046875 -22.039062 16.769531 -23.128906 16.21875 -24.109375 C 15.675781 -25.097656 14.796875 -25.894531 13.578125 -26.5 C 12.367188 -27.101562 10.773438 -27.40625 8.796875 -27.40625 C 8.503906 -27.40625 8.195312 -27.394531 7.875 -27.375 C 7.5625 -27.363281 7.242188 -27.34375 6.921875 -27.3125 Z M 6.921875 -15.046875 "/></g></g><g style="fill:#ffffff;fill-opacity:1;"><g transform="translate(223.100888, 209.33236)"><path style="stroke:none" d="M 2.046875 0 L 2.046875 -0.515625 C 2.648438 -0.703125 3.066406 -1.101562 3.296875 -1.71875 C 3.523438 -2.332031 3.640625 -3.453125 3.640625 -5.078125 L 3.640625 -22.921875 C 3.640625 -24.578125 3.523438 -25.703125 3.296875 -26.296875 C 3.066406 -26.898438 2.648438 -27.296875 2.046875 -27.484375 L 2.046875 -28 L 11.59375 -28 C 14.34375 -28 16.691406 -27.601562 18.640625 -26.8125 C 20.585938 -26.03125 22.171875 -24.984375 23.390625 -23.671875 C 24.617188 -22.367188 25.519531 -20.921875 26.09375 -19.328125 C 26.664062 -17.742188 26.953125 -16.140625 26.953125 -14.515625 C 26.984375 -11.710938 26.40625 -9.21875 25.21875 -7.03125 C 24.03125 -4.851562 22.347656 -3.132812 20.171875 -1.875 C 18.003906 -0.625 15.453125 0 12.515625 0 Z M 6.921875 -3.515625 C 6.921875 -2.585938 7.078125 -1.867188 7.390625 -1.359375 C 7.710938 -0.847656 8.421875 -0.59375 9.515625 -0.59375 L 12.4375 -0.59375 C 15.9375 -0.59375 18.625 -1.597656 20.5 -3.609375 C 22.375 -5.628906 23.3125 -8.734375 23.3125 -12.921875 C 23.3125 -15.585938 22.789062 -18.015625 21.75 -20.203125 C 20.71875 -22.390625 19.1875 -24.132812 17.15625 -25.4375 C 15.132812 -26.75 12.628906 -27.40625 9.640625 -27.40625 L 6.921875 -27.40625 Z M 6.921875 -3.515625 "/></g></g><g style="fill:#ffffff;fill-opacity:1;"><g transform="translate(254.422103, 209.33236)"><path style="stroke:none" d="M 16.3125 0.40625 C 14.613281 0.40625 12.921875 0.117188 11.234375 -0.453125 C 9.554688 -1.023438 8.023438 -1.90625 6.640625 -3.09375 C 5.253906 -4.28125 4.144531 -5.78125 3.3125 -7.59375 C 2.488281 -9.40625 2.078125 -11.554688 2.078125 -14.046875 C 2.078125 -16.785156 2.675781 -19.226562 3.875 -21.375 C 5.082031 -23.519531 6.75 -25.210938 8.875 -26.453125 C 11.007812 -27.691406 13.488281 -28.3125 16.3125 -28.3125 C 18 -28.3125 19.679688 -28.019531 21.359375 -27.4375 C 23.035156 -26.851562 24.5625 -25.96875 25.9375 -24.78125 C 27.3125 -23.59375 28.410156 -22.09375 29.234375 -20.28125 C 30.066406 -18.46875 30.484375 -16.332031 30.484375 -13.875 C 30.484375 -11.394531 30.066406 -9.257812 29.234375 -7.46875 C 28.410156 -5.6875 27.304688 -4.207031 25.921875 -3.03125 C 24.535156 -1.863281 23.007812 -1 21.34375 -0.4375 C 19.675781 0.125 18 0.40625 16.3125 0.40625 Z M 5.28125 -16.359375 C 5.363281 -14.359375 5.726562 -12.414062 6.375 -10.53125 C 7.03125 -8.65625 7.925781 -6.96875 9.0625 -5.46875 C 10.195312 -3.976562 11.519531 -2.789062 13.03125 -1.90625 C 14.550781 -1.03125 16.207031 -0.59375 18 -0.59375 C 20.132812 -0.59375 21.90625 -1.0625 23.3125 -2 C 24.726562 -2.9375 25.773438 -4.207031 26.453125 -5.8125 C 27.140625 -7.425781 27.441406 -9.234375 27.359375 -11.234375 C 27.273438 -13.316406 26.90625 -15.320312 26.25 -17.25 C 25.601562 -19.1875 24.71875 -20.914062 23.59375 -22.4375 C 22.476562 -23.957031 21.160156 -25.164062 19.640625 -26.0625 C 18.117188 -26.957031 16.46875 -27.40625 14.6875 -27.40625 C 12.65625 -27.40625 10.925781 -26.9375 9.5 -26 C 8.070312 -25.0625 6.988281 -23.765625 6.25 -22.109375 C 5.519531 -20.460938 5.195312 -18.546875 5.28125 -16.359375 Z M 5.28125 -16.359375 "/></g></g><g clip-rule="nonzero" clip-path="url(#4650f4ce99)"><path style=" stroke:none;fill-rule:nonzero;fill:#7ad407;fill-opacity:1;" d="M 165.566406 140.5625 C 165.820312 140.5625 166.003906 140.558594 166.1875 140.5625 C 166.636719 140.566406 167.078125 140.617188 167.523438 140.671875 C 168.675781 140.804688 169.789062 141.089844 170.875 141.492188 C 172.285156 142.015625 173.585938 142.738281 174.777344 143.65625 C 175.523438 144.230469 176.210938 144.867188 176.832031 145.574219 C 177.667969 146.519531 178.371094 147.554688 178.945312 148.675781 C 179.351562 149.476562 179.6875 150.300781 179.945312 151.15625 C 180.117188 151.730469 180.265625 152.3125 180.359375 152.910156 C 180.429688 153.363281 180.484375 153.8125 180.527344 154.265625 C 180.589844 154.886719 180.597656 155.503906 180.574219 156.125 C 180.546875 156.71875 180.484375 157.308594 180.386719 157.898438 C 179.976562 160.429688 178.972656 162.703125 177.40625 164.730469 C 177.019531 165.226562 176.597656 165.695312 176.148438 166.144531 C 176.070312 166.21875 176.039062 166.191406 175.992188 166.125 C 175.824219 165.890625 175.828125 165.898438 176.027344 165.691406 C 177.40625 164.269531 178.476562 162.648438 179.195312 160.796875 C 179.421875 160.210938 179.621094 159.621094 179.769531 159.015625 C 179.882812 158.554688 179.980469 158.085938 180.042969 157.617188 C 180.121094 157.070312 180.171875 156.523438 180.191406 155.972656 C 180.199219 155.714844 180.222656 155.457031 180.207031 155.199219 C 180.175781 154.75 180.15625 154.296875 180.105469 153.847656 C 180.019531 153.132812 179.886719 152.433594 179.703125 151.738281 C 179.503906 150.980469 179.238281 150.242188 178.914062 149.527344 C 178.320312 148.210938 177.546875 147.003906 176.589844 145.917969 C 175.25 144.390625 173.664062 143.191406 171.828125 142.320312 C 171.039062 141.945312 170.222656 141.648438 169.382812 141.421875 C 168.800781 141.265625 168.210938 141.144531 167.613281 141.070312 C 167.207031 141.019531 166.800781 140.984375 166.390625 140.953125 C 165.949219 140.917969 165.507812 140.921875 165.066406 140.9375 C 164.675781 140.953125 164.285156 140.984375 163.898438 141.039062 C 163.488281 141.09375 163.082031 141.160156 162.679688 141.238281 C 162.042969 141.363281 161.417969 141.539062 160.804688 141.753906 C 159.9375 142.058594 159.109375 142.441406 158.316406 142.902344 C 158.277344 142.929688 158.253906 142.929688 158.210938 142.894531 C 157.980469 142.671875 157.980469 142.648438 158.257812 142.492188 C 159.363281 141.867188 160.535156 141.390625 161.761719 141.058594 C 162.339844 140.902344 162.929688 140.777344 163.527344 140.699219 C 163.894531 140.652344 164.257812 140.625 164.621094 140.585938 C 164.960938 140.546875 165.300781 140.582031 165.566406 140.5625 Z M 165.566406 140.5625 "/></g><path style=" stroke:none;fill-rule:nonzero;fill:#7ad407;fill-opacity:1;" d="M 179.109375 155.320312 C 179.105469 155.816406 179.125 156.183594 179.078125 156.550781 C 179.011719 157.105469 178.949219 157.660156 178.835938 158.210938 C 178.585938 159.410156 178.179688 160.550781 177.625 161.640625 C 177.128906 162.613281 176.519531 163.511719 175.800781 164.335938 C 174.804688 165.480469 173.648438 166.429688 172.332031 167.183594 C 171.472656 167.671875 170.574219 168.0625 169.625 168.355469 C 168.945312 168.566406 168.257812 168.734375 167.554688 168.832031 C 167.15625 168.886719 166.75 168.925781 166.34375 168.953125 C 165.945312 168.980469 165.542969 168.980469 165.144531 168.96875 C 164.574219 168.953125 164.011719 168.886719 163.445312 168.800781 C 162.914062 168.71875 162.390625 168.601562 161.875 168.457031 C 160.859375 168.167969 159.886719 167.761719 158.960938 167.242188 C 157.898438 166.648438 156.9375 165.917969 156.066406 165.066406 C 155.882812 164.886719 155.882812 164.894531 156.089844 164.738281 C 156.175781 164.671875 156.21875 164.691406 156.285156 164.757812 C 157.183594 165.65625 158.1875 166.410156 159.304688 167.023438 C 160.28125 167.554688 161.304688 167.960938 162.386719 168.226562 C 163.023438 168.386719 163.667969 168.515625 164.328125 168.558594 C 164.59375 168.578125 164.859375 168.597656 165.125 168.613281 C 165.332031 168.625 165.539062 168.644531 165.742188 168.632812 C 166.476562 168.601562 167.207031 168.550781 167.933594 168.417969 C 168.644531 168.285156 169.34375 168.105469 170.023438 167.863281 C 171.234375 167.425781 172.363281 166.824219 173.398438 166.058594 C 174.300781 165.394531 175.105469 164.625 175.816406 163.753906 C 176.472656 162.945312 177.027344 162.074219 177.480469 161.136719 C 177.816406 160.441406 178.082031 159.71875 178.292969 158.972656 C 178.464844 158.375 178.582031 157.769531 178.671875 157.15625 C 178.714844 156.855469 178.722656 156.546875 178.75 156.246094 C 178.78125 155.910156 178.78125 155.570312 178.773438 155.230469 C 178.761719 154.347656 178.65625 153.472656 178.46875 152.605469 C 178.257812 151.648438 177.9375 150.730469 177.527344 149.84375 C 177.375 149.511719 177.203125 149.1875 177.015625 148.871094 C 176.964844 148.78125 176.980469 148.738281 177.050781 148.6875 C 177.070312 148.675781 177.089844 148.664062 177.105469 148.644531 C 177.199219 148.542969 177.25 148.570312 177.316406 148.6875 C 177.898438 149.710938 178.347656 150.785156 178.65625 151.917969 C 178.8125 152.503906 178.9375 153.097656 179.007812 153.703125 C 179.074219 154.28125 179.128906 154.863281 179.109375 155.320312 Z M 179.109375 155.320312 "/><g clip-rule="nonzero" clip-path="url(#27f64fe9ba)"><path style=" stroke:none;fill-rule:nonzero;fill:#7ad407;fill-opacity:1;" d="M 150.949219 152.617188 C 151.042969 152.648438 151.132812 152.667969 151.207031 152.707031 C 151.339844 152.773438 151.308594 152.898438 151.289062 153.011719 C 151.199219 153.464844 151.148438 153.921875 151.113281 154.378906 C 151.078125 154.832031 151.050781 155.277344 151.0625 155.730469 C 151.078125 156.214844 151.117188 156.699219 151.167969 157.179688 C 151.242188 157.859375 151.375 158.527344 151.542969 159.191406 C 151.800781 160.195312 152.175781 161.160156 152.648438 162.085938 C 153.378906 163.519531 154.320312 164.796875 155.472656 165.917969 C 156.40625 166.832031 157.445312 167.605469 158.585938 168.238281 C 159.457031 168.71875 160.363281 169.113281 161.316406 169.40625 C 161.941406 169.597656 162.570312 169.753906 163.214844 169.855469 C 163.273438 169.867188 163.335938 169.875 163.394531 169.886719 C 163.488281 169.902344 163.574219 169.929688 163.628906 170.03125 C 163.679688 170.132812 163.761719 170.21875 163.816406 170.332031 C 159.546875 169.734375 156.066406 167.777344 153.53125 164.269531 C 151.003906 160.769531 150.21875 156.859375 150.949219 152.617188 Z M 150.949219 152.617188 "/></g><path style=" stroke:none;fill-rule:nonzero;fill:#7ad407;fill-opacity:1;" d="M 168.402344 142.203125 C 168.261719 142.300781 168.148438 142.371094 168.050781 142.453125 C 167.980469 142.507812 167.921875 142.46875 167.863281 142.457031 C 167.445312 142.386719 167.03125 142.34375 166.609375 142.308594 C 166.183594 142.273438 165.757812 142.246094 165.332031 142.261719 C 164.785156 142.28125 164.238281 142.324219 163.695312 142.40625 C 163.054688 142.496094 162.421875 142.636719 161.800781 142.824219 C 160.066406 143.347656 158.511719 144.199219 157.125 145.359375 C 155.839844 146.433594 154.804688 147.710938 154.003906 149.179688 C 153.46875 150.152344 153.0625 151.179688 152.8125 152.265625 C 152.78125 152.394531 152.722656 152.421875 152.617188 152.382812 C 152.558594 152.359375 152.496094 152.375 152.410156 152.351562 C 153.347656 148.667969 155.386719 145.785156 158.65625 143.832031 C 161.667969 142.035156 164.921875 141.535156 168.402344 142.203125 Z M 168.402344 142.203125 "/><g style="fill:#ffffff;fill-opacity:1;"><g transform="translate(54.374319, 232.989706)"><path style="stroke:none" d="M 1.9375 0 L 1.453125 0 C 1.242188 0 1.140625 -0.109375 1.140625 -0.328125 L 1.140625 -8.015625 C 1.140625 -8.222656 1.242188 -8.328125 1.453125 -8.328125 L 6.296875 -8.328125 C 6.503906 -8.328125 6.609375 -8.222656 6.609375 -8.015625 L 6.609375 -7.71875 C 6.609375 -7.507812 6.503906 -7.40625 6.296875 -7.40625 L 2.25 -7.40625 L 2.25 -4.5625 L 5.296875 -4.5625 C 5.503906 -4.5625 5.609375 -4.457031 5.609375 -4.25 L 5.609375 -4.015625 C 5.609375 -3.796875 5.503906 -3.6875 5.296875 -3.6875 L 2.25 -3.6875 L 2.25 -0.328125 C 2.25 -0.109375 2.144531 0 1.9375 0 Z M 1.9375 0 "/></g></g><g style="fill:#ffffff;fill-opacity:1;"><g transform="translate(63.616194, 232.989706)"><path style="stroke:none" d="M 1.9375 0 L 1.453125 0 C 1.242188 0 1.140625 -0.109375 1.140625 -0.328125 L 1.140625 -8.015625 C 1.140625 -8.222656 1.242188 -8.328125 1.453125 -8.328125 L 1.9375 -8.328125 C 2.144531 -8.328125 2.25 -8.222656 2.25 -8.015625 L 2.25 -0.328125 C 2.25 -0.109375 2.144531 0 1.9375 0 Z M 1.9375 0 "/></g></g><g style="fill:#ffffff;fill-opacity:1;"><g transform="translate(69.438951, 232.989706)"><path style="stroke:none" d="M 3.609375 0.15625 C 2.984375 0.15625 2.394531 0.0390625 1.84375 -0.1875 C 1.300781 -0.414062 0.863281 -0.738281 0.53125 -1.15625 C 0.363281 -1.320312 0.347656 -1.484375 0.484375 -1.640625 L 0.71875 -1.90625 C 0.863281 -2.050781 1.015625 -2.050781 1.171875 -1.90625 C 1.421875 -1.5625 1.765625 -1.289062 2.203125 -1.09375 C 2.640625 -0.894531 3.082031 -0.796875 3.53125 -0.796875 C 4.0625 -0.796875 4.492188 -0.925781 4.828125 -1.1875 C 5.160156 -1.457031 5.328125 -1.789062 5.328125 -2.1875 C 5.328125 -2.53125 5.222656 -2.796875 5.015625 -2.984375 C 4.816406 -3.179688 4.550781 -3.34375 4.21875 -3.46875 C 3.894531 -3.601562 3.5625 -3.734375 3.21875 -3.859375 C 2.820312 -4.003906 2.441406 -4.171875 2.078125 -4.359375 C 1.722656 -4.554688 1.429688 -4.804688 1.203125 -5.109375 C 0.972656 -5.410156 0.859375 -5.789062 0.859375 -6.25 C 0.859375 -6.6875 0.972656 -7.070312 1.203125 -7.40625 C 1.429688 -7.738281 1.753906 -8 2.171875 -8.1875 C 2.585938 -8.382812 3.066406 -8.484375 3.609375 -8.484375 C 4.078125 -8.484375 4.523438 -8.40625 4.953125 -8.25 C 5.378906 -8.09375 5.75 -7.851562 6.0625 -7.53125 C 6.25 -7.363281 6.269531 -7.207031 6.125 -7.0625 L 5.921875 -6.8125 C 5.773438 -6.65625 5.613281 -6.65625 5.4375 -6.8125 C 4.945312 -7.320312 4.34375 -7.578125 3.625 -7.578125 C 3.132812 -7.578125 2.742188 -7.453125 2.453125 -7.203125 C 2.160156 -6.960938 2.015625 -6.660156 2.015625 -6.296875 C 2.015625 -5.921875 2.171875 -5.617188 2.484375 -5.390625 C 2.796875 -5.171875 3.171875 -4.976562 3.609375 -4.8125 C 3.953125 -4.675781 4.289062 -4.539062 4.625 -4.40625 C 4.96875 -4.28125 5.273438 -4.125 5.546875 -3.9375 C 5.828125 -3.757812 6.050781 -3.53125 6.21875 -3.25 C 6.394531 -2.96875 6.484375 -2.625 6.484375 -2.21875 C 6.484375 -1.726562 6.351562 -1.304688 6.09375 -0.953125 C 5.84375 -0.597656 5.5 -0.320312 5.0625 -0.125 C 4.632812 0.0625 4.148438 0.15625 3.609375 0.15625 Z M 3.609375 0.15625 "/></g></g><g style="fill:#ffffff;fill-opacity:1;"><g transform="translate(78.78327, 232.989706)"><path style="stroke:none" d="M 1.9375 0 L 1.453125 0 C 1.242188 0 1.140625 -0.109375 1.140625 -0.328125 L 1.140625 -8.015625 C 1.140625 -8.222656 1.242188 -8.328125 1.453125 -8.328125 L 1.9375 -8.328125 C 2.144531 -8.328125 2.25 -8.222656 2.25 -8.015625 L 2.25 -0.328125 C 2.25 -0.109375 2.144531 0 1.9375 0 Z M 1.9375 0 "/></g></g><g style="fill:#ffffff;fill-opacity:1;"><g transform="translate(84.606028, 232.989706)"><path style="stroke:none" d="M 5.046875 0.15625 C 4.398438 0.15625 3.800781 0.046875 3.25 -0.171875 C 2.707031 -0.390625 2.234375 -0.691406 1.828125 -1.078125 C 1.429688 -1.472656 1.117188 -1.929688 0.890625 -2.453125 C 0.671875 -2.984375 0.5625 -3.554688 0.5625 -4.171875 C 0.5625 -4.785156 0.671875 -5.351562 0.890625 -5.875 C 1.117188 -6.394531 1.429688 -6.847656 1.828125 -7.234375 C 2.234375 -7.628906 2.707031 -7.9375 3.25 -8.15625 C 3.800781 -8.375 4.398438 -8.484375 5.046875 -8.484375 C 5.691406 -8.484375 6.285156 -8.375 6.828125 -8.15625 C 7.378906 -7.9375 7.859375 -7.628906 8.265625 -7.234375 C 8.671875 -6.847656 8.984375 -6.394531 9.203125 -5.875 C 9.429688 -5.351562 9.546875 -4.785156 9.546875 -4.171875 C 9.546875 -3.554688 9.429688 -2.984375 9.203125 -2.453125 C 8.984375 -1.929688 8.671875 -1.472656 8.265625 -1.078125 C 7.859375 -0.691406 7.378906 -0.390625 6.828125 -0.171875 C 6.285156 0.046875 5.691406 0.15625 5.046875 0.15625 Z M 5.046875 -0.859375 C 5.679688 -0.859375 6.25 -1.003906 6.75 -1.296875 C 7.257812 -1.597656 7.660156 -1.992188 7.953125 -2.484375 C 8.242188 -2.984375 8.390625 -3.546875 8.390625 -4.171875 C 8.390625 -4.785156 8.242188 -5.335938 7.953125 -5.828125 C 7.660156 -6.328125 7.257812 -6.722656 6.75 -7.015625 C 6.25 -7.316406 5.679688 -7.46875 5.046875 -7.46875 C 4.410156 -7.46875 3.84375 -7.316406 3.34375 -7.015625 C 2.84375 -6.722656 2.441406 -6.328125 2.140625 -5.828125 C 1.847656 -5.335938 1.703125 -4.785156 1.703125 -4.171875 C 1.703125 -3.546875 1.847656 -2.984375 2.140625 -2.484375 C 2.441406 -1.992188 2.84375 -1.597656 3.34375 -1.296875 C 3.84375 -1.003906 4.410156 -0.859375 5.046875 -0.859375 Z M 5.046875 -0.859375 "/></g></g><g style="fill:#ffffff;fill-opacity:1;"><g transform="translate(97.138961, 232.989706)"><path style="stroke:none" d="M 3.78125 0 L 3.3125 0 C 3.09375 0 2.984375 -0.109375 2.984375 -0.328125 L 2.984375 -7.40625 L 0.515625 -7.40625 C 0.285156 -7.40625 0.171875 -7.507812 0.171875 -7.71875 L 0.171875 -8.015625 C 0.171875 -8.222656 0.285156 -8.328125 0.515625 -8.328125 L 6.625 -8.328125 C 6.832031 -8.328125 6.9375 -8.222656 6.9375 -8.015625 L 6.9375 -7.71875 C 6.9375 -7.507812 6.832031 -7.40625 6.625 -7.40625 L 4.109375 -7.40625 L 4.109375 -0.328125 C 4.109375 -0.109375 4 0 3.78125 0 Z M 3.78125 0 "/></g></g><g style="fill:#ffffff;fill-opacity:1;"><g transform="translate(106.688168, 232.989706)"><path style="stroke:none" d="M 6.453125 0 L 1.453125 0 C 1.242188 0 1.140625 -0.101562 1.140625 -0.3125 L 1.140625 -8.015625 C 1.140625 -8.222656 1.242188 -8.328125 1.453125 -8.328125 L 6.4375 -8.328125 C 6.65625 -8.328125 6.765625 -8.222656 6.765625 -8.015625 L 6.765625 -7.71875 C 6.765625 -7.507812 6.65625 -7.40625 6.4375 -7.40625 L 2.25 -7.40625 L 2.25 -4.640625 L 5.46875 -4.640625 C 5.6875 -4.640625 5.796875 -4.53125 5.796875 -4.3125 L 5.796875 -4.078125 C 5.796875 -3.859375 5.6875 -3.75 5.46875 -3.75 L 2.25 -3.75 L 2.25 -0.921875 L 6.453125 -0.921875 C 6.679688 -0.921875 6.796875 -0.816406 6.796875 -0.609375 L 6.796875 -0.328125 C 6.796875 -0.109375 6.679688 0 6.453125 0 Z M 6.453125 0 "/></g></g><g style="fill:#ffffff;fill-opacity:1;"><g transform="translate(116.378235, 232.989706)"><path style="stroke:none" d="M 5.75 -3.6875 L 7.609375 -0.34375 C 7.679688 -0.238281 7.691406 -0.15625 7.640625 -0.09375 C 7.597656 -0.03125 7.519531 0 7.40625 0 L 6.796875 0 C 6.679688 0 6.597656 -0.0234375 6.546875 -0.078125 C 6.503906 -0.128906 6.453125 -0.207031 6.390625 -0.3125 L 4.6875 -3.46875 C 4.625 -3.457031 4.566406 -3.453125 4.515625 -3.453125 C 4.460938 -3.453125 4.40625 -3.453125 4.34375 -3.453125 L 2.25 -3.453125 L 2.25 -0.328125 C 2.25 -0.109375 2.144531 0 1.9375 0 L 1.453125 0 C 1.242188 0 1.140625 -0.109375 1.140625 -0.328125 L 1.140625 -8.015625 C 1.140625 -8.222656 1.242188 -8.328125 1.453125 -8.328125 L 4.296875 -8.328125 C 5.191406 -8.328125 5.890625 -8.101562 6.390625 -7.65625 C 6.898438 -7.21875 7.15625 -6.625 7.15625 -5.875 C 7.15625 -5.300781 7.035156 -4.835938 6.796875 -4.484375 C 6.554688 -4.128906 6.207031 -3.863281 5.75 -3.6875 Z M 2.25 -7.40625 L 2.25 -4.234375 L 4.34375 -4.234375 C 4.875 -4.234375 5.285156 -4.375 5.578125 -4.65625 C 5.867188 -4.945312 6.015625 -5.332031 6.015625 -5.8125 C 6.015625 -6.289062 5.847656 -6.675781 5.515625 -6.96875 C 5.191406 -7.257812 4.769531 -7.40625 4.25 -7.40625 Z M 2.25 -7.40625 "/></g></g><g style="fill:#ffffff;fill-opacity:1;"><g transform="translate(126.862263, 232.989706)"><path style="stroke:none" d="M 0.3125 -0.34375 L 3.734375 -8.078125 C 3.796875 -8.203125 3.859375 -8.285156 3.921875 -8.328125 C 3.984375 -8.367188 4.0625 -8.390625 4.15625 -8.390625 L 4.4375 -8.390625 C 4.53125 -8.390625 4.601562 -8.367188 4.65625 -8.328125 C 4.707031 -8.285156 4.765625 -8.203125 4.828125 -8.078125 L 8.28125 -0.34375 C 8.320312 -0.238281 8.320312 -0.15625 8.28125 -0.09375 C 8.238281 -0.03125 8.160156 0 8.046875 0 L 7.421875 0 C 7.304688 0 7.226562 -0.0234375 7.1875 -0.078125 C 7.15625 -0.128906 7.117188 -0.210938 7.078125 -0.328125 L 6.28125 -2.140625 L 2.25 -2.109375 L 1.453125 -0.328125 C 1.421875 -0.210938 1.382812 -0.128906 1.34375 -0.078125 C 1.300781 -0.0234375 1.222656 0 1.109375 0 L 0.53125 0 C 0.425781 0 0.347656 -0.03125 0.296875 -0.09375 C 0.253906 -0.15625 0.257812 -0.238281 0.3125 -0.34375 Z M 4.265625 -6.890625 L 2.5625 -2.921875 L 6 -2.921875 L 4.3125 -6.890625 Z M 4.265625 -6.890625 "/></g></g><g style="fill:#ffffff;fill-opacity:1;"><g transform="translate(137.858512, 232.989706)"><path style="stroke:none" d="M 1.9375 0 L 1.453125 0 C 1.242188 0 1.140625 -0.109375 1.140625 -0.328125 L 1.140625 -8.015625 C 1.140625 -8.222656 1.242188 -8.328125 1.453125 -8.328125 L 4.359375 -8.328125 C 5.265625 -8.328125 5.96875 -8.09375 6.46875 -7.625 C 6.96875 -7.164062 7.21875 -6.550781 7.21875 -5.78125 C 7.21875 -5 6.96875 -4.375 6.46875 -3.90625 C 5.96875 -3.445312 5.265625 -3.21875 4.359375 -3.21875 L 2.25 -3.21875 L 2.25 -0.328125 C 2.25 -0.109375 2.144531 0 1.9375 0 Z M 2.25 -4.09375 L 4.328125 -4.09375 C 4.847656 -4.09375 5.269531 -4.242188 5.59375 -4.546875 C 5.914062 -4.847656 6.078125 -5.25 6.078125 -5.75 C 6.078125 -6.257812 5.914062 -6.660156 5.59375 -6.953125 C 5.269531 -7.253906 4.847656 -7.40625 4.328125 -7.40625 L 2.25 -7.40625 Z M 2.25 -4.09375 "/></g></g><g style="fill:#ffffff;fill-opacity:1;"><g transform="translate(147.894337, 232.989706)"><path style="stroke:none" d="M 1.9375 0 L 1.453125 0 C 1.242188 0 1.140625 -0.109375 1.140625 -0.328125 L 1.140625 -8.015625 C 1.140625 -8.222656 1.242188 -8.328125 1.453125 -8.328125 L 1.9375 -8.328125 C 2.144531 -8.328125 2.25 -8.222656 2.25 -8.015625 L 2.25 -0.328125 C 2.25 -0.109375 2.144531 0 1.9375 0 Z M 1.9375 0 "/></g></g><g style="fill:#ffffff;fill-opacity:1;"><g transform="translate(153.717094, 232.989706)"><path style="stroke:none" d="M 0.3125 -0.34375 L 3.734375 -8.078125 C 3.796875 -8.203125 3.859375 -8.285156 3.921875 -8.328125 C 3.984375 -8.367188 4.0625 -8.390625 4.15625 -8.390625 L 4.4375 -8.390625 C 4.53125 -8.390625 4.601562 -8.367188 4.65625 -8.328125 C 4.707031 -8.285156 4.765625 -8.203125 4.828125 -8.078125 L 8.28125 -0.34375 C 8.320312 -0.238281 8.320312 -0.15625 8.28125 -0.09375 C 8.238281 -0.03125 8.160156 0 8.046875 0 L 7.421875 0 C 7.304688 0 7.226562 -0.0234375 7.1875 -0.078125 C 7.15625 -0.128906 7.117188 -0.210938 7.078125 -0.328125 L 6.28125 -2.140625 L 2.25 -2.109375 L 1.453125 -0.328125 C 1.421875 -0.210938 1.382812 -0.128906 1.34375 -0.078125 C 1.300781 -0.0234375 1.222656 0 1.109375 0 L 0.53125 0 C 0.425781 0 0.347656 -0.03125 0.296875 -0.09375 C 0.253906 -0.15625 0.257812 -0.238281 0.3125 -0.34375 Z M 4.265625 -6.890625 L 2.5625 -2.921875 L 6 -2.921875 L 4.3125 -6.890625 Z M 4.265625 -6.890625 "/></g></g><g style="fill:#ffffff;fill-opacity:1;"><g transform="translate(164.713343, 232.989706)"><path style="stroke:none" d=""/></g></g><g style="fill:#ffffff;fill-opacity:1;"><g transform="translate(170.24157, 232.989706)"><path style="stroke:none" d="M 6.453125 0 L 1.453125 0 C 1.242188 0 1.140625 -0.101562 1.140625 -0.3125 L 1.140625 -8.015625 C 1.140625 -8.222656 1.242188 -8.328125 1.453125 -8.328125 L 6.4375 -8.328125 C 6.65625 -8.328125 6.765625 -8.222656 6.765625 -8.015625 L 6.765625 -7.71875 C 6.765625 -7.507812 6.65625 -7.40625 6.4375 -7.40625 L 2.25 -7.40625 L 2.25 -4.640625 L 5.46875 -4.640625 C 5.6875 -4.640625 5.796875 -4.53125 5.796875 -4.3125 L 5.796875 -4.078125 C 5.796875 -3.859375 5.6875 -3.75 5.46875 -3.75 L 2.25 -3.75 L 2.25 -0.921875 L 6.453125 -0.921875 C 6.679688 -0.921875 6.796875 -0.816406 6.796875 -0.609375 L 6.796875 -0.328125 C 6.796875 -0.109375 6.679688 0 6.453125 0 Z M 6.453125 0 "/></g></g><g style="fill:#ffffff;fill-opacity:1;"><g transform="translate(179.931636, 232.989706)"><path style="stroke:none" d="M 3.609375 0.15625 C 2.984375 0.15625 2.394531 0.0390625 1.84375 -0.1875 C 1.300781 -0.414062 0.863281 -0.738281 0.53125 -1.15625 C 0.363281 -1.320312 0.347656 -1.484375 0.484375 -1.640625 L 0.71875 -1.90625 C 0.863281 -2.050781 1.015625 -2.050781 1.171875 -1.90625 C 1.421875 -1.5625 1.765625 -1.289062 2.203125 -1.09375 C 2.640625 -0.894531 3.082031 -0.796875 3.53125 -0.796875 C 4.0625 -0.796875 4.492188 -0.925781 4.828125 -1.1875 C 5.160156 -1.457031 5.328125 -1.789062 5.328125 -2.1875 C 5.328125 -2.53125 5.222656 -2.796875 5.015625 -2.984375 C 4.816406 -3.179688 4.550781 -3.34375 4.21875 -3.46875 C 3.894531 -3.601562 3.5625 -3.734375 3.21875 -3.859375 C 2.820312 -4.003906 2.441406 -4.171875 2.078125 -4.359375 C 1.722656 -4.554688 1.429688 -4.804688 1.203125 -5.109375 C 0.972656 -5.410156 0.859375 -5.789062 0.859375 -6.25 C 0.859375 -6.6875 0.972656 -7.070312 1.203125 -7.40625 C 1.429688 -7.738281 1.753906 -8 2.171875 -8.1875 C 2.585938 -8.382812 3.066406 -8.484375 3.609375 -8.484375 C 4.078125 -8.484375 4.523438 -8.40625 4.953125 -8.25 C 5.378906 -8.09375 5.75 -7.851562 6.0625 -7.53125 C 6.25 -7.363281 6.269531 -7.207031 6.125 -7.0625 L 5.921875 -6.8125 C 5.773438 -6.65625 5.613281 -6.65625 5.4375 -6.8125 C 4.945312 -7.320312 4.34375 -7.578125 3.625 -7.578125 C 3.132812 -7.578125 2.742188 -7.453125 2.453125 -7.203125 C 2.160156 -6.960938 2.015625 -6.660156 2.015625 -6.296875 C 2.015625 -5.921875 2.171875 -5.617188 2.484375 -5.390625 C 2.796875 -5.171875 3.171875 -4.976562 3.609375 -4.8125 C 3.953125 -4.675781 4.289062 -4.539062 4.625 -4.40625 C 4.96875 -4.28125 5.273438 -4.125 5.546875 -3.9375 C 5.828125 -3.757812 6.050781 -3.53125 6.21875 -3.25 C 6.394531 -2.96875 6.484375 -2.625 6.484375 -2.21875 C 6.484375 -1.726562 6.351562 -1.304688 6.09375 -0.953125 C 5.84375 -0.597656 5.5 -0.320312 5.0625 -0.125 C 4.632812 0.0625 4.148438 0.15625 3.609375 0.15625 Z M 3.609375 0.15625 "/></g></g><g style="fill:#ffffff;fill-opacity:1;"><g transform="translate(189.275955, 232.989706)"><path style="stroke:none" d="M 1.9375 0 L 1.453125 0 C 1.242188 0 1.140625 -0.109375 1.140625 -0.328125 L 1.140625 -8.015625 C 1.140625 -8.222656 1.242188 -8.328125 1.453125 -8.328125 L 4.359375 -8.328125 C 5.265625 -8.328125 5.96875 -8.09375 6.46875 -7.625 C 6.96875 -7.164062 7.21875 -6.550781 7.21875 -5.78125 C 7.21875 -5 6.96875 -4.375 6.46875 -3.90625 C 5.96875 -3.445312 5.265625 -3.21875 4.359375 -3.21875 L 2.25 -3.21875 L 2.25 -0.328125 C 2.25 -0.109375 2.144531 0 1.9375 0 Z M 2.25 -4.09375 L 4.328125 -4.09375 C 4.847656 -4.09375 5.269531 -4.242188 5.59375 -4.546875 C 5.914062 -4.847656 6.078125 -5.25 6.078125 -5.75 C 6.078125 -6.257812 5.914062 -6.660156 5.59375 -6.953125 C 5.269531 -7.253906 4.847656 -7.40625 4.328125 -7.40625 L 2.25 -7.40625 Z M 2.25 -4.09375 "/></g></g><g style="fill:#ffffff;fill-opacity:1;"><g transform="translate(199.31178, 232.989706)"><path style="stroke:none" d="M 6.453125 0 L 1.453125 0 C 1.242188 0 1.140625 -0.101562 1.140625 -0.3125 L 1.140625 -8.015625 C 1.140625 -8.222656 1.242188 -8.328125 1.453125 -8.328125 L 6.4375 -8.328125 C 6.65625 -8.328125 6.765625 -8.222656 6.765625 -8.015625 L 6.765625 -7.71875 C 6.765625 -7.507812 6.65625 -7.40625 6.4375 -7.40625 L 2.25 -7.40625 L 2.25 -4.640625 L 5.46875 -4.640625 C 5.6875 -4.640625 5.796875 -4.53125 5.796875 -4.3125 L 5.796875 -4.078125 C 5.796875 -3.859375 5.6875 -3.75 5.46875 -3.75 L 2.25 -3.75 L 2.25 -0.921875 L 6.453125 -0.921875 C 6.679688 -0.921875 6.796875 -0.816406 6.796875 -0.609375 L 6.796875 -0.328125 C 6.796875 -0.109375 6.679688 0 6.453125 0 Z M 6.453125 0 "/></g></g><g style="fill:#ffffff;fill-opacity:1;"><g transform="translate(209.001847, 232.989706)"><path style="stroke:none" d="M 5.03125 0.15625 C 4.394531 0.15625 3.804688 0.046875 3.265625 -0.171875 C 2.722656 -0.390625 2.25 -0.691406 1.84375 -1.078125 C 1.4375 -1.472656 1.117188 -1.929688 0.890625 -2.453125 C 0.671875 -2.984375 0.5625 -3.554688 0.5625 -4.171875 C 0.5625 -4.785156 0.671875 -5.351562 0.890625 -5.875 C 1.117188 -6.394531 1.429688 -6.847656 1.828125 -7.234375 C 2.234375 -7.628906 2.707031 -7.9375 3.25 -8.15625 C 3.800781 -8.375 4.398438 -8.484375 5.046875 -8.484375 C 5.703125 -8.484375 6.3125 -8.359375 6.875 -8.109375 C 7.4375 -7.859375 7.910156 -7.515625 8.296875 -7.078125 C 8.367188 -7.015625 8.40625 -6.941406 8.40625 -6.859375 C 8.414062 -6.773438 8.378906 -6.695312 8.296875 -6.625 L 7.984375 -6.359375 C 7.835938 -6.242188 7.679688 -6.253906 7.515625 -6.390625 C 7.234375 -6.710938 6.875 -6.972656 6.4375 -7.171875 C 6 -7.367188 5.523438 -7.46875 5.015625 -7.46875 C 4.398438 -7.46875 3.84375 -7.316406 3.34375 -7.015625 C 2.84375 -6.722656 2.441406 -6.328125 2.140625 -5.828125 C 1.847656 -5.335938 1.703125 -4.785156 1.703125 -4.171875 C 1.703125 -3.546875 1.847656 -2.984375 2.140625 -2.484375 C 2.441406 -1.992188 2.84375 -1.597656 3.34375 -1.296875 C 3.84375 -1.003906 4.398438 -0.859375 5.015625 -0.859375 C 5.523438 -0.859375 6 -0.957031 6.4375 -1.15625 C 6.875 -1.351562 7.234375 -1.613281 7.515625 -1.9375 C 7.679688 -2.082031 7.835938 -2.09375 7.984375 -1.96875 L 8.296875 -1.703125 C 8.378906 -1.640625 8.414062 -1.5625 8.40625 -1.46875 C 8.40625 -1.382812 8.367188 -1.3125 8.296875 -1.25 C 7.910156 -0.8125 7.429688 -0.46875 6.859375 -0.21875 C 6.296875 0.03125 5.6875 0.15625 5.03125 0.15625 Z M 5.03125 0.15625 "/></g></g><g style="fill:#ffffff;fill-opacity:1;"><g transform="translate(220.254212, 232.989706)"><path style="stroke:none" d="M 1.9375 0 L 1.453125 0 C 1.242188 0 1.140625 -0.109375 1.140625 -0.328125 L 1.140625 -8.015625 C 1.140625 -8.222656 1.242188 -8.328125 1.453125 -8.328125 L 1.9375 -8.328125 C 2.144531 -8.328125 2.25 -8.222656 2.25 -8.015625 L 2.25 -0.328125 C 2.25 -0.109375 2.144531 0 1.9375 0 Z M 1.9375 0 "/></g></g><g style="fill:#ffffff;fill-opacity:1;"><g transform="translate(226.076969, 232.989706)"><path style="stroke:none" d="M 0.3125 -0.34375 L 3.734375 -8.078125 C 3.796875 -8.203125 3.859375 -8.285156 3.921875 -8.328125 C 3.984375 -8.367188 4.0625 -8.390625 4.15625 -8.390625 L 4.4375 -8.390625 C 4.53125 -8.390625 4.601562 -8.367188 4.65625 -8.328125 C 4.707031 -8.285156 4.765625 -8.203125 4.828125 -8.078125 L 8.28125 -0.34375 C 8.320312 -0.238281 8.320312 -0.15625 8.28125 -0.09375 C 8.238281 -0.03125 8.160156 0 8.046875 0 L 7.421875 0 C 7.304688 0 7.226562 -0.0234375 7.1875 -0.078125 C 7.15625 -0.128906 7.117188 -0.210938 7.078125 -0.328125 L 6.28125 -2.140625 L 2.25 -2.109375 L 1.453125 -0.328125 C 1.421875 -0.210938 1.382812 -0.128906 1.34375 -0.078125 C 1.300781 -0.0234375 1.222656 0 1.109375 0 L 0.53125 0 C 0.425781 0 0.347656 -0.03125 0.296875 -0.09375 C 0.253906 -0.15625 0.257812 -0.238281 0.3125 -0.34375 Z M 4.265625 -6.890625 L 2.5625 -2.921875 L 6 -2.921875 L 4.3125 -6.890625 Z M 4.265625 -6.890625 "/></g></g><g style="fill:#ffffff;fill-opacity:1;"><g transform="translate(237.073218, 232.989706)"><path style="stroke:none" d="M 5.921875 0 L 1.453125 0 C 1.242188 0 1.140625 -0.109375 1.140625 -0.328125 L 1.140625 -8.015625 C 1.140625 -8.222656 1.242188 -8.328125 1.453125 -8.328125 L 1.9375 -8.328125 C 2.144531 -8.328125 2.25 -8.222656 2.25 -8.015625 L 2.25 -0.921875 L 5.921875 -0.921875 C 6.128906 -0.921875 6.234375 -0.816406 6.234375 -0.609375 L 6.234375 -0.3125 C 6.234375 -0.101562 6.128906 0 5.921875 0 Z M 5.921875 0 "/></g></g><g style="fill:#ffffff;fill-opacity:1;"><g transform="translate(245.956533, 232.989706)"><path style="stroke:none" d="M 1.9375 0 L 1.453125 0 C 1.242188 0 1.140625 -0.109375 1.140625 -0.328125 L 1.140625 -8.015625 C 1.140625 -8.222656 1.242188 -8.328125 1.453125 -8.328125 L 1.9375 -8.328125 C 2.144531 -8.328125 2.25 -8.222656 2.25 -8.015625 L 2.25 -0.328125 C 2.25 -0.109375 2.144531 0 1.9375 0 Z M 1.9375 0 "/></g></g><g style="fill:#ffffff;fill-opacity:1;"><g transform="translate(251.77929, 232.989706)"><path style="stroke:none" d="M 1.75 -0.90625 L 6.53125 -0.90625 C 6.757812 -0.90625 6.875 -0.804688 6.875 -0.609375 L 6.875 -0.3125 C 6.875 -0.101562 6.757812 0 6.53125 0 L 0.671875 0 C 0.441406 0 0.328125 -0.101562 0.328125 -0.3125 L 0.328125 -0.671875 C 0.328125 -0.765625 0.351562 -0.847656 0.40625 -0.921875 C 0.457031 -0.992188 0.507812 -1.066406 0.5625 -1.140625 L 5.234375 -7.421875 L 0.875 -7.421875 C 0.65625 -7.421875 0.546875 -7.519531 0.546875 -7.71875 L 0.546875 -8.015625 C 0.546875 -8.222656 0.65625 -8.328125 0.875 -8.328125 L 6.3125 -8.328125 C 6.53125 -8.328125 6.640625 -8.222656 6.640625 -8.015625 L 6.640625 -7.65625 C 6.640625 -7.5625 6.613281 -7.476562 6.5625 -7.40625 C 6.507812 -7.332031 6.457031 -7.265625 6.40625 -7.203125 Z M 1.75 -0.90625 "/></g></g><g style="fill:#ffffff;fill-opacity:1;"><g transform="translate(261.328497, 232.989706)"><path style="stroke:none" d="M 0.3125 -0.34375 L 3.734375 -8.078125 C 3.796875 -8.203125 3.859375 -8.285156 3.921875 -8.328125 C 3.984375 -8.367188 4.0625 -8.390625 4.15625 -8.390625 L 4.4375 -8.390625 C 4.53125 -8.390625 4.601562 -8.367188 4.65625 -8.328125 C 4.707031 -8.285156 4.765625 -8.203125 4.828125 -8.078125 L 8.28125 -0.34375 C 8.320312 -0.238281 8.320312 -0.15625 8.28125 -0.09375 C 8.238281 -0.03125 8.160156 0 8.046875 0 L 7.421875 0 C 7.304688 0 7.226562 -0.0234375 7.1875 -0.078125 C 7.15625 -0.128906 7.117188 -0.210938 7.078125 -0.328125 L 6.28125 -2.140625 L 2.25 -2.109375 L 1.453125 -0.328125 C 1.421875 -0.210938 1.382812 -0.128906 1.34375 -0.078125 C 1.300781 -0.0234375 1.222656 0 1.109375 0 L 0.53125 0 C 0.425781 0 0.347656 -0.03125 0.296875 -0.09375 C 0.253906 -0.15625 0.257812 -0.238281 0.3125 -0.34375 Z M 4.265625 -6.890625 L 2.5625 -2.921875 L 6 -2.921875 L 4.3125 -6.890625 Z M 4.265625 -6.890625 "/></g></g><g style="fill:#ffffff;fill-opacity:1;"><g transform="translate(272.324736, 232.989706)"><path style="stroke:none" d="M 4.40625 0 L 1.453125 0 C 1.242188 0 1.140625 -0.101562 1.140625 -0.3125 L 1.140625 -8.015625 C 1.140625 -8.222656 1.242188 -8.328125 1.453125 -8.328125 L 4.40625 -8.328125 C 5.300781 -8.328125 6.066406 -8.148438 6.703125 -7.796875 C 7.347656 -7.453125 7.84375 -6.96875 8.1875 -6.34375 C 8.53125 -5.71875 8.703125 -4.992188 8.703125 -4.171875 C 8.703125 -3.335938 8.53125 -2.609375 8.1875 -1.984375 C 7.84375 -1.359375 7.347656 -0.867188 6.703125 -0.515625 C 6.066406 -0.171875 5.300781 0 4.40625 0 Z M 2.25 -0.921875 L 4.375 -0.921875 C 5.03125 -0.921875 5.597656 -1.050781 6.078125 -1.3125 C 6.554688 -1.582031 6.921875 -1.957031 7.171875 -2.4375 C 7.429688 -2.925781 7.5625 -3.503906 7.5625 -4.171875 C 7.5625 -4.828125 7.429688 -5.394531 7.171875 -5.875 C 6.921875 -6.363281 6.554688 -6.738281 6.078125 -7 C 5.597656 -7.269531 5.03125 -7.40625 4.375 -7.40625 L 2.25 -7.40625 Z M 2.25 -0.921875 "/></g></g><g style="fill:#ffffff;fill-opacity:1;"><g transform="translate(284.038116, 232.989706)"><path style="stroke:none" d="M 0.3125 -0.34375 L 3.734375 -8.078125 C 3.796875 -8.203125 3.859375 -8.285156 3.921875 -8.328125 C 3.984375 -8.367188 4.0625 -8.390625 4.15625 -8.390625 L 4.4375 -8.390625 C 4.53125 -8.390625 4.601562 -8.367188 4.65625 -8.328125 C 4.707031 -8.285156 4.765625 -8.203125 4.828125 -8.078125 L 8.28125 -0.34375 C 8.320312 -0.238281 8.320312 -0.15625 8.28125 -0.09375 C 8.238281 -0.03125 8.160156 0 8.046875 0 L 7.421875 0 C 7.304688 0 7.226562 -0.0234375 7.1875 -0.078125 C 7.15625 -0.128906 7.117188 -0.210938 7.078125 -0.328125 L 6.28125 -2.140625 L 2.25 -2.109375 L 1.453125 -0.328125 C 1.421875 -0.210938 1.382812 -0.128906 1.34375 -0.078125 C 1.300781 -0.0234375 1.222656 0 1.109375 0 L 0.53125 0 C 0.425781 0 0.347656 -0.03125 0.296875 -0.09375 C 0.253906 -0.15625 0.257812 -0.238281 0.3125 -0.34375 Z M 4.265625 -6.890625 L 2.5625 -2.921875 L 6 -2.921875 L 4.3125 -6.890625 Z M 4.265625 -6.890625 "/></g></g><g clip-rule="nonzero" clip-path="url(#2fcbd18120)"><path style="fill-rule:nonzero;fill:#7ad407;fill-opacity:1;stroke-width:0.1;stroke-linecap:butt;stroke-linejoin:miter;stroke:#000000;stroke-opacity:1;stroke-miterlimit:10;" d="M 108.410803 50.733053 C 118.55511 46.704452 129.718703 49.471081 139.280562 53.693831 C 149.958781 58.693179 160.879686 66.02232 165.248048 77.477136 C 167.23808 82.136723 165.927571 87.621444 162.529956 91.261746 C 159.908939 93.543002 156.123025 92.912016 152.919559 92.572255 C 145.687493 91.019059 141.270594 84.612128 135.688797 80.389378 C 130.786524 76.11809 125.641564 71.458504 119.040484 70.293608 C 113.167464 69.32286 108.071041 73.205849 104.285127 77.23445 C 98.606256 84.223829 95.014492 92.620792 92.247863 101.11483 C 90.403443 108.541045 86.568992 115.578962 87.054365 123.393477 C 86.471917 116.209948 84.433348 109.172031 84.239199 101.939965 C 83.8509 92.620792 85.064334 83.204545 87.394127 74.176596 C 91.665414 64.517662 98.315032 54.955803 108.410803 50.733053 Z M 108.410803 50.733053 " transform="matrix(0.0804792,0,0,0.0804792,154.072055,143.780323)"/><path style=" stroke:none;fill-rule:nonzero;fill:#7ad407;fill-opacity:1;" d="M 162.796875 147.863281 C 163.613281 147.539062 164.511719 147.761719 165.28125 148.101562 C 166.140625 148.503906 167.019531 149.09375 167.371094 150.015625 C 167.53125 150.390625 167.425781 150.832031 167.152344 151.125 C 166.941406 151.308594 166.636719 151.257812 166.378906 151.230469 C 165.796875 151.105469 165.441406 150.589844 164.992188 150.25 C 164.597656 149.90625 164.183594 149.53125 163.652344 149.4375 C 163.179688 149.359375 162.769531 149.671875 162.464844 149.996094 C 162.007812 150.558594 161.71875 151.234375 161.496094 151.917969 C 161.347656 152.515625 161.039062 153.082031 161.078125 153.710938 C 161.03125 153.132812 160.867188 152.566406 160.851562 151.984375 C 160.820312 151.234375 160.917969 150.476562 161.105469 149.75 C 161.449219 148.972656 161.984375 148.203125 162.796875 147.863281 Z M 162.796875 147.863281 "/></g><path style="fill-rule:nonzero;fill:#7ad407;fill-opacity:1;stroke-width:0.1;stroke-linecap:butt;stroke-linejoin:miter;stroke:#000000;stroke-opacity:1;stroke-miterlimit:10;" d="M 200.631782 56.897297 C 207.960923 56.072162 215.678362 58.935866 220.580636 64.469125 C 223.929713 68.546263 226.162432 73.73976 226.113894 79.078869 C 225.482909 85.582875 222.230906 91.989806 216.746184 95.727183 C 210.339253 100.241157 201.553991 101.211904 194.321925 98.056976 C 183.546632 93.979838 177.285313 80.146691 182.818572 69.711159 C 185.924962 62.576168 193.108491 57.965119 200.631782 56.897297 Z M 200.631782 56.897297 " transform="matrix(0.0804792,0,0,0.0804792,154.072055,143.780323)"/><path style=" stroke:none;fill-rule:nonzero;fill:#7ad407;fill-opacity:1;" d="M 170.21875 148.359375 C 170.808594 148.292969 171.429688 148.523438 171.824219 148.96875 C 172.09375 149.296875 172.273438 149.714844 172.269531 150.144531 C 172.21875 150.667969 171.957031 151.183594 171.515625 151.484375 C 171 151.847656 170.292969 151.925781 169.710938 151.671875 C 168.84375 151.34375 168.339844 150.230469 168.785156 149.390625 C 169.035156 148.816406 169.613281 148.445312 170.21875 148.359375 Z M 170.21875 148.359375 "/><g clip-rule="nonzero" clip-path="url(#e81e6fa467)"><path style="fill-rule:nonzero;fill:#7ad407;fill-opacity:1;stroke-width:0.1;stroke-linecap:butt;stroke-linejoin:miter;stroke:#000000;stroke-opacity:1;stroke-miterlimit:10;" d="M 276.88397 94.659361 C 277.320806 94.659361 277.757643 94.610824 278.194479 94.610824 C 278.000329 98.493812 279.019614 102.328263 278.388628 106.162715 C 277.369344 112.763795 274.699789 118.976577 271.836085 124.946672 C 265.526229 139.022506 253.537501 150.671471 239.073369 156.156193 C 232.423751 158.485986 224.512162 158.340374 218.542067 154.311773 C 208.834595 148.001917 201.21423 138.342983 197.865152 127.17939 C 195.778046 121.160758 195.680971 113.928692 199.321273 108.492508 C 201.117155 106.114177 203.59256 103.444623 206.844563 103.590235 C 210.242178 103.929996 213.300032 105.968565 215.338601 108.589583 C 220.143799 114.947976 221.163084 123.15079 225.143147 129.897482 C 228.443687 134.265845 233.831334 139.459342 239.752892 136.886862 C 246.936421 133.877546 252.955053 128.732586 258.779536 123.684701 C 266.108677 117.326307 271.253637 108.880807 275.330775 100.19262 C 276.15591 98.445275 276.738358 96.600855 276.88397 94.659361 Z M 276.88397 94.659361 " transform="matrix(0.0804792,0,0,0.0804792,154.072055,143.780323)"/><path style=" stroke:none;fill-rule:nonzero;fill:#7ad407;fill-opacity:1;" d="M 176.355469 151.398438 C 176.390625 151.398438 176.425781 151.394531 176.460938 151.394531 C 176.445312 151.707031 176.527344 152.015625 176.476562 152.324219 C 176.394531 152.855469 176.179688 153.355469 175.949219 153.835938 C 175.441406 154.96875 174.476562 155.90625 173.3125 156.347656 C 172.777344 156.535156 172.140625 156.523438 171.660156 156.199219 C 170.878906 155.691406 170.265625 154.914062 169.996094 154.015625 C 169.828125 153.53125 169.820312 152.949219 170.113281 152.511719 C 170.257812 152.320312 170.457031 152.105469 170.71875 152.117188 C 170.992188 152.144531 171.238281 152.308594 171.402344 152.519531 C 171.789062 153.03125 171.871094 153.691406 172.191406 154.234375 C 172.457031 154.585938 172.890625 155.003906 173.367188 154.796875 C 173.945312 154.554688 174.429688 154.140625 174.898438 153.734375 C 175.488281 153.222656 175.902344 152.542969 176.230469 151.84375 C 176.296875 151.703125 176.34375 151.554688 176.355469 151.398438 Z M 176.355469 151.398438 "/></g><g clip-rule="nonzero" clip-path="url(#5a519692bb)"><path style=" stroke:none;fill-rule:nonzero;fill:#7ad407;fill-opacity:1;" d="M 161.964844 154.652344 C 162.308594 154.363281 162.8125 154.390625 163.210938 154.535156 C 163.613281 154.707031 164.035156 154.835938 164.398438 155.078125 C 164.96875 155.441406 165.511719 155.851562 165.996094 156.320312 C 166.542969 156.761719 167.050781 157.257812 167.488281 157.8125 C 167.808594 158.191406 168.144531 158.632812 168.121094 159.15625 C 167.882812 159.921875 167.226562 160.480469 166.546875 160.851562 C 165.644531 161.3125 164.636719 161.496094 163.671875 161.777344 C 163.253906 161.910156 162.816406 161.960938 162.382812 162.007812 C 161.890625 162.035156 161.394531 162.136719 160.902344 162.046875 C 161.21875 161.820312 161.601562 161.71875 161.945312 161.546875 C 162.941406 161.117188 163.875 160.570312 164.84375 160.085938 C 165.253906 159.886719 165.65625 159.636719 165.890625 159.230469 C 165.875 159.140625 165.863281 159.054688 165.851562 158.964844 C 165.578125 158.6875 165.238281 158.488281 164.886719 158.316406 C 164.476562 158.65625 164.003906 158.914062 163.628906 159.289062 C 162.59375 160.0625 161.449219 160.664062 160.347656 161.332031 C 158.867188 162.164062 157.460938 163.136719 155.949219 163.921875 C 155.863281 163.953125 155.773438 163.976562 155.679688 163.992188 C 156.261719 163.363281 156.9375 162.824219 157.507812 162.183594 C 158.332031 161.320312 159.15625 160.453125 160.015625 159.625 C 160.925781 158.75 161.808594 157.851562 162.652344 156.910156 C 162.296875 156.582031 161.835938 156.28125 161.730469 155.777344 C 161.625 155.394531 161.6875 154.945312 161.964844 154.652344 Z M 161.964844 154.652344 "/></g><g clip-rule="nonzero" clip-path="url(#c0951630bf)"><path style="fill:none;stroke-width:0.1;stroke-linecap:butt;stroke-linejoin:miter;stroke:#000000;stroke-opacity:1;stroke-miterlimit:10;" d="M 98.072345 135.09098 C 102.343633 131.499215 108.604952 131.838977 113.555763 133.634859 C 118.55511 135.770503 123.797145 137.372235 128.311119 140.381552 C 135.397573 144.895526 142.144266 149.991948 148.162898 155.816431 C 154.958128 161.301153 161.267985 167.465397 166.704169 174.357702 C 170.684232 179.065825 174.858445 184.550547 174.567221 191.054553 C 171.606442 200.567875 163.452166 207.508717 155.006666 212.119766 C 143.794536 217.847174 131.271898 220.12843 119.283171 223.62312 C 114.089673 225.27339 108.653489 225.904375 103.265843 226.486824 C 97.150136 226.826585 90.985891 228.088556 84.870184 226.972197 C 88.80171 224.157031 93.558371 222.895059 97.829659 220.759416 C 110.206685 215.420306 121.807113 208.625076 133.844378 202.606444 C 138.9408 200.131039 143.940148 197.024648 146.85239 191.976763 C 146.65824 190.860403 146.512628 189.792581 146.367016 188.676222 C 142.969401 185.23007 138.746651 182.754665 134.378289 180.619021 C 129.281866 184.841771 123.408846 188.045237 118.74926 192.704823 C 105.88686 202.31522 91.665414 209.789973 77.97788 218.089861 C 59.582221 228.428318 42.108772 240.51412 23.324815 250.270129 C 22.256993 250.658428 21.140634 250.949652 19.975737 251.143801 C 27.207804 243.329287 35.604767 236.631131 42.691221 228.671005 C 52.932603 217.944249 63.173986 207.168955 73.852204 196.879036 C 85.161408 186.006668 96.130851 174.843075 106.61492 163.145572 C 102.198021 159.068434 96.470613 155.331058 95.160104 149.069739 C 93.849595 144.313078 94.626193 138.731281 98.072345 135.09098 Z M 98.072345 135.09098 " transform="matrix(0.0804792,0,0,0.0804792,154.072055,143.780323)"/></g><g clip-rule="nonzero" clip-path="url(#ee0e434330)"><path style=" stroke:none;fill-rule:nonzero;fill:#7ad407;fill-opacity:1;" d="M 161.964844 154.652344 C 162.308594 154.363281 162.8125 154.390625 163.210938 154.535156 C 163.613281 154.707031 164.035156 154.835938 164.398438 155.078125 C 164.96875 155.441406 165.511719 155.851562 165.996094 156.320312 C 166.542969 156.761719 167.050781 157.257812 167.488281 157.8125 C 167.808594 158.191406 168.144531 158.632812 168.121094 159.15625 C 167.882812 159.921875 167.226562 160.480469 166.546875 160.851562 C 165.644531 161.3125 164.636719 161.496094 163.671875 161.777344 C 163.253906 161.910156 162.816406 161.960938 162.382812 162.007812 C 161.890625 162.035156 161.394531 162.136719 160.902344 162.046875 C 161.21875 161.820312 161.601562 161.71875 161.945312 161.546875 C 162.941406 161.117188 163.875 160.570312 164.84375 160.085938 C 165.253906 159.886719 165.65625 159.636719 165.890625 159.230469 C 165.875 159.140625 165.863281 159.054688 165.851562 158.964844 C 165.578125 158.6875 165.238281 158.488281 164.886719 158.316406 C 164.476562 158.65625 164.003906 158.914062 163.628906 159.289062 C 162.59375 160.0625 161.449219 160.664062 160.347656 161.332031 C 158.867188 162.164062 157.460938 163.136719 155.949219 163.921875 C 155.863281 163.953125 155.773438 163.976562 155.679688 163.992188 C 156.261719 163.363281 156.9375 162.824219 157.507812 162.183594 C 158.332031 161.320312 159.15625 160.453125 160.015625 159.625 C 160.925781 158.75 161.808594 157.851562 162.652344 156.910156 C 162.296875 156.582031 161.835938 156.28125 161.730469 155.777344 C 161.625 155.394531 161.6875 154.945312 161.964844 154.652344 Z M 161.964844 154.652344 "/></g></g></svg>